G04 #@! TF.GenerationSoftware,KiCad,Pcbnew,5.1.2*
G04 #@! TF.CreationDate,2019-07-06T00:34:56-04:00*
G04 #@! TF.ProjectId,repl_sharp_el-w516x,7265706c-5f73-4686-9172-705f656c2d77,rev?*
G04 #@! TF.SameCoordinates,Original*
G04 #@! TF.FileFunction,Legend,Top*
G04 #@! TF.FilePolarity,Positive*
%FSLAX46Y46*%
G04 Gerber Fmt 4.6, Leading zero omitted, Abs format (unit mm)*
G04 Created by KiCad (PCBNEW 5.1.2) date 2019-07-06 00:34:56*
%MOMM*%
%LPD*%
G04 APERTURE LIST*
%ADD10C,0.150000*%
%ADD11C,0.100000*%
%ADD12C,0.254000*%
G04 APERTURE END LIST*
D10*
X131344523Y-14792380D02*
X131963571Y-14792380D01*
X131630238Y-15173333D01*
X131773095Y-15173333D01*
X131868333Y-15220952D01*
X131915952Y-15268571D01*
X131963571Y-15363809D01*
X131963571Y-15601904D01*
X131915952Y-15697142D01*
X131868333Y-15744761D01*
X131773095Y-15792380D01*
X131487380Y-15792380D01*
X131392142Y-15744761D01*
X131344523Y-15697142D01*
X132344523Y-14887619D02*
X132392142Y-14840000D01*
X132487380Y-14792380D01*
X132725476Y-14792380D01*
X132820714Y-14840000D01*
X132868333Y-14887619D01*
X132915952Y-14982857D01*
X132915952Y-15078095D01*
X132868333Y-15220952D01*
X132296904Y-15792380D01*
X132915952Y-15792380D01*
X133344523Y-15697142D02*
X133392142Y-15744761D01*
X133344523Y-15792380D01*
X133296904Y-15744761D01*
X133344523Y-15697142D01*
X133344523Y-15792380D01*
X134011190Y-14792380D02*
X134106428Y-14792380D01*
X134201666Y-14840000D01*
X134249285Y-14887619D01*
X134296904Y-14982857D01*
X134344523Y-15173333D01*
X134344523Y-15411428D01*
X134296904Y-15601904D01*
X134249285Y-15697142D01*
X134201666Y-15744761D01*
X134106428Y-15792380D01*
X134011190Y-15792380D01*
X133915952Y-15744761D01*
X133868333Y-15697142D01*
X133820714Y-15601904D01*
X133773095Y-15411428D01*
X133773095Y-15173333D01*
X133820714Y-14982857D01*
X133868333Y-14887619D01*
X133915952Y-14840000D01*
X134011190Y-14792380D01*
X134963571Y-14792380D02*
X135058809Y-14792380D01*
X135154047Y-14840000D01*
X135201666Y-14887619D01*
X135249285Y-14982857D01*
X135296904Y-15173333D01*
X135296904Y-15411428D01*
X135249285Y-15601904D01*
X135201666Y-15697142D01*
X135154047Y-15744761D01*
X135058809Y-15792380D01*
X134963571Y-15792380D01*
X134868333Y-15744761D01*
X134820714Y-15697142D01*
X134773095Y-15601904D01*
X134725476Y-15411428D01*
X134725476Y-15173333D01*
X134773095Y-14982857D01*
X134820714Y-14887619D01*
X134868333Y-14840000D01*
X134963571Y-14792380D01*
X135915952Y-14792380D02*
X136011190Y-14792380D01*
X136106428Y-14840000D01*
X136154047Y-14887619D01*
X136201666Y-14982857D01*
X136249285Y-15173333D01*
X136249285Y-15411428D01*
X136201666Y-15601904D01*
X136154047Y-15697142D01*
X136106428Y-15744761D01*
X136011190Y-15792380D01*
X135915952Y-15792380D01*
X135820714Y-15744761D01*
X135773095Y-15697142D01*
X135725476Y-15601904D01*
X135677857Y-15411428D01*
X135677857Y-15173333D01*
X135725476Y-14982857D01*
X135773095Y-14887619D01*
X135820714Y-14840000D01*
X135915952Y-14792380D01*
X137439761Y-15792380D02*
X137439761Y-15125714D01*
X137439761Y-15220952D02*
X137487380Y-15173333D01*
X137582619Y-15125714D01*
X137725476Y-15125714D01*
X137820714Y-15173333D01*
X137868333Y-15268571D01*
X137868333Y-15792380D01*
X137868333Y-15268571D02*
X137915952Y-15173333D01*
X138011190Y-15125714D01*
X138154047Y-15125714D01*
X138249285Y-15173333D01*
X138296904Y-15268571D01*
X138296904Y-15792380D01*
X138773095Y-15792380D02*
X138773095Y-15125714D01*
X138773095Y-15220952D02*
X138820714Y-15173333D01*
X138915952Y-15125714D01*
X139058809Y-15125714D01*
X139154047Y-15173333D01*
X139201666Y-15268571D01*
X139201666Y-15792380D01*
X139201666Y-15268571D02*
X139249285Y-15173333D01*
X139344523Y-15125714D01*
X139487380Y-15125714D01*
X139582619Y-15173333D01*
X139630238Y-15268571D01*
X139630238Y-15792380D01*
X119535000Y-16640000D02*
X151535000Y-16640000D01*
X119535000Y-17783000D02*
X119535000Y-16053579D01*
X151535000Y-17783000D02*
X151535000Y-16053579D01*
X151535000Y-16640000D02*
X150408496Y-17226421D01*
X151535000Y-16640000D02*
X150408496Y-16053579D01*
X119535000Y-16640000D02*
X120661504Y-17226421D01*
X119535000Y-16640000D02*
X120661504Y-16053579D01*
X113999523Y-15125714D02*
X113999523Y-15792380D01*
X113761428Y-14744761D02*
X113523333Y-15459047D01*
X114142380Y-15459047D01*
X114523333Y-15697142D02*
X114570952Y-15744761D01*
X114523333Y-15792380D01*
X114475714Y-15744761D01*
X114523333Y-15697142D01*
X114523333Y-15792380D01*
X115428095Y-14792380D02*
X115237619Y-14792380D01*
X115142380Y-14840000D01*
X115094761Y-14887619D01*
X114999523Y-15030476D01*
X114951904Y-15220952D01*
X114951904Y-15601904D01*
X114999523Y-15697142D01*
X115047142Y-15744761D01*
X115142380Y-15792380D01*
X115332857Y-15792380D01*
X115428095Y-15744761D01*
X115475714Y-15697142D01*
X115523333Y-15601904D01*
X115523333Y-15363809D01*
X115475714Y-15268571D01*
X115428095Y-15220952D01*
X115332857Y-15173333D01*
X115142380Y-15173333D01*
X115047142Y-15220952D01*
X114999523Y-15268571D01*
X114951904Y-15363809D01*
X115999523Y-15792380D02*
X116190000Y-15792380D01*
X116285238Y-15744761D01*
X116332857Y-15697142D01*
X116428095Y-15554285D01*
X116475714Y-15363809D01*
X116475714Y-14982857D01*
X116428095Y-14887619D01*
X116380476Y-14840000D01*
X116285238Y-14792380D01*
X116094761Y-14792380D01*
X115999523Y-14840000D01*
X115951904Y-14887619D01*
X115904285Y-14982857D01*
X115904285Y-15220952D01*
X115951904Y-15316190D01*
X115999523Y-15363809D01*
X116094761Y-15411428D01*
X116285238Y-15411428D01*
X116380476Y-15363809D01*
X116428095Y-15316190D01*
X116475714Y-15220952D01*
X117094761Y-14792380D02*
X117190000Y-14792380D01*
X117285238Y-14840000D01*
X117332857Y-14887619D01*
X117380476Y-14982857D01*
X117428095Y-15173333D01*
X117428095Y-15411428D01*
X117380476Y-15601904D01*
X117332857Y-15697142D01*
X117285238Y-15744761D01*
X117190000Y-15792380D01*
X117094761Y-15792380D01*
X116999523Y-15744761D01*
X116951904Y-15697142D01*
X116904285Y-15601904D01*
X116856666Y-15411428D01*
X116856666Y-15173333D01*
X116904285Y-14982857D01*
X116951904Y-14887619D01*
X116999523Y-14840000D01*
X117094761Y-14792380D01*
X118618571Y-15792380D02*
X118618571Y-15125714D01*
X118618571Y-15220952D02*
X118666190Y-15173333D01*
X118761428Y-15125714D01*
X118904285Y-15125714D01*
X118999523Y-15173333D01*
X119047142Y-15268571D01*
X119047142Y-15792380D01*
X119047142Y-15268571D02*
X119094761Y-15173333D01*
X119190000Y-15125714D01*
X119332857Y-15125714D01*
X119428095Y-15173333D01*
X119475714Y-15268571D01*
X119475714Y-15792380D01*
X119951904Y-15792380D02*
X119951904Y-15125714D01*
X119951904Y-15220952D02*
X119999523Y-15173333D01*
X120094761Y-15125714D01*
X120237619Y-15125714D01*
X120332857Y-15173333D01*
X120380476Y-15268571D01*
X120380476Y-15792380D01*
X120380476Y-15268571D02*
X120428095Y-15173333D01*
X120523333Y-15125714D01*
X120666190Y-15125714D01*
X120761428Y-15173333D01*
X120809047Y-15268571D01*
X120809047Y-15792380D01*
X119535000Y-16640000D02*
X114845000Y-16640000D01*
X119535000Y-35200000D02*
X119535000Y-16053579D01*
X114845000Y-35200000D02*
X114845000Y-16053579D01*
X114845000Y-16640000D02*
X115971504Y-16053579D01*
X114845000Y-16640000D02*
X115971504Y-17226421D01*
X119535000Y-16640000D02*
X118408496Y-16053579D01*
X119535000Y-16640000D02*
X118408496Y-17226421D01*
X150689523Y-15125714D02*
X150689523Y-15792380D01*
X150451428Y-14744761D02*
X150213333Y-15459047D01*
X150832380Y-15459047D01*
X151213333Y-15697142D02*
X151260952Y-15744761D01*
X151213333Y-15792380D01*
X151165714Y-15744761D01*
X151213333Y-15697142D01*
X151213333Y-15792380D01*
X152118095Y-14792380D02*
X151927619Y-14792380D01*
X151832380Y-14840000D01*
X151784761Y-14887619D01*
X151689523Y-15030476D01*
X151641904Y-15220952D01*
X151641904Y-15601904D01*
X151689523Y-15697142D01*
X151737142Y-15744761D01*
X151832380Y-15792380D01*
X152022857Y-15792380D01*
X152118095Y-15744761D01*
X152165714Y-15697142D01*
X152213333Y-15601904D01*
X152213333Y-15363809D01*
X152165714Y-15268571D01*
X152118095Y-15220952D01*
X152022857Y-15173333D01*
X151832380Y-15173333D01*
X151737142Y-15220952D01*
X151689523Y-15268571D01*
X151641904Y-15363809D01*
X152689523Y-15792380D02*
X152880000Y-15792380D01*
X152975238Y-15744761D01*
X153022857Y-15697142D01*
X153118095Y-15554285D01*
X153165714Y-15363809D01*
X153165714Y-14982857D01*
X153118095Y-14887619D01*
X153070476Y-14840000D01*
X152975238Y-14792380D01*
X152784761Y-14792380D01*
X152689523Y-14840000D01*
X152641904Y-14887619D01*
X152594285Y-14982857D01*
X152594285Y-15220952D01*
X152641904Y-15316190D01*
X152689523Y-15363809D01*
X152784761Y-15411428D01*
X152975238Y-15411428D01*
X153070476Y-15363809D01*
X153118095Y-15316190D01*
X153165714Y-15220952D01*
X153784761Y-14792380D02*
X153880000Y-14792380D01*
X153975238Y-14840000D01*
X154022857Y-14887619D01*
X154070476Y-14982857D01*
X154118095Y-15173333D01*
X154118095Y-15411428D01*
X154070476Y-15601904D01*
X154022857Y-15697142D01*
X153975238Y-15744761D01*
X153880000Y-15792380D01*
X153784761Y-15792380D01*
X153689523Y-15744761D01*
X153641904Y-15697142D01*
X153594285Y-15601904D01*
X153546666Y-15411428D01*
X153546666Y-15173333D01*
X153594285Y-14982857D01*
X153641904Y-14887619D01*
X153689523Y-14840000D01*
X153784761Y-14792380D01*
X155308571Y-15792380D02*
X155308571Y-15125714D01*
X155308571Y-15220952D02*
X155356190Y-15173333D01*
X155451428Y-15125714D01*
X155594285Y-15125714D01*
X155689523Y-15173333D01*
X155737142Y-15268571D01*
X155737142Y-15792380D01*
X155737142Y-15268571D02*
X155784761Y-15173333D01*
X155880000Y-15125714D01*
X156022857Y-15125714D01*
X156118095Y-15173333D01*
X156165714Y-15268571D01*
X156165714Y-15792380D01*
X156641904Y-15792380D02*
X156641904Y-15125714D01*
X156641904Y-15220952D02*
X156689523Y-15173333D01*
X156784761Y-15125714D01*
X156927619Y-15125714D01*
X157022857Y-15173333D01*
X157070476Y-15268571D01*
X157070476Y-15792380D01*
X157070476Y-15268571D02*
X157118095Y-15173333D01*
X157213333Y-15125714D01*
X157356190Y-15125714D01*
X157451428Y-15173333D01*
X157499047Y-15268571D01*
X157499047Y-15792380D01*
X156225000Y-16640000D02*
X151535000Y-16640000D01*
X156225000Y-35170000D02*
X156225000Y-16053579D01*
X151535000Y-35170000D02*
X151535000Y-16053579D01*
X151535000Y-16640000D02*
X152661504Y-16053579D01*
X151535000Y-16640000D02*
X152661504Y-17226421D01*
X156225000Y-16640000D02*
X155098496Y-16053579D01*
X156225000Y-16640000D02*
X155098496Y-17226421D01*
X111715952Y-24076190D02*
X111668333Y-24171428D01*
X111620714Y-24219047D01*
X111525476Y-24266666D01*
X111477857Y-24266666D01*
X111382619Y-24219047D01*
X111335000Y-24171428D01*
X111287380Y-24076190D01*
X111287380Y-23885714D01*
X111335000Y-23790476D01*
X111382619Y-23742857D01*
X111477857Y-23695238D01*
X111525476Y-23695238D01*
X111620714Y-23742857D01*
X111668333Y-23790476D01*
X111715952Y-23885714D01*
X111715952Y-24076190D01*
X111763571Y-24171428D01*
X111811190Y-24219047D01*
X111906428Y-24266666D01*
X112096904Y-24266666D01*
X112192142Y-24219047D01*
X112239761Y-24171428D01*
X112287380Y-24076190D01*
X112287380Y-23885714D01*
X112239761Y-23790476D01*
X112192142Y-23742857D01*
X112096904Y-23695238D01*
X111906428Y-23695238D01*
X111811190Y-23742857D01*
X111763571Y-23790476D01*
X111715952Y-23885714D01*
X112192142Y-23266666D02*
X112239761Y-23219047D01*
X112287380Y-23266666D01*
X112239761Y-23314285D01*
X112192142Y-23266666D01*
X112287380Y-23266666D01*
X111287380Y-22600000D02*
X111287380Y-22504761D01*
X111335000Y-22409523D01*
X111382619Y-22361904D01*
X111477857Y-22314285D01*
X111668333Y-22266666D01*
X111906428Y-22266666D01*
X112096904Y-22314285D01*
X112192142Y-22361904D01*
X112239761Y-22409523D01*
X112287380Y-22504761D01*
X112287380Y-22600000D01*
X112239761Y-22695238D01*
X112192142Y-22742857D01*
X112096904Y-22790476D01*
X111906428Y-22838095D01*
X111668333Y-22838095D01*
X111477857Y-22790476D01*
X111382619Y-22742857D01*
X111335000Y-22695238D01*
X111287380Y-22600000D01*
X111287380Y-21647619D02*
X111287380Y-21552380D01*
X111335000Y-21457142D01*
X111382619Y-21409523D01*
X111477857Y-21361904D01*
X111668333Y-21314285D01*
X111906428Y-21314285D01*
X112096904Y-21361904D01*
X112192142Y-21409523D01*
X112239761Y-21457142D01*
X112287380Y-21552380D01*
X112287380Y-21647619D01*
X112239761Y-21742857D01*
X112192142Y-21790476D01*
X112096904Y-21838095D01*
X111906428Y-21885714D01*
X111668333Y-21885714D01*
X111477857Y-21838095D01*
X111382619Y-21790476D01*
X111335000Y-21742857D01*
X111287380Y-21647619D01*
X111287380Y-20695238D02*
X111287380Y-20600000D01*
X111335000Y-20504761D01*
X111382619Y-20457142D01*
X111477857Y-20409523D01*
X111668333Y-20361904D01*
X111906428Y-20361904D01*
X112096904Y-20409523D01*
X112192142Y-20457142D01*
X112239761Y-20504761D01*
X112287380Y-20600000D01*
X112287380Y-20695238D01*
X112239761Y-20790476D01*
X112192142Y-20838095D01*
X112096904Y-20885714D01*
X111906428Y-20933333D01*
X111668333Y-20933333D01*
X111477857Y-20885714D01*
X111382619Y-20838095D01*
X111335000Y-20790476D01*
X111287380Y-20695238D01*
X112287380Y-19171428D02*
X111620714Y-19171428D01*
X111715952Y-19171428D02*
X111668333Y-19123809D01*
X111620714Y-19028571D01*
X111620714Y-18885714D01*
X111668333Y-18790476D01*
X111763571Y-18742857D01*
X112287380Y-18742857D01*
X111763571Y-18742857D02*
X111668333Y-18695238D01*
X111620714Y-18600000D01*
X111620714Y-18457142D01*
X111668333Y-18361904D01*
X111763571Y-18314285D01*
X112287380Y-18314285D01*
X112287380Y-17838095D02*
X111620714Y-17838095D01*
X111715952Y-17838095D02*
X111668333Y-17790476D01*
X111620714Y-17695238D01*
X111620714Y-17552380D01*
X111668333Y-17457142D01*
X111763571Y-17409523D01*
X112287380Y-17409523D01*
X111763571Y-17409523D02*
X111668333Y-17361904D01*
X111620714Y-17266666D01*
X111620714Y-17123809D01*
X111668333Y-17028571D01*
X111763571Y-16980952D01*
X112287380Y-16980952D01*
X113135000Y-24600000D02*
X113135000Y-16600000D01*
X156225000Y-24600000D02*
X112548579Y-24600000D01*
X156225000Y-16600000D02*
X112548579Y-16600000D01*
X113135000Y-16600000D02*
X113721421Y-17726504D01*
X113135000Y-16600000D02*
X112548579Y-17726504D01*
X113135000Y-24600000D02*
X113721421Y-23473496D01*
X113135000Y-24600000D02*
X112548579Y-23473496D01*
X112287380Y-33456428D02*
X112287380Y-34027857D01*
X112287380Y-33742142D02*
X111287380Y-33742142D01*
X111430238Y-33837380D01*
X111525476Y-33932619D01*
X111573095Y-34027857D01*
X111287380Y-32837380D02*
X111287380Y-32742142D01*
X111335000Y-32646904D01*
X111382619Y-32599285D01*
X111477857Y-32551666D01*
X111668333Y-32504047D01*
X111906428Y-32504047D01*
X112096904Y-32551666D01*
X112192142Y-32599285D01*
X112239761Y-32646904D01*
X112287380Y-32742142D01*
X112287380Y-32837380D01*
X112239761Y-32932619D01*
X112192142Y-32980238D01*
X112096904Y-33027857D01*
X111906428Y-33075476D01*
X111668333Y-33075476D01*
X111477857Y-33027857D01*
X111382619Y-32980238D01*
X111335000Y-32932619D01*
X111287380Y-32837380D01*
X112192142Y-32075476D02*
X112239761Y-32027857D01*
X112287380Y-32075476D01*
X112239761Y-32123095D01*
X112192142Y-32075476D01*
X112287380Y-32075476D01*
X111287380Y-31123095D02*
X111287380Y-31599285D01*
X111763571Y-31646904D01*
X111715952Y-31599285D01*
X111668333Y-31504047D01*
X111668333Y-31265952D01*
X111715952Y-31170714D01*
X111763571Y-31123095D01*
X111858809Y-31075476D01*
X112096904Y-31075476D01*
X112192142Y-31123095D01*
X112239761Y-31170714D01*
X112287380Y-31265952D01*
X112287380Y-31504047D01*
X112239761Y-31599285D01*
X112192142Y-31646904D01*
X111287380Y-30742142D02*
X111287380Y-30075476D01*
X112287380Y-30504047D01*
X111287380Y-29504047D02*
X111287380Y-29408809D01*
X111335000Y-29313571D01*
X111382619Y-29265952D01*
X111477857Y-29218333D01*
X111668333Y-29170714D01*
X111906428Y-29170714D01*
X112096904Y-29218333D01*
X112192142Y-29265952D01*
X112239761Y-29313571D01*
X112287380Y-29408809D01*
X112287380Y-29504047D01*
X112239761Y-29599285D01*
X112192142Y-29646904D01*
X112096904Y-29694523D01*
X111906428Y-29742142D01*
X111668333Y-29742142D01*
X111477857Y-29694523D01*
X111382619Y-29646904D01*
X111335000Y-29599285D01*
X111287380Y-29504047D01*
X112287380Y-27980238D02*
X111620714Y-27980238D01*
X111715952Y-27980238D02*
X111668333Y-27932619D01*
X111620714Y-27837380D01*
X111620714Y-27694523D01*
X111668333Y-27599285D01*
X111763571Y-27551666D01*
X112287380Y-27551666D01*
X111763571Y-27551666D02*
X111668333Y-27504047D01*
X111620714Y-27408809D01*
X111620714Y-27265952D01*
X111668333Y-27170714D01*
X111763571Y-27123095D01*
X112287380Y-27123095D01*
X112287380Y-26646904D02*
X111620714Y-26646904D01*
X111715952Y-26646904D02*
X111668333Y-26599285D01*
X111620714Y-26504047D01*
X111620714Y-26361190D01*
X111668333Y-26265952D01*
X111763571Y-26218333D01*
X112287380Y-26218333D01*
X111763571Y-26218333D02*
X111668333Y-26170714D01*
X111620714Y-26075476D01*
X111620714Y-25932619D01*
X111668333Y-25837380D01*
X111763571Y-25789761D01*
X112287380Y-25789761D01*
X113135000Y-35170000D02*
X113135000Y-24600000D01*
X156225000Y-35170000D02*
X112548579Y-35170000D01*
X156225000Y-24600000D02*
X112548579Y-24600000D01*
X113135000Y-24600000D02*
X113721421Y-25726504D01*
X113135000Y-24600000D02*
X112548579Y-25726504D01*
X113135000Y-35170000D02*
X113721421Y-34043496D01*
X113135000Y-35170000D02*
X112548579Y-34043496D01*
D11*
X114825000Y-10870000D02*
X156225000Y-10870000D01*
X156225000Y-10870000D02*
X156225000Y-35170000D01*
X156225000Y-35170000D02*
X114825000Y-35170000D01*
X114825000Y-35170000D02*
X114825000Y-10870000D01*
D12*
X133982857Y-23594523D02*
X133982857Y-22324523D01*
X134285238Y-22324523D01*
X134466666Y-22385000D01*
X134587619Y-22505952D01*
X134648095Y-22626904D01*
X134708571Y-22868809D01*
X134708571Y-23050238D01*
X134648095Y-23292142D01*
X134587619Y-23413095D01*
X134466666Y-23534047D01*
X134285238Y-23594523D01*
X133982857Y-23594523D01*
X135192380Y-23534047D02*
X135373809Y-23594523D01*
X135676190Y-23594523D01*
X135797142Y-23534047D01*
X135857619Y-23473571D01*
X135918095Y-23352619D01*
X135918095Y-23231666D01*
X135857619Y-23110714D01*
X135797142Y-23050238D01*
X135676190Y-22989761D01*
X135434285Y-22929285D01*
X135313333Y-22868809D01*
X135252857Y-22808333D01*
X135192380Y-22687380D01*
X135192380Y-22566428D01*
X135252857Y-22445476D01*
X135313333Y-22385000D01*
X135434285Y-22324523D01*
X135736666Y-22324523D01*
X135918095Y-22385000D01*
X137127619Y-23594523D02*
X136401904Y-23594523D01*
X136764761Y-23594523D02*
X136764761Y-22324523D01*
X136643809Y-22505952D01*
X136522857Y-22626904D01*
X136401904Y-22687380D01*
M02*
