M48
; DRILL file {KiCad 5.1.2} date Sat 06 Jul 2019 12:34:52 AM EDT
; FORMAT={-:-/ absolute / inch / decimal}
; #@! TF.CreationDate,2019-07-06T00:34:52-04:00
; #@! TF.GenerationSoftware,Kicad,Pcbnew,5.1.2
FMAT,2
INCH
T1C0.0157
T2C0.0256
T3C0.0276
T4C0.0606
T5C0.0354
T6C0.0827
T7C0.1378
%
G90
G05
T1
X4.0582Y-2.5151
X4.0882Y-4.1701
X4.1032Y-2.9151
X4.2482Y-1.7251
X4.3682Y-1.6101
X4.4732Y-4.5551
X4.4832Y-5.8151
X4.4982Y-1.8751
X4.5082Y-4.0851
X4.5132Y-3.9951
X4.5832Y-2.1151
X4.5982Y-2.4701
X4.6232Y-2.7226
X4.6732Y-2.1751
X4.6732Y-2.4751
X4.6932Y-5.3251
X4.7032Y-4.4651
X4.8582Y-1.9501
X4.8682Y-2.7509
X4.8982Y-2.8951
X4.8982Y-3.3151
X4.8982Y-3.5801
X4.8982Y-3.7301
X4.8982Y-3.2151
X4.9082Y-4.0301
X4.9282Y-1.9501
X4.9382Y-3.6301
X4.9432Y-3.2101
X4.9882Y-1.5919
X5.0032Y-2.1601
X5.0082Y-2.0601
X5.0213Y-3.239
X5.0282Y-2.3651
X5.0382Y-2.8801
X5.0475Y-2.2558
X5.0632Y-1.9451
X5.0682Y-2.7751
X5.0682Y-2.4651
X5.0682Y-4.4201
X5.0682Y-4.6001
X5.0682Y-5.3101
X5.0682Y-5.4201
X5.0982Y-1.9201
X5.1082Y-2.0051
X5.1282Y-2.7201
X5.1782Y-2.7351
X5.2164Y-2.7916
X5.2182Y-5.3151
X5.2182Y-4.4151
X5.2182Y-4.6001
X5.2182Y-5.4201
X5.3282Y-3.5951
X5.3282Y-3.7201
X5.3532Y-3.2101
X5.3532Y-1.5051
X5.3532Y-3.3201
X5.3732Y-2.8901
X5.4382Y-2.9301
X5.5128Y-1.0905
X5.5132Y-2.2801
X5.5382Y-1.9801
X5.5782Y-1.5051
X5.5782Y-1.8901
X5.5982Y-1.5851
X5.6132Y-2.715
X5.6132Y-2.7601
X5.6182Y-4.4101
X5.6182Y-1.9301
X5.6282Y-4.0951
X5.6682Y-2.3451
X5.6682Y-2.3951
X5.6682Y-4.4301
X5.6932Y-4.0851
X5.6982Y-2.1851
X5.7082Y-3.3051
X5.7099Y-3.2151
X5.7182Y-3.6701
X5.7232Y-4.2701
X5.7232Y-4.4201
X5.7232Y-4.6051
X5.7232Y-5.2951
X5.7232Y-5.4451
X5.7682Y-2.9701
X5.7932Y-3.7001
X5.7932Y-3.5751
X5.8282Y-2.7151
X5.8539Y-2.7594
X5.8732Y-1.8951
X6.0082Y-2.4751
X6.0282Y-2.2801
X6.0382Y-1.4351
X6.0982Y-2.1201
X6.1132Y-1.5351
X6.1282Y-2.8051
X6.1282Y-2.8751
X6.1582Y-4.1051
X6.2132Y-1.4651
X6.2132Y-1.8551
X6.2132Y-4.2501
X6.2132Y-4.4151
X6.2132Y-4.6051
X6.2132Y-5.2701
X6.2182Y-3.3351
X6.2182Y-3.5851
X6.2182Y-3.6801
X6.2182Y-3.9901
X6.2382Y-1.6651
X6.2432Y-3.0201
X6.3032Y-5.4001
X6.5632Y-2.6501
T3
X4.8632Y-1.3551
X4.9222Y-1.3551
X4.9813Y-1.3551
X5.0404Y-1.3551
X5.0994Y-1.3551
X5.1585Y-1.3551
X5.2175Y-1.3551
X5.2766Y-1.3551
X5.3356Y-1.3551
X5.3947Y-1.3551
X5.4537Y-1.3551
X5.5128Y-1.3551
X5.5719Y-1.3551
X5.6309Y-1.3551
X5.69Y-1.3551
X5.749Y-1.3551
X5.8081Y-1.3551
T4
X4.6545Y-1.2843
X6.0167Y-1.2843
T5
X6.6082Y-1.0013
X6.6082Y-1.269
T6
X4.6339Y-1.9606
X6.0157Y-1.9803
X4.6063Y-5.4134
X6.1575Y-5.4094
T7
X4.6024Y-4.9803
X6.0748Y-4.9803
X5.3268Y-4.0315
T2
G00X4.1691Y-1.4608
M15
G01X4.1848Y-1.4608
M16
G05
G00X4.1691Y-1.6514
M15
G01X4.1848Y-1.6514
M16
G05
T3
G00X4.049Y-1.4486
M15
G01X4.0687Y-1.4486
M16
G05
G00X4.049Y-1.6636
M15
G01X4.0687Y-1.6636
M16
G05
T0
M30
