G04 #@! TF.GenerationSoftware,KiCad,Pcbnew,5.1.2*
G04 #@! TF.CreationDate,2019-06-27T09:05:03-04:00*
G04 #@! TF.ProjectId,repl_sharp_el-w516x,7265706c-5f73-4686-9172-705f656c2d77,rev?*
G04 #@! TF.SameCoordinates,Original*
G04 #@! TF.FileFunction,Soldermask,Bot*
G04 #@! TF.FilePolarity,Negative*
%FSLAX46Y46*%
G04 Gerber Fmt 4.6, Leading zero omitted, Abs format (unit mm)*
G04 Created by KiCad (PCBNEW 5.1.2) date 2019-06-27 09:05:03*
%MOMM*%
%LPD*%
G04 APERTURE LIST*
%ADD10C,0.100000*%
G04 APERTURE END LIST*
D10*
G36*
X117270856Y-124937098D02*
G01*
X117377179Y-124958247D01*
X117677642Y-125082703D01*
X117948051Y-125263385D01*
X118178015Y-125493349D01*
X118358697Y-125763758D01*
X118483153Y-126064221D01*
X118546600Y-126383191D01*
X118546600Y-126708409D01*
X118483153Y-127027379D01*
X118358697Y-127327842D01*
X118178015Y-127598251D01*
X117948051Y-127828215D01*
X117677642Y-128008897D01*
X117377179Y-128133353D01*
X117270856Y-128154502D01*
X117058211Y-128196800D01*
X116732989Y-128196800D01*
X116520344Y-128154502D01*
X116414021Y-128133353D01*
X116113558Y-128008897D01*
X115843149Y-127828215D01*
X115613185Y-127598251D01*
X115432503Y-127327842D01*
X115308047Y-127027379D01*
X115244600Y-126708409D01*
X115244600Y-126383191D01*
X115308047Y-126064221D01*
X115432503Y-125763758D01*
X115613185Y-125493349D01*
X115843149Y-125263385D01*
X116113558Y-125082703D01*
X116414021Y-124958247D01*
X116520344Y-124937098D01*
X116732989Y-124894800D01*
X117058211Y-124894800D01*
X117270856Y-124937098D01*
X117270856Y-124937098D01*
G37*
G36*
X135584256Y-100908698D02*
G01*
X135690579Y-100929847D01*
X135991042Y-101054303D01*
X136261451Y-101234985D01*
X136491415Y-101464949D01*
X136672097Y-101735358D01*
X136796553Y-102035821D01*
X136860000Y-102354791D01*
X136860000Y-102680009D01*
X136796553Y-102998979D01*
X136672097Y-103299442D01*
X136491415Y-103569851D01*
X136261451Y-103799815D01*
X135991042Y-103980497D01*
X135690579Y-104104953D01*
X135584256Y-104126102D01*
X135371611Y-104168400D01*
X135046389Y-104168400D01*
X134833744Y-104126102D01*
X134727421Y-104104953D01*
X134426958Y-103980497D01*
X134156549Y-103799815D01*
X133926585Y-103569851D01*
X133745903Y-103299442D01*
X133621447Y-102998979D01*
X133558000Y-102680009D01*
X133558000Y-102354791D01*
X133621447Y-102035821D01*
X133745903Y-101735358D01*
X133926585Y-101464949D01*
X134156549Y-101234985D01*
X134426958Y-101054303D01*
X134727421Y-100929847D01*
X134833744Y-100908698D01*
X135046389Y-100866400D01*
X135371611Y-100866400D01*
X135584256Y-100908698D01*
X135584256Y-100908698D01*
G37*
G36*
X159313000Y-81520000D02*
G01*
X157711000Y-81520000D01*
X157711000Y-79268000D01*
X159313000Y-79268000D01*
X159313000Y-81520000D01*
X159313000Y-81520000D01*
G37*
G36*
X148013000Y-81520000D02*
G01*
X146411000Y-81520000D01*
X146411000Y-79268000D01*
X148013000Y-79268000D01*
X148013000Y-81520000D01*
X148013000Y-81520000D01*
G37*
G36*
X114047499Y-79618445D02*
G01*
X114084995Y-79629820D01*
X114119554Y-79648292D01*
X114149847Y-79673153D01*
X114174708Y-79703446D01*
X114193180Y-79738005D01*
X114204555Y-79775501D01*
X114209000Y-79820638D01*
X114209000Y-80459362D01*
X114204555Y-80504499D01*
X114193180Y-80541995D01*
X114174708Y-80576554D01*
X114149847Y-80606847D01*
X114119554Y-80631708D01*
X114084995Y-80650180D01*
X114047499Y-80661555D01*
X114002362Y-80666000D01*
X113263638Y-80666000D01*
X113218501Y-80661555D01*
X113181005Y-80650180D01*
X113146446Y-80631708D01*
X113116153Y-80606847D01*
X113091292Y-80576554D01*
X113072820Y-80541995D01*
X113061445Y-80504499D01*
X113057000Y-80459362D01*
X113057000Y-79820638D01*
X113061445Y-79775501D01*
X113072820Y-79738005D01*
X113091292Y-79703446D01*
X113116153Y-79673153D01*
X113146446Y-79648292D01*
X113181005Y-79629820D01*
X113218501Y-79618445D01*
X113263638Y-79614000D01*
X114002362Y-79614000D01*
X114047499Y-79618445D01*
X114047499Y-79618445D01*
G37*
G36*
X115797499Y-79618445D02*
G01*
X115834995Y-79629820D01*
X115869554Y-79648292D01*
X115899847Y-79673153D01*
X115924708Y-79703446D01*
X115943180Y-79738005D01*
X115954555Y-79775501D01*
X115959000Y-79820638D01*
X115959000Y-80459362D01*
X115954555Y-80504499D01*
X115943180Y-80541995D01*
X115924708Y-80576554D01*
X115899847Y-80606847D01*
X115869554Y-80631708D01*
X115834995Y-80650180D01*
X115797499Y-80661555D01*
X115752362Y-80666000D01*
X115013638Y-80666000D01*
X114968501Y-80661555D01*
X114931005Y-80650180D01*
X114896446Y-80631708D01*
X114866153Y-80606847D01*
X114841292Y-80576554D01*
X114822820Y-80541995D01*
X114811445Y-80504499D01*
X114807000Y-80459362D01*
X114807000Y-79820638D01*
X114811445Y-79775501D01*
X114822820Y-79738005D01*
X114841292Y-79703446D01*
X114866153Y-79673153D01*
X114896446Y-79648292D01*
X114931005Y-79629820D01*
X114968501Y-79618445D01*
X115013638Y-79614000D01*
X115752362Y-79614000D01*
X115797499Y-79618445D01*
X115797499Y-79618445D01*
G37*
G36*
X119889499Y-79618445D02*
G01*
X119926995Y-79629820D01*
X119961554Y-79648292D01*
X119991847Y-79673153D01*
X120016708Y-79703446D01*
X120035180Y-79738005D01*
X120046555Y-79775501D01*
X120051000Y-79820638D01*
X120051000Y-80459362D01*
X120046555Y-80504499D01*
X120035180Y-80541995D01*
X120016708Y-80576554D01*
X119991847Y-80606847D01*
X119961554Y-80631708D01*
X119926995Y-80650180D01*
X119889499Y-80661555D01*
X119844362Y-80666000D01*
X119105638Y-80666000D01*
X119060501Y-80661555D01*
X119023005Y-80650180D01*
X118988446Y-80631708D01*
X118958153Y-80606847D01*
X118933292Y-80576554D01*
X118914820Y-80541995D01*
X118903445Y-80504499D01*
X118899000Y-80459362D01*
X118899000Y-79820638D01*
X118903445Y-79775501D01*
X118914820Y-79738005D01*
X118933292Y-79703446D01*
X118958153Y-79673153D01*
X118988446Y-79648292D01*
X119023005Y-79629820D01*
X119060501Y-79618445D01*
X119105638Y-79614000D01*
X119844362Y-79614000D01*
X119889499Y-79618445D01*
X119889499Y-79618445D01*
G37*
G36*
X121639499Y-79618445D02*
G01*
X121676995Y-79629820D01*
X121711554Y-79648292D01*
X121741847Y-79673153D01*
X121766708Y-79703446D01*
X121785180Y-79738005D01*
X121796555Y-79775501D01*
X121801000Y-79820638D01*
X121801000Y-80459362D01*
X121796555Y-80504499D01*
X121785180Y-80541995D01*
X121766708Y-80576554D01*
X121741847Y-80606847D01*
X121711554Y-80631708D01*
X121676995Y-80650180D01*
X121639499Y-80661555D01*
X121594362Y-80666000D01*
X120855638Y-80666000D01*
X120810501Y-80661555D01*
X120773005Y-80650180D01*
X120738446Y-80631708D01*
X120708153Y-80606847D01*
X120683292Y-80576554D01*
X120664820Y-80541995D01*
X120653445Y-80504499D01*
X120649000Y-80459362D01*
X120649000Y-79820638D01*
X120653445Y-79775501D01*
X120664820Y-79738005D01*
X120683292Y-79703446D01*
X120708153Y-79673153D01*
X120738446Y-79648292D01*
X120773005Y-79629820D01*
X120810501Y-79618445D01*
X120855638Y-79614000D01*
X121594362Y-79614000D01*
X121639499Y-79618445D01*
X121639499Y-79618445D01*
G37*
G36*
X110209499Y-79618445D02*
G01*
X110246995Y-79629820D01*
X110281554Y-79648292D01*
X110311847Y-79673153D01*
X110336708Y-79703446D01*
X110355180Y-79738005D01*
X110366555Y-79775501D01*
X110371000Y-79820638D01*
X110371000Y-80459362D01*
X110366555Y-80504499D01*
X110355180Y-80541995D01*
X110336708Y-80576554D01*
X110311847Y-80606847D01*
X110281554Y-80631708D01*
X110246995Y-80650180D01*
X110209499Y-80661555D01*
X110164362Y-80666000D01*
X109425638Y-80666000D01*
X109380501Y-80661555D01*
X109343005Y-80650180D01*
X109308446Y-80631708D01*
X109278153Y-80606847D01*
X109253292Y-80576554D01*
X109234820Y-80541995D01*
X109223445Y-80504499D01*
X109219000Y-80459362D01*
X109219000Y-79820638D01*
X109223445Y-79775501D01*
X109234820Y-79738005D01*
X109253292Y-79703446D01*
X109278153Y-79673153D01*
X109308446Y-79648292D01*
X109343005Y-79629820D01*
X109380501Y-79618445D01*
X109425638Y-79614000D01*
X110164362Y-79614000D01*
X110209499Y-79618445D01*
X110209499Y-79618445D01*
G37*
G36*
X108459499Y-79618445D02*
G01*
X108496995Y-79629820D01*
X108531554Y-79648292D01*
X108561847Y-79673153D01*
X108586708Y-79703446D01*
X108605180Y-79738005D01*
X108616555Y-79775501D01*
X108621000Y-79820638D01*
X108621000Y-80459362D01*
X108616555Y-80504499D01*
X108605180Y-80541995D01*
X108586708Y-80576554D01*
X108561847Y-80606847D01*
X108531554Y-80631708D01*
X108496995Y-80650180D01*
X108459499Y-80661555D01*
X108414362Y-80666000D01*
X107675638Y-80666000D01*
X107630501Y-80661555D01*
X107593005Y-80650180D01*
X107558446Y-80631708D01*
X107528153Y-80606847D01*
X107503292Y-80576554D01*
X107484820Y-80541995D01*
X107473445Y-80504499D01*
X107469000Y-80459362D01*
X107469000Y-79820638D01*
X107473445Y-79775501D01*
X107484820Y-79738005D01*
X107503292Y-79703446D01*
X107528153Y-79673153D01*
X107558446Y-79648292D01*
X107593005Y-79629820D01*
X107630501Y-79618445D01*
X107675638Y-79614000D01*
X108414362Y-79614000D01*
X108459499Y-79618445D01*
X108459499Y-79618445D01*
G37*
G36*
X130112499Y-78806445D02*
G01*
X130149995Y-78817820D01*
X130184554Y-78836292D01*
X130214847Y-78861153D01*
X130239708Y-78891446D01*
X130258180Y-78926005D01*
X130269555Y-78963501D01*
X130274000Y-79008638D01*
X130274000Y-79747362D01*
X130269555Y-79792499D01*
X130258180Y-79829995D01*
X130239708Y-79864554D01*
X130214847Y-79894847D01*
X130184554Y-79919708D01*
X130149995Y-79938180D01*
X130112499Y-79949555D01*
X130067362Y-79954000D01*
X129428638Y-79954000D01*
X129383501Y-79949555D01*
X129346005Y-79938180D01*
X129311446Y-79919708D01*
X129281153Y-79894847D01*
X129256292Y-79864554D01*
X129237820Y-79829995D01*
X129226445Y-79792499D01*
X129222000Y-79747362D01*
X129222000Y-79008638D01*
X129226445Y-78963501D01*
X129237820Y-78926005D01*
X129256292Y-78891446D01*
X129281153Y-78861153D01*
X129311446Y-78836292D01*
X129346005Y-78817820D01*
X129383501Y-78806445D01*
X129428638Y-78802000D01*
X130067362Y-78802000D01*
X130112499Y-78806445D01*
X130112499Y-78806445D01*
G37*
G36*
X142558499Y-78778445D02*
G01*
X142595995Y-78789820D01*
X142630554Y-78808292D01*
X142660847Y-78833153D01*
X142685708Y-78863446D01*
X142704180Y-78898005D01*
X142715555Y-78935501D01*
X142720000Y-78980638D01*
X142720000Y-79719362D01*
X142715555Y-79764499D01*
X142704180Y-79801995D01*
X142685708Y-79836554D01*
X142660847Y-79866847D01*
X142630554Y-79891708D01*
X142595995Y-79910180D01*
X142558499Y-79921555D01*
X142513362Y-79926000D01*
X141874638Y-79926000D01*
X141829501Y-79921555D01*
X141792005Y-79910180D01*
X141757446Y-79891708D01*
X141727153Y-79866847D01*
X141702292Y-79836554D01*
X141683820Y-79801995D01*
X141672445Y-79764499D01*
X141668000Y-79719362D01*
X141668000Y-78980638D01*
X141672445Y-78935501D01*
X141683820Y-78898005D01*
X141702292Y-78863446D01*
X141727153Y-78833153D01*
X141757446Y-78808292D01*
X141792005Y-78789820D01*
X141829501Y-78778445D01*
X141874638Y-78774000D01*
X142513362Y-78774000D01*
X142558499Y-78778445D01*
X142558499Y-78778445D01*
G37*
G36*
X139002499Y-78778445D02*
G01*
X139039995Y-78789820D01*
X139074554Y-78808292D01*
X139104847Y-78833153D01*
X139129708Y-78863446D01*
X139148180Y-78898005D01*
X139159555Y-78935501D01*
X139164000Y-78980638D01*
X139164000Y-79719362D01*
X139159555Y-79764499D01*
X139148180Y-79801995D01*
X139129708Y-79836554D01*
X139104847Y-79866847D01*
X139074554Y-79891708D01*
X139039995Y-79910180D01*
X139002499Y-79921555D01*
X138957362Y-79926000D01*
X138318638Y-79926000D01*
X138273501Y-79921555D01*
X138236005Y-79910180D01*
X138201446Y-79891708D01*
X138171153Y-79866847D01*
X138146292Y-79836554D01*
X138127820Y-79801995D01*
X138116445Y-79764499D01*
X138112000Y-79719362D01*
X138112000Y-78980638D01*
X138116445Y-78935501D01*
X138127820Y-78898005D01*
X138146292Y-78863446D01*
X138171153Y-78833153D01*
X138201446Y-78808292D01*
X138236005Y-78789820D01*
X138273501Y-78778445D01*
X138318638Y-78774000D01*
X138957362Y-78774000D01*
X139002499Y-78778445D01*
X139002499Y-78778445D01*
G37*
G36*
X140780499Y-78778445D02*
G01*
X140817995Y-78789820D01*
X140852554Y-78808292D01*
X140882847Y-78833153D01*
X140907708Y-78863446D01*
X140926180Y-78898005D01*
X140937555Y-78935501D01*
X140942000Y-78980638D01*
X140942000Y-79719362D01*
X140937555Y-79764499D01*
X140926180Y-79801995D01*
X140907708Y-79836554D01*
X140882847Y-79866847D01*
X140852554Y-79891708D01*
X140817995Y-79910180D01*
X140780499Y-79921555D01*
X140735362Y-79926000D01*
X140096638Y-79926000D01*
X140051501Y-79921555D01*
X140014005Y-79910180D01*
X139979446Y-79891708D01*
X139949153Y-79866847D01*
X139924292Y-79836554D01*
X139905820Y-79801995D01*
X139894445Y-79764499D01*
X139890000Y-79719362D01*
X139890000Y-78980638D01*
X139894445Y-78935501D01*
X139905820Y-78898005D01*
X139924292Y-78863446D01*
X139949153Y-78833153D01*
X139979446Y-78808292D01*
X140014005Y-78789820D01*
X140051501Y-78778445D01*
X140096638Y-78774000D01*
X140735362Y-78774000D01*
X140780499Y-78778445D01*
X140780499Y-78778445D01*
G37*
G36*
X135446499Y-78778445D02*
G01*
X135483995Y-78789820D01*
X135518554Y-78808292D01*
X135548847Y-78833153D01*
X135573708Y-78863446D01*
X135592180Y-78898005D01*
X135603555Y-78935501D01*
X135608000Y-78980638D01*
X135608000Y-79719362D01*
X135603555Y-79764499D01*
X135592180Y-79801995D01*
X135573708Y-79836554D01*
X135548847Y-79866847D01*
X135518554Y-79891708D01*
X135483995Y-79910180D01*
X135446499Y-79921555D01*
X135401362Y-79926000D01*
X134762638Y-79926000D01*
X134717501Y-79921555D01*
X134680005Y-79910180D01*
X134645446Y-79891708D01*
X134615153Y-79866847D01*
X134590292Y-79836554D01*
X134571820Y-79801995D01*
X134560445Y-79764499D01*
X134556000Y-79719362D01*
X134556000Y-78980638D01*
X134560445Y-78935501D01*
X134571820Y-78898005D01*
X134590292Y-78863446D01*
X134615153Y-78833153D01*
X134645446Y-78808292D01*
X134680005Y-78789820D01*
X134717501Y-78778445D01*
X134762638Y-78774000D01*
X135401362Y-78774000D01*
X135446499Y-78778445D01*
X135446499Y-78778445D01*
G37*
G36*
X133668499Y-78778445D02*
G01*
X133705995Y-78789820D01*
X133740554Y-78808292D01*
X133770847Y-78833153D01*
X133795708Y-78863446D01*
X133814180Y-78898005D01*
X133825555Y-78935501D01*
X133830000Y-78980638D01*
X133830000Y-79719362D01*
X133825555Y-79764499D01*
X133814180Y-79801995D01*
X133795708Y-79836554D01*
X133770847Y-79866847D01*
X133740554Y-79891708D01*
X133705995Y-79910180D01*
X133668499Y-79921555D01*
X133623362Y-79926000D01*
X132984638Y-79926000D01*
X132939501Y-79921555D01*
X132902005Y-79910180D01*
X132867446Y-79891708D01*
X132837153Y-79866847D01*
X132812292Y-79836554D01*
X132793820Y-79801995D01*
X132782445Y-79764499D01*
X132778000Y-79719362D01*
X132778000Y-78980638D01*
X132782445Y-78935501D01*
X132793820Y-78898005D01*
X132812292Y-78863446D01*
X132837153Y-78833153D01*
X132867446Y-78808292D01*
X132902005Y-78789820D01*
X132939501Y-78778445D01*
X132984638Y-78774000D01*
X133623362Y-78774000D01*
X133668499Y-78778445D01*
X133668499Y-78778445D01*
G37*
G36*
X131890499Y-78778445D02*
G01*
X131927995Y-78789820D01*
X131962554Y-78808292D01*
X131992847Y-78833153D01*
X132017708Y-78863446D01*
X132036180Y-78898005D01*
X132047555Y-78935501D01*
X132052000Y-78980638D01*
X132052000Y-79719362D01*
X132047555Y-79764499D01*
X132036180Y-79801995D01*
X132017708Y-79836554D01*
X131992847Y-79866847D01*
X131962554Y-79891708D01*
X131927995Y-79910180D01*
X131890499Y-79921555D01*
X131845362Y-79926000D01*
X131206638Y-79926000D01*
X131161501Y-79921555D01*
X131124005Y-79910180D01*
X131089446Y-79891708D01*
X131059153Y-79866847D01*
X131034292Y-79836554D01*
X131015820Y-79801995D01*
X131004445Y-79764499D01*
X131000000Y-79719362D01*
X131000000Y-78980638D01*
X131004445Y-78935501D01*
X131015820Y-78898005D01*
X131034292Y-78863446D01*
X131059153Y-78833153D01*
X131089446Y-78808292D01*
X131124005Y-78789820D01*
X131161501Y-78778445D01*
X131206638Y-78774000D01*
X131845362Y-78774000D01*
X131890499Y-78778445D01*
X131890499Y-78778445D01*
G37*
G36*
X137224499Y-78778445D02*
G01*
X137261995Y-78789820D01*
X137296554Y-78808292D01*
X137326847Y-78833153D01*
X137351708Y-78863446D01*
X137370180Y-78898005D01*
X137381555Y-78935501D01*
X137386000Y-78980638D01*
X137386000Y-79719362D01*
X137381555Y-79764499D01*
X137370180Y-79801995D01*
X137351708Y-79836554D01*
X137326847Y-79866847D01*
X137296554Y-79891708D01*
X137261995Y-79910180D01*
X137224499Y-79921555D01*
X137179362Y-79926000D01*
X136540638Y-79926000D01*
X136495501Y-79921555D01*
X136458005Y-79910180D01*
X136423446Y-79891708D01*
X136393153Y-79866847D01*
X136368292Y-79836554D01*
X136349820Y-79801995D01*
X136338445Y-79764499D01*
X136334000Y-79719362D01*
X136334000Y-78980638D01*
X136338445Y-78935501D01*
X136349820Y-78898005D01*
X136368292Y-78863446D01*
X136393153Y-78833153D01*
X136423446Y-78808292D01*
X136458005Y-78789820D01*
X136495501Y-78778445D01*
X136540638Y-78774000D01*
X137179362Y-78774000D01*
X137224499Y-78778445D01*
X137224499Y-78778445D01*
G37*
G36*
X152313000Y-78795000D02*
G01*
X150911000Y-78795000D01*
X150911000Y-77693000D01*
X152313000Y-77693000D01*
X152313000Y-78795000D01*
X152313000Y-78795000D01*
G37*
G36*
X149813000Y-78795000D02*
G01*
X148411000Y-78795000D01*
X148411000Y-77693000D01*
X149813000Y-77693000D01*
X149813000Y-78795000D01*
X149813000Y-78795000D01*
G37*
G36*
X154813000Y-78795000D02*
G01*
X153411000Y-78795000D01*
X153411000Y-77693000D01*
X154813000Y-77693000D01*
X154813000Y-78795000D01*
X154813000Y-78795000D01*
G37*
G36*
X157313000Y-78795000D02*
G01*
X155911000Y-78795000D01*
X155911000Y-77693000D01*
X157313000Y-77693000D01*
X157313000Y-78795000D01*
X157313000Y-78795000D01*
G37*
G36*
X130112499Y-77056445D02*
G01*
X130149995Y-77067820D01*
X130184554Y-77086292D01*
X130214847Y-77111153D01*
X130239708Y-77141446D01*
X130258180Y-77176005D01*
X130269555Y-77213501D01*
X130274000Y-77258638D01*
X130274000Y-77997362D01*
X130269555Y-78042499D01*
X130258180Y-78079995D01*
X130239708Y-78114554D01*
X130214847Y-78144847D01*
X130184554Y-78169708D01*
X130149995Y-78188180D01*
X130112499Y-78199555D01*
X130067362Y-78204000D01*
X129428638Y-78204000D01*
X129383501Y-78199555D01*
X129346005Y-78188180D01*
X129311446Y-78169708D01*
X129281153Y-78144847D01*
X129256292Y-78114554D01*
X129237820Y-78079995D01*
X129226445Y-78042499D01*
X129222000Y-77997362D01*
X129222000Y-77258638D01*
X129226445Y-77213501D01*
X129237820Y-77176005D01*
X129256292Y-77141446D01*
X129281153Y-77111153D01*
X129311446Y-77086292D01*
X129346005Y-77067820D01*
X129383501Y-77056445D01*
X129428638Y-77052000D01*
X130067362Y-77052000D01*
X130112499Y-77056445D01*
X130112499Y-77056445D01*
G37*
G36*
X142558499Y-77028445D02*
G01*
X142595995Y-77039820D01*
X142630554Y-77058292D01*
X142660847Y-77083153D01*
X142685708Y-77113446D01*
X142704180Y-77148005D01*
X142715555Y-77185501D01*
X142720000Y-77230638D01*
X142720000Y-77969362D01*
X142715555Y-78014499D01*
X142704180Y-78051995D01*
X142685708Y-78086554D01*
X142660847Y-78116847D01*
X142630554Y-78141708D01*
X142595995Y-78160180D01*
X142558499Y-78171555D01*
X142513362Y-78176000D01*
X141874638Y-78176000D01*
X141829501Y-78171555D01*
X141792005Y-78160180D01*
X141757446Y-78141708D01*
X141727153Y-78116847D01*
X141702292Y-78086554D01*
X141683820Y-78051995D01*
X141672445Y-78014499D01*
X141668000Y-77969362D01*
X141668000Y-77230638D01*
X141672445Y-77185501D01*
X141683820Y-77148005D01*
X141702292Y-77113446D01*
X141727153Y-77083153D01*
X141757446Y-77058292D01*
X141792005Y-77039820D01*
X141829501Y-77028445D01*
X141874638Y-77024000D01*
X142513362Y-77024000D01*
X142558499Y-77028445D01*
X142558499Y-77028445D01*
G37*
G36*
X135446499Y-77028445D02*
G01*
X135483995Y-77039820D01*
X135518554Y-77058292D01*
X135548847Y-77083153D01*
X135573708Y-77113446D01*
X135592180Y-77148005D01*
X135603555Y-77185501D01*
X135608000Y-77230638D01*
X135608000Y-77969362D01*
X135603555Y-78014499D01*
X135592180Y-78051995D01*
X135573708Y-78086554D01*
X135548847Y-78116847D01*
X135518554Y-78141708D01*
X135483995Y-78160180D01*
X135446499Y-78171555D01*
X135401362Y-78176000D01*
X134762638Y-78176000D01*
X134717501Y-78171555D01*
X134680005Y-78160180D01*
X134645446Y-78141708D01*
X134615153Y-78116847D01*
X134590292Y-78086554D01*
X134571820Y-78051995D01*
X134560445Y-78014499D01*
X134556000Y-77969362D01*
X134556000Y-77230638D01*
X134560445Y-77185501D01*
X134571820Y-77148005D01*
X134590292Y-77113446D01*
X134615153Y-77083153D01*
X134645446Y-77058292D01*
X134680005Y-77039820D01*
X134717501Y-77028445D01*
X134762638Y-77024000D01*
X135401362Y-77024000D01*
X135446499Y-77028445D01*
X135446499Y-77028445D01*
G37*
G36*
X140780499Y-77028445D02*
G01*
X140817995Y-77039820D01*
X140852554Y-77058292D01*
X140882847Y-77083153D01*
X140907708Y-77113446D01*
X140926180Y-77148005D01*
X140937555Y-77185501D01*
X140942000Y-77230638D01*
X140942000Y-77969362D01*
X140937555Y-78014499D01*
X140926180Y-78051995D01*
X140907708Y-78086554D01*
X140882847Y-78116847D01*
X140852554Y-78141708D01*
X140817995Y-78160180D01*
X140780499Y-78171555D01*
X140735362Y-78176000D01*
X140096638Y-78176000D01*
X140051501Y-78171555D01*
X140014005Y-78160180D01*
X139979446Y-78141708D01*
X139949153Y-78116847D01*
X139924292Y-78086554D01*
X139905820Y-78051995D01*
X139894445Y-78014499D01*
X139890000Y-77969362D01*
X139890000Y-77230638D01*
X139894445Y-77185501D01*
X139905820Y-77148005D01*
X139924292Y-77113446D01*
X139949153Y-77083153D01*
X139979446Y-77058292D01*
X140014005Y-77039820D01*
X140051501Y-77028445D01*
X140096638Y-77024000D01*
X140735362Y-77024000D01*
X140780499Y-77028445D01*
X140780499Y-77028445D01*
G37*
G36*
X133668499Y-77028445D02*
G01*
X133705995Y-77039820D01*
X133740554Y-77058292D01*
X133770847Y-77083153D01*
X133795708Y-77113446D01*
X133814180Y-77148005D01*
X133825555Y-77185501D01*
X133830000Y-77230638D01*
X133830000Y-77969362D01*
X133825555Y-78014499D01*
X133814180Y-78051995D01*
X133795708Y-78086554D01*
X133770847Y-78116847D01*
X133740554Y-78141708D01*
X133705995Y-78160180D01*
X133668499Y-78171555D01*
X133623362Y-78176000D01*
X132984638Y-78176000D01*
X132939501Y-78171555D01*
X132902005Y-78160180D01*
X132867446Y-78141708D01*
X132837153Y-78116847D01*
X132812292Y-78086554D01*
X132793820Y-78051995D01*
X132782445Y-78014499D01*
X132778000Y-77969362D01*
X132778000Y-77230638D01*
X132782445Y-77185501D01*
X132793820Y-77148005D01*
X132812292Y-77113446D01*
X132837153Y-77083153D01*
X132867446Y-77058292D01*
X132902005Y-77039820D01*
X132939501Y-77028445D01*
X132984638Y-77024000D01*
X133623362Y-77024000D01*
X133668499Y-77028445D01*
X133668499Y-77028445D01*
G37*
G36*
X137224499Y-77028445D02*
G01*
X137261995Y-77039820D01*
X137296554Y-77058292D01*
X137326847Y-77083153D01*
X137351708Y-77113446D01*
X137370180Y-77148005D01*
X137381555Y-77185501D01*
X137386000Y-77230638D01*
X137386000Y-77969362D01*
X137381555Y-78014499D01*
X137370180Y-78051995D01*
X137351708Y-78086554D01*
X137326847Y-78116847D01*
X137296554Y-78141708D01*
X137261995Y-78160180D01*
X137224499Y-78171555D01*
X137179362Y-78176000D01*
X136540638Y-78176000D01*
X136495501Y-78171555D01*
X136458005Y-78160180D01*
X136423446Y-78141708D01*
X136393153Y-78116847D01*
X136368292Y-78086554D01*
X136349820Y-78051995D01*
X136338445Y-78014499D01*
X136334000Y-77969362D01*
X136334000Y-77230638D01*
X136338445Y-77185501D01*
X136349820Y-77148005D01*
X136368292Y-77113446D01*
X136393153Y-77083153D01*
X136423446Y-77058292D01*
X136458005Y-77039820D01*
X136495501Y-77028445D01*
X136540638Y-77024000D01*
X137179362Y-77024000D01*
X137224499Y-77028445D01*
X137224499Y-77028445D01*
G37*
G36*
X139002499Y-77028445D02*
G01*
X139039995Y-77039820D01*
X139074554Y-77058292D01*
X139104847Y-77083153D01*
X139129708Y-77113446D01*
X139148180Y-77148005D01*
X139159555Y-77185501D01*
X139164000Y-77230638D01*
X139164000Y-77969362D01*
X139159555Y-78014499D01*
X139148180Y-78051995D01*
X139129708Y-78086554D01*
X139104847Y-78116847D01*
X139074554Y-78141708D01*
X139039995Y-78160180D01*
X139002499Y-78171555D01*
X138957362Y-78176000D01*
X138318638Y-78176000D01*
X138273501Y-78171555D01*
X138236005Y-78160180D01*
X138201446Y-78141708D01*
X138171153Y-78116847D01*
X138146292Y-78086554D01*
X138127820Y-78051995D01*
X138116445Y-78014499D01*
X138112000Y-77969362D01*
X138112000Y-77230638D01*
X138116445Y-77185501D01*
X138127820Y-77148005D01*
X138146292Y-77113446D01*
X138171153Y-77083153D01*
X138201446Y-77058292D01*
X138236005Y-77039820D01*
X138273501Y-77028445D01*
X138318638Y-77024000D01*
X138957362Y-77024000D01*
X139002499Y-77028445D01*
X139002499Y-77028445D01*
G37*
G36*
X131890499Y-77028445D02*
G01*
X131927995Y-77039820D01*
X131962554Y-77058292D01*
X131992847Y-77083153D01*
X132017708Y-77113446D01*
X132036180Y-77148005D01*
X132047555Y-77185501D01*
X132052000Y-77230638D01*
X132052000Y-77969362D01*
X132047555Y-78014499D01*
X132036180Y-78051995D01*
X132017708Y-78086554D01*
X131992847Y-78116847D01*
X131962554Y-78141708D01*
X131927995Y-78160180D01*
X131890499Y-78171555D01*
X131845362Y-78176000D01*
X131206638Y-78176000D01*
X131161501Y-78171555D01*
X131124005Y-78160180D01*
X131089446Y-78141708D01*
X131059153Y-78116847D01*
X131034292Y-78086554D01*
X131015820Y-78051995D01*
X131004445Y-78014499D01*
X131000000Y-77969362D01*
X131000000Y-77230638D01*
X131004445Y-77185501D01*
X131015820Y-77148005D01*
X131034292Y-77113446D01*
X131059153Y-77083153D01*
X131089446Y-77058292D01*
X131124005Y-77039820D01*
X131161501Y-77028445D01*
X131206638Y-77024000D01*
X131845362Y-77024000D01*
X131890499Y-77028445D01*
X131890499Y-77028445D01*
G37*
G36*
X117873700Y-77930400D02*
G01*
X117238300Y-77930400D01*
X117238300Y-75923400D01*
X117873700Y-75923400D01*
X117873700Y-77930400D01*
X117873700Y-77930400D01*
G37*
G36*
X116603700Y-77930400D02*
G01*
X115968300Y-77930400D01*
X115968300Y-75923400D01*
X116603700Y-75923400D01*
X116603700Y-77930400D01*
X116603700Y-77930400D01*
G37*
G36*
X115333700Y-77930400D02*
G01*
X114698300Y-77930400D01*
X114698300Y-75923400D01*
X115333700Y-75923400D01*
X115333700Y-77930400D01*
X115333700Y-77930400D01*
G37*
G36*
X114063700Y-77930400D02*
G01*
X113428300Y-77930400D01*
X113428300Y-75923400D01*
X114063700Y-75923400D01*
X114063700Y-77930400D01*
X114063700Y-77930400D01*
G37*
G36*
X112793700Y-77930400D02*
G01*
X112158300Y-77930400D01*
X112158300Y-75923400D01*
X112793700Y-75923400D01*
X112793700Y-77930400D01*
X112793700Y-77930400D01*
G37*
G36*
X111523700Y-77930400D02*
G01*
X110888300Y-77930400D01*
X110888300Y-75923400D01*
X111523700Y-75923400D01*
X111523700Y-77930400D01*
X111523700Y-77930400D01*
G37*
G36*
X110253700Y-77930400D02*
G01*
X109618300Y-77930400D01*
X109618300Y-75923400D01*
X110253700Y-75923400D01*
X110253700Y-77930400D01*
X110253700Y-77930400D01*
G37*
G36*
X119143700Y-77930400D02*
G01*
X118508300Y-77930400D01*
X118508300Y-75923400D01*
X119143700Y-75923400D01*
X119143700Y-77930400D01*
X119143700Y-77930400D01*
G37*
G36*
X160779000Y-77389000D02*
G01*
X159677000Y-77389000D01*
X159677000Y-76287000D01*
X160779000Y-76287000D01*
X160779000Y-77389000D01*
X160779000Y-77389000D01*
G37*
G36*
X162557000Y-73071000D02*
G01*
X161455000Y-73071000D01*
X161455000Y-71969000D01*
X162557000Y-71969000D01*
X162557000Y-73071000D01*
X162557000Y-73071000D01*
G37*
G36*
X110253700Y-72926600D02*
G01*
X109618300Y-72926600D01*
X109618300Y-70919600D01*
X110253700Y-70919600D01*
X110253700Y-72926600D01*
X110253700Y-72926600D01*
G37*
G36*
X116603700Y-72926600D02*
G01*
X115968300Y-72926600D01*
X115968300Y-70919600D01*
X116603700Y-70919600D01*
X116603700Y-72926600D01*
X116603700Y-72926600D01*
G37*
G36*
X114063700Y-72926600D02*
G01*
X113428300Y-72926600D01*
X113428300Y-70919600D01*
X114063700Y-70919600D01*
X114063700Y-72926600D01*
X114063700Y-72926600D01*
G37*
G36*
X115333700Y-72926600D02*
G01*
X114698300Y-72926600D01*
X114698300Y-70919600D01*
X115333700Y-70919600D01*
X115333700Y-72926600D01*
X115333700Y-72926600D01*
G37*
G36*
X117873700Y-72926600D02*
G01*
X117238300Y-72926600D01*
X117238300Y-70919600D01*
X117873700Y-70919600D01*
X117873700Y-72926600D01*
X117873700Y-72926600D01*
G37*
G36*
X112793700Y-72926600D02*
G01*
X112158300Y-72926600D01*
X112158300Y-70919600D01*
X112793700Y-70919600D01*
X112793700Y-72926600D01*
X112793700Y-72926600D01*
G37*
G36*
X119143700Y-72926600D02*
G01*
X118508300Y-72926600D01*
X118508300Y-70919600D01*
X119143700Y-70919600D01*
X119143700Y-72926600D01*
X119143700Y-72926600D01*
G37*
G36*
X111523700Y-72926600D02*
G01*
X110888300Y-72926600D01*
X110888300Y-70919600D01*
X111523700Y-70919600D01*
X111523700Y-72926600D01*
X111523700Y-72926600D01*
G37*
G36*
X122895499Y-71490445D02*
G01*
X122932995Y-71501820D01*
X122967554Y-71520292D01*
X122997847Y-71545153D01*
X123022708Y-71575446D01*
X123041180Y-71610005D01*
X123052555Y-71647501D01*
X123057000Y-71692638D01*
X123057000Y-72331362D01*
X123052555Y-72376499D01*
X123041180Y-72413995D01*
X123022708Y-72448554D01*
X122997847Y-72478847D01*
X122967554Y-72503708D01*
X122932995Y-72522180D01*
X122895499Y-72533555D01*
X122850362Y-72538000D01*
X122111638Y-72538000D01*
X122066501Y-72533555D01*
X122029005Y-72522180D01*
X121994446Y-72503708D01*
X121964153Y-72478847D01*
X121939292Y-72448554D01*
X121920820Y-72413995D01*
X121909445Y-72376499D01*
X121905000Y-72331362D01*
X121905000Y-71692638D01*
X121909445Y-71647501D01*
X121920820Y-71610005D01*
X121939292Y-71575446D01*
X121964153Y-71545153D01*
X121994446Y-71520292D01*
X122029005Y-71501820D01*
X122066501Y-71490445D01*
X122111638Y-71486000D01*
X122850362Y-71486000D01*
X122895499Y-71490445D01*
X122895499Y-71490445D01*
G37*
G36*
X121145499Y-71490445D02*
G01*
X121182995Y-71501820D01*
X121217554Y-71520292D01*
X121247847Y-71545153D01*
X121272708Y-71575446D01*
X121291180Y-71610005D01*
X121302555Y-71647501D01*
X121307000Y-71692638D01*
X121307000Y-72331362D01*
X121302555Y-72376499D01*
X121291180Y-72413995D01*
X121272708Y-72448554D01*
X121247847Y-72478847D01*
X121217554Y-72503708D01*
X121182995Y-72522180D01*
X121145499Y-72533555D01*
X121100362Y-72538000D01*
X120361638Y-72538000D01*
X120316501Y-72533555D01*
X120279005Y-72522180D01*
X120244446Y-72503708D01*
X120214153Y-72478847D01*
X120189292Y-72448554D01*
X120170820Y-72413995D01*
X120159445Y-72376499D01*
X120155000Y-72331362D01*
X120155000Y-71692638D01*
X120159445Y-71647501D01*
X120170820Y-71610005D01*
X120189292Y-71575446D01*
X120214153Y-71545153D01*
X120244446Y-71520292D01*
X120279005Y-71501820D01*
X120316501Y-71490445D01*
X120361638Y-71486000D01*
X121100362Y-71486000D01*
X121145499Y-71490445D01*
X121145499Y-71490445D01*
G37*
G36*
X119381499Y-68188445D02*
G01*
X119418995Y-68199820D01*
X119453554Y-68218292D01*
X119483847Y-68243153D01*
X119508708Y-68273446D01*
X119527180Y-68308005D01*
X119538555Y-68345501D01*
X119543000Y-68390638D01*
X119543000Y-69029362D01*
X119538555Y-69074499D01*
X119527180Y-69111995D01*
X119508708Y-69146554D01*
X119483847Y-69176847D01*
X119453554Y-69201708D01*
X119418995Y-69220180D01*
X119381499Y-69231555D01*
X119336362Y-69236000D01*
X118597638Y-69236000D01*
X118552501Y-69231555D01*
X118515005Y-69220180D01*
X118480446Y-69201708D01*
X118450153Y-69176847D01*
X118425292Y-69146554D01*
X118406820Y-69111995D01*
X118395445Y-69074499D01*
X118391000Y-69029362D01*
X118391000Y-68390638D01*
X118395445Y-68345501D01*
X118406820Y-68308005D01*
X118425292Y-68273446D01*
X118450153Y-68243153D01*
X118480446Y-68218292D01*
X118515005Y-68199820D01*
X118552501Y-68188445D01*
X118597638Y-68184000D01*
X119336362Y-68184000D01*
X119381499Y-68188445D01*
X119381499Y-68188445D01*
G37*
G36*
X121131499Y-68188445D02*
G01*
X121168995Y-68199820D01*
X121203554Y-68218292D01*
X121233847Y-68243153D01*
X121258708Y-68273446D01*
X121277180Y-68308005D01*
X121288555Y-68345501D01*
X121293000Y-68390638D01*
X121293000Y-69029362D01*
X121288555Y-69074499D01*
X121277180Y-69111995D01*
X121258708Y-69146554D01*
X121233847Y-69176847D01*
X121203554Y-69201708D01*
X121168995Y-69220180D01*
X121131499Y-69231555D01*
X121086362Y-69236000D01*
X120347638Y-69236000D01*
X120302501Y-69231555D01*
X120265005Y-69220180D01*
X120230446Y-69201708D01*
X120200153Y-69176847D01*
X120175292Y-69146554D01*
X120156820Y-69111995D01*
X120145445Y-69074499D01*
X120141000Y-69029362D01*
X120141000Y-68390638D01*
X120145445Y-68345501D01*
X120156820Y-68308005D01*
X120175292Y-68273446D01*
X120200153Y-68243153D01*
X120230446Y-68218292D01*
X120265005Y-68199820D01*
X120302501Y-68188445D01*
X120347638Y-68184000D01*
X121086362Y-68184000D01*
X121131499Y-68188445D01*
X121131499Y-68188445D01*
G37*
G36*
X108459499Y-68188445D02*
G01*
X108496995Y-68199820D01*
X108531554Y-68218292D01*
X108561847Y-68243153D01*
X108586708Y-68273446D01*
X108605180Y-68308005D01*
X108616555Y-68345501D01*
X108621000Y-68390638D01*
X108621000Y-69029362D01*
X108616555Y-69074499D01*
X108605180Y-69111995D01*
X108586708Y-69146554D01*
X108561847Y-69176847D01*
X108531554Y-69201708D01*
X108496995Y-69220180D01*
X108459499Y-69231555D01*
X108414362Y-69236000D01*
X107675638Y-69236000D01*
X107630501Y-69231555D01*
X107593005Y-69220180D01*
X107558446Y-69201708D01*
X107528153Y-69176847D01*
X107503292Y-69146554D01*
X107484820Y-69111995D01*
X107473445Y-69074499D01*
X107469000Y-69029362D01*
X107469000Y-68390638D01*
X107473445Y-68345501D01*
X107484820Y-68308005D01*
X107503292Y-68273446D01*
X107528153Y-68243153D01*
X107558446Y-68218292D01*
X107593005Y-68199820D01*
X107630501Y-68188445D01*
X107675638Y-68184000D01*
X108414362Y-68184000D01*
X108459499Y-68188445D01*
X108459499Y-68188445D01*
G37*
G36*
X110209499Y-68188445D02*
G01*
X110246995Y-68199820D01*
X110281554Y-68218292D01*
X110311847Y-68243153D01*
X110336708Y-68273446D01*
X110355180Y-68308005D01*
X110366555Y-68345501D01*
X110371000Y-68390638D01*
X110371000Y-69029362D01*
X110366555Y-69074499D01*
X110355180Y-69111995D01*
X110336708Y-69146554D01*
X110311847Y-69176847D01*
X110281554Y-69201708D01*
X110246995Y-69220180D01*
X110209499Y-69231555D01*
X110164362Y-69236000D01*
X109425638Y-69236000D01*
X109380501Y-69231555D01*
X109343005Y-69220180D01*
X109308446Y-69201708D01*
X109278153Y-69176847D01*
X109253292Y-69146554D01*
X109234820Y-69111995D01*
X109223445Y-69074499D01*
X109219000Y-69029362D01*
X109219000Y-68390638D01*
X109223445Y-68345501D01*
X109234820Y-68308005D01*
X109253292Y-68273446D01*
X109278153Y-68243153D01*
X109308446Y-68218292D01*
X109343005Y-68199820D01*
X109380501Y-68188445D01*
X109425638Y-68184000D01*
X110164362Y-68184000D01*
X110209499Y-68188445D01*
X110209499Y-68188445D01*
G37*
G36*
X114047499Y-68188445D02*
G01*
X114084995Y-68199820D01*
X114119554Y-68218292D01*
X114149847Y-68243153D01*
X114174708Y-68273446D01*
X114193180Y-68308005D01*
X114204555Y-68345501D01*
X114209000Y-68390638D01*
X114209000Y-69029362D01*
X114204555Y-69074499D01*
X114193180Y-69111995D01*
X114174708Y-69146554D01*
X114149847Y-69176847D01*
X114119554Y-69201708D01*
X114084995Y-69220180D01*
X114047499Y-69231555D01*
X114002362Y-69236000D01*
X113263638Y-69236000D01*
X113218501Y-69231555D01*
X113181005Y-69220180D01*
X113146446Y-69201708D01*
X113116153Y-69176847D01*
X113091292Y-69146554D01*
X113072820Y-69111995D01*
X113061445Y-69074499D01*
X113057000Y-69029362D01*
X113057000Y-68390638D01*
X113061445Y-68345501D01*
X113072820Y-68308005D01*
X113091292Y-68273446D01*
X113116153Y-68243153D01*
X113146446Y-68218292D01*
X113181005Y-68199820D01*
X113218501Y-68188445D01*
X113263638Y-68184000D01*
X114002362Y-68184000D01*
X114047499Y-68188445D01*
X114047499Y-68188445D01*
G37*
G36*
X115797499Y-68188445D02*
G01*
X115834995Y-68199820D01*
X115869554Y-68218292D01*
X115899847Y-68243153D01*
X115924708Y-68273446D01*
X115943180Y-68308005D01*
X115954555Y-68345501D01*
X115959000Y-68390638D01*
X115959000Y-69029362D01*
X115954555Y-69074499D01*
X115943180Y-69111995D01*
X115924708Y-69146554D01*
X115899847Y-69176847D01*
X115869554Y-69201708D01*
X115834995Y-69220180D01*
X115797499Y-69231555D01*
X115752362Y-69236000D01*
X115013638Y-69236000D01*
X114968501Y-69231555D01*
X114931005Y-69220180D01*
X114896446Y-69201708D01*
X114866153Y-69176847D01*
X114841292Y-69146554D01*
X114822820Y-69111995D01*
X114811445Y-69074499D01*
X114807000Y-69029362D01*
X114807000Y-68390638D01*
X114811445Y-68345501D01*
X114822820Y-68308005D01*
X114841292Y-68273446D01*
X114866153Y-68243153D01*
X114896446Y-68218292D01*
X114931005Y-68199820D01*
X114968501Y-68188445D01*
X115013638Y-68184000D01*
X115752362Y-68184000D01*
X115797499Y-68188445D01*
X115797499Y-68188445D01*
G37*
G36*
X131951999Y-66918445D02*
G01*
X131989495Y-66929820D01*
X132024054Y-66948292D01*
X132054347Y-66973153D01*
X132079208Y-67003446D01*
X132097680Y-67038005D01*
X132109055Y-67075501D01*
X132113500Y-67120638D01*
X132113500Y-67759362D01*
X132109055Y-67804499D01*
X132097680Y-67841995D01*
X132079208Y-67876554D01*
X132054347Y-67906847D01*
X132024054Y-67931708D01*
X131989495Y-67950180D01*
X131951999Y-67961555D01*
X131906862Y-67966000D01*
X131168138Y-67966000D01*
X131123001Y-67961555D01*
X131085505Y-67950180D01*
X131050946Y-67931708D01*
X131020653Y-67906847D01*
X130995792Y-67876554D01*
X130977320Y-67841995D01*
X130965945Y-67804499D01*
X130961500Y-67759362D01*
X130961500Y-67120638D01*
X130965945Y-67075501D01*
X130977320Y-67038005D01*
X130995792Y-67003446D01*
X131020653Y-66973153D01*
X131050946Y-66948292D01*
X131085505Y-66929820D01*
X131123001Y-66918445D01*
X131168138Y-66914000D01*
X131906862Y-66914000D01*
X131951999Y-66918445D01*
X131951999Y-66918445D01*
G37*
G36*
X130201999Y-66918445D02*
G01*
X130239495Y-66929820D01*
X130274054Y-66948292D01*
X130304347Y-66973153D01*
X130329208Y-67003446D01*
X130347680Y-67038005D01*
X130359055Y-67075501D01*
X130363500Y-67120638D01*
X130363500Y-67759362D01*
X130359055Y-67804499D01*
X130347680Y-67841995D01*
X130329208Y-67876554D01*
X130304347Y-67906847D01*
X130274054Y-67931708D01*
X130239495Y-67950180D01*
X130201999Y-67961555D01*
X130156862Y-67966000D01*
X129418138Y-67966000D01*
X129373001Y-67961555D01*
X129335505Y-67950180D01*
X129300946Y-67931708D01*
X129270653Y-67906847D01*
X129245792Y-67876554D01*
X129227320Y-67841995D01*
X129215945Y-67804499D01*
X129211500Y-67759362D01*
X129211500Y-67120638D01*
X129215945Y-67075501D01*
X129227320Y-67038005D01*
X129245792Y-67003446D01*
X129270653Y-66973153D01*
X129300946Y-66948292D01*
X129335505Y-66929820D01*
X129373001Y-66918445D01*
X129418138Y-66914000D01*
X130156862Y-66914000D01*
X130201999Y-66918445D01*
X130201999Y-66918445D01*
G37*
G36*
X141631999Y-65902445D02*
G01*
X141669495Y-65913820D01*
X141704054Y-65932292D01*
X141734347Y-65957153D01*
X141759208Y-65987446D01*
X141777680Y-66022005D01*
X141789055Y-66059501D01*
X141793500Y-66104638D01*
X141793500Y-66743362D01*
X141789055Y-66788499D01*
X141777680Y-66825995D01*
X141759208Y-66860554D01*
X141734347Y-66890847D01*
X141704054Y-66915708D01*
X141669495Y-66934180D01*
X141631999Y-66945555D01*
X141586862Y-66950000D01*
X140848138Y-66950000D01*
X140803001Y-66945555D01*
X140765505Y-66934180D01*
X140730946Y-66915708D01*
X140700653Y-66890847D01*
X140675792Y-66860554D01*
X140657320Y-66825995D01*
X140645945Y-66788499D01*
X140641500Y-66743362D01*
X140641500Y-66104638D01*
X140645945Y-66059501D01*
X140657320Y-66022005D01*
X140675792Y-65987446D01*
X140700653Y-65957153D01*
X140730946Y-65932292D01*
X140765505Y-65913820D01*
X140803001Y-65902445D01*
X140848138Y-65898000D01*
X141586862Y-65898000D01*
X141631999Y-65902445D01*
X141631999Y-65902445D01*
G37*
G36*
X143381999Y-65902445D02*
G01*
X143419495Y-65913820D01*
X143454054Y-65932292D01*
X143484347Y-65957153D01*
X143509208Y-65987446D01*
X143527680Y-66022005D01*
X143539055Y-66059501D01*
X143543500Y-66104638D01*
X143543500Y-66743362D01*
X143539055Y-66788499D01*
X143527680Y-66825995D01*
X143509208Y-66860554D01*
X143484347Y-66890847D01*
X143454054Y-66915708D01*
X143419495Y-66934180D01*
X143381999Y-66945555D01*
X143336862Y-66950000D01*
X142598138Y-66950000D01*
X142553001Y-66945555D01*
X142515505Y-66934180D01*
X142480946Y-66915708D01*
X142450653Y-66890847D01*
X142425792Y-66860554D01*
X142407320Y-66825995D01*
X142395945Y-66788499D01*
X142391500Y-66743362D01*
X142391500Y-66104638D01*
X142395945Y-66059501D01*
X142407320Y-66022005D01*
X142425792Y-65987446D01*
X142450653Y-65957153D01*
X142480946Y-65932292D01*
X142515505Y-65913820D01*
X142553001Y-65902445D01*
X142598138Y-65898000D01*
X143336862Y-65898000D01*
X143381999Y-65902445D01*
X143381999Y-65902445D01*
G37*
G36*
X153502928Y-64573764D02*
G01*
X153524009Y-64580160D01*
X153543445Y-64590548D01*
X153560476Y-64604524D01*
X153574452Y-64621555D01*
X153584840Y-64640991D01*
X153591236Y-64662072D01*
X153594000Y-64690140D01*
X153594000Y-66503860D01*
X153591236Y-66531928D01*
X153584840Y-66553009D01*
X153574452Y-66572445D01*
X153560476Y-66589476D01*
X153543445Y-66603452D01*
X153524009Y-66613840D01*
X153502928Y-66620236D01*
X153474860Y-66623000D01*
X153011140Y-66623000D01*
X152983072Y-66620236D01*
X152961991Y-66613840D01*
X152942555Y-66603452D01*
X152925524Y-66589476D01*
X152911548Y-66572445D01*
X152901160Y-66553009D01*
X152894764Y-66531928D01*
X152892000Y-66503860D01*
X152892000Y-64690140D01*
X152894764Y-64662072D01*
X152901160Y-64640991D01*
X152911548Y-64621555D01*
X152925524Y-64604524D01*
X152942555Y-64590548D01*
X152961991Y-64580160D01*
X152983072Y-64573764D01*
X153011140Y-64571000D01*
X153474860Y-64571000D01*
X153502928Y-64573764D01*
X153502928Y-64573764D01*
G37*
G36*
X156042928Y-64573764D02*
G01*
X156064009Y-64580160D01*
X156083445Y-64590548D01*
X156100476Y-64604524D01*
X156114452Y-64621555D01*
X156124840Y-64640991D01*
X156131236Y-64662072D01*
X156134000Y-64690140D01*
X156134000Y-66503860D01*
X156131236Y-66531928D01*
X156124840Y-66553009D01*
X156114452Y-66572445D01*
X156100476Y-66589476D01*
X156083445Y-66603452D01*
X156064009Y-66613840D01*
X156042928Y-66620236D01*
X156014860Y-66623000D01*
X155551140Y-66623000D01*
X155523072Y-66620236D01*
X155501991Y-66613840D01*
X155482555Y-66603452D01*
X155465524Y-66589476D01*
X155451548Y-66572445D01*
X155441160Y-66553009D01*
X155434764Y-66531928D01*
X155432000Y-66503860D01*
X155432000Y-64690140D01*
X155434764Y-64662072D01*
X155441160Y-64640991D01*
X155451548Y-64621555D01*
X155465524Y-64604524D01*
X155482555Y-64590548D01*
X155501991Y-64580160D01*
X155523072Y-64573764D01*
X155551140Y-64571000D01*
X156014860Y-64571000D01*
X156042928Y-64573764D01*
X156042928Y-64573764D01*
G37*
G36*
X152232928Y-64573764D02*
G01*
X152254009Y-64580160D01*
X152273445Y-64590548D01*
X152290476Y-64604524D01*
X152304452Y-64621555D01*
X152314840Y-64640991D01*
X152321236Y-64662072D01*
X152324000Y-64690140D01*
X152324000Y-66503860D01*
X152321236Y-66531928D01*
X152314840Y-66553009D01*
X152304452Y-66572445D01*
X152290476Y-66589476D01*
X152273445Y-66603452D01*
X152254009Y-66613840D01*
X152232928Y-66620236D01*
X152204860Y-66623000D01*
X151741140Y-66623000D01*
X151713072Y-66620236D01*
X151691991Y-66613840D01*
X151672555Y-66603452D01*
X151655524Y-66589476D01*
X151641548Y-66572445D01*
X151631160Y-66553009D01*
X151624764Y-66531928D01*
X151622000Y-66503860D01*
X151622000Y-64690140D01*
X151624764Y-64662072D01*
X151631160Y-64640991D01*
X151641548Y-64621555D01*
X151655524Y-64604524D01*
X151672555Y-64590548D01*
X151691991Y-64580160D01*
X151713072Y-64573764D01*
X151741140Y-64571000D01*
X152204860Y-64571000D01*
X152232928Y-64573764D01*
X152232928Y-64573764D01*
G37*
G36*
X148422928Y-64573764D02*
G01*
X148444009Y-64580160D01*
X148463445Y-64590548D01*
X148480476Y-64604524D01*
X148494452Y-64621555D01*
X148504840Y-64640991D01*
X148511236Y-64662072D01*
X148514000Y-64690140D01*
X148514000Y-66503860D01*
X148511236Y-66531928D01*
X148504840Y-66553009D01*
X148494452Y-66572445D01*
X148480476Y-66589476D01*
X148463445Y-66603452D01*
X148444009Y-66613840D01*
X148422928Y-66620236D01*
X148394860Y-66623000D01*
X147931140Y-66623000D01*
X147903072Y-66620236D01*
X147881991Y-66613840D01*
X147862555Y-66603452D01*
X147845524Y-66589476D01*
X147831548Y-66572445D01*
X147821160Y-66553009D01*
X147814764Y-66531928D01*
X147812000Y-66503860D01*
X147812000Y-64690140D01*
X147814764Y-64662072D01*
X147821160Y-64640991D01*
X147831548Y-64621555D01*
X147845524Y-64604524D01*
X147862555Y-64590548D01*
X147881991Y-64580160D01*
X147903072Y-64573764D01*
X147931140Y-64571000D01*
X148394860Y-64571000D01*
X148422928Y-64573764D01*
X148422928Y-64573764D01*
G37*
G36*
X149692928Y-64573764D02*
G01*
X149714009Y-64580160D01*
X149733445Y-64590548D01*
X149750476Y-64604524D01*
X149764452Y-64621555D01*
X149774840Y-64640991D01*
X149781236Y-64662072D01*
X149784000Y-64690140D01*
X149784000Y-66503860D01*
X149781236Y-66531928D01*
X149774840Y-66553009D01*
X149764452Y-66572445D01*
X149750476Y-66589476D01*
X149733445Y-66603452D01*
X149714009Y-66613840D01*
X149692928Y-66620236D01*
X149664860Y-66623000D01*
X149201140Y-66623000D01*
X149173072Y-66620236D01*
X149151991Y-66613840D01*
X149132555Y-66603452D01*
X149115524Y-66589476D01*
X149101548Y-66572445D01*
X149091160Y-66553009D01*
X149084764Y-66531928D01*
X149082000Y-66503860D01*
X149082000Y-64690140D01*
X149084764Y-64662072D01*
X149091160Y-64640991D01*
X149101548Y-64621555D01*
X149115524Y-64604524D01*
X149132555Y-64590548D01*
X149151991Y-64580160D01*
X149173072Y-64573764D01*
X149201140Y-64571000D01*
X149664860Y-64571000D01*
X149692928Y-64573764D01*
X149692928Y-64573764D01*
G37*
G36*
X150962928Y-64573764D02*
G01*
X150984009Y-64580160D01*
X151003445Y-64590548D01*
X151020476Y-64604524D01*
X151034452Y-64621555D01*
X151044840Y-64640991D01*
X151051236Y-64662072D01*
X151054000Y-64690140D01*
X151054000Y-66503860D01*
X151051236Y-66531928D01*
X151044840Y-66553009D01*
X151034452Y-66572445D01*
X151020476Y-66589476D01*
X151003445Y-66603452D01*
X150984009Y-66613840D01*
X150962928Y-66620236D01*
X150934860Y-66623000D01*
X150471140Y-66623000D01*
X150443072Y-66620236D01*
X150421991Y-66613840D01*
X150402555Y-66603452D01*
X150385524Y-66589476D01*
X150371548Y-66572445D01*
X150361160Y-66553009D01*
X150354764Y-66531928D01*
X150352000Y-66503860D01*
X150352000Y-64690140D01*
X150354764Y-64662072D01*
X150361160Y-64640991D01*
X150371548Y-64621555D01*
X150385524Y-64604524D01*
X150402555Y-64590548D01*
X150421991Y-64580160D01*
X150443072Y-64573764D01*
X150471140Y-64571000D01*
X150934860Y-64571000D01*
X150962928Y-64573764D01*
X150962928Y-64573764D01*
G37*
G36*
X157312928Y-64573764D02*
G01*
X157334009Y-64580160D01*
X157353445Y-64590548D01*
X157370476Y-64604524D01*
X157384452Y-64621555D01*
X157394840Y-64640991D01*
X157401236Y-64662072D01*
X157404000Y-64690140D01*
X157404000Y-66503860D01*
X157401236Y-66531928D01*
X157394840Y-66553009D01*
X157384452Y-66572445D01*
X157370476Y-66589476D01*
X157353445Y-66603452D01*
X157334009Y-66613840D01*
X157312928Y-66620236D01*
X157284860Y-66623000D01*
X156821140Y-66623000D01*
X156793072Y-66620236D01*
X156771991Y-66613840D01*
X156752555Y-66603452D01*
X156735524Y-66589476D01*
X156721548Y-66572445D01*
X156711160Y-66553009D01*
X156704764Y-66531928D01*
X156702000Y-66503860D01*
X156702000Y-64690140D01*
X156704764Y-64662072D01*
X156711160Y-64640991D01*
X156721548Y-64621555D01*
X156735524Y-64604524D01*
X156752555Y-64590548D01*
X156771991Y-64580160D01*
X156793072Y-64573764D01*
X156821140Y-64571000D01*
X157284860Y-64571000D01*
X157312928Y-64573764D01*
X157312928Y-64573764D01*
G37*
G36*
X154772928Y-64573764D02*
G01*
X154794009Y-64580160D01*
X154813445Y-64590548D01*
X154830476Y-64604524D01*
X154844452Y-64621555D01*
X154854840Y-64640991D01*
X154861236Y-64662072D01*
X154864000Y-64690140D01*
X154864000Y-66503860D01*
X154861236Y-66531928D01*
X154854840Y-66553009D01*
X154844452Y-66572445D01*
X154830476Y-66589476D01*
X154813445Y-66603452D01*
X154794009Y-66613840D01*
X154772928Y-66620236D01*
X154744860Y-66623000D01*
X154281140Y-66623000D01*
X154253072Y-66620236D01*
X154231991Y-66613840D01*
X154212555Y-66603452D01*
X154195524Y-66589476D01*
X154181548Y-66572445D01*
X154171160Y-66553009D01*
X154164764Y-66531928D01*
X154162000Y-66503860D01*
X154162000Y-64690140D01*
X154164764Y-64662072D01*
X154171160Y-64640991D01*
X154181548Y-64621555D01*
X154195524Y-64604524D01*
X154212555Y-64590548D01*
X154231991Y-64580160D01*
X154253072Y-64573764D01*
X154281140Y-64571000D01*
X154744860Y-64571000D01*
X154772928Y-64573764D01*
X154772928Y-64573764D01*
G37*
G36*
X115797499Y-65394445D02*
G01*
X115834995Y-65405820D01*
X115869554Y-65424292D01*
X115899847Y-65449153D01*
X115924708Y-65479446D01*
X115943180Y-65514005D01*
X115954555Y-65551501D01*
X115959000Y-65596638D01*
X115959000Y-66235362D01*
X115954555Y-66280499D01*
X115943180Y-66317995D01*
X115924708Y-66352554D01*
X115899847Y-66382847D01*
X115869554Y-66407708D01*
X115834995Y-66426180D01*
X115797499Y-66437555D01*
X115752362Y-66442000D01*
X115013638Y-66442000D01*
X114968501Y-66437555D01*
X114931005Y-66426180D01*
X114896446Y-66407708D01*
X114866153Y-66382847D01*
X114841292Y-66352554D01*
X114822820Y-66317995D01*
X114811445Y-66280499D01*
X114807000Y-66235362D01*
X114807000Y-65596638D01*
X114811445Y-65551501D01*
X114822820Y-65514005D01*
X114841292Y-65479446D01*
X114866153Y-65449153D01*
X114896446Y-65424292D01*
X114931005Y-65405820D01*
X114968501Y-65394445D01*
X115013638Y-65390000D01*
X115752362Y-65390000D01*
X115797499Y-65394445D01*
X115797499Y-65394445D01*
G37*
G36*
X114047499Y-65394445D02*
G01*
X114084995Y-65405820D01*
X114119554Y-65424292D01*
X114149847Y-65449153D01*
X114174708Y-65479446D01*
X114193180Y-65514005D01*
X114204555Y-65551501D01*
X114209000Y-65596638D01*
X114209000Y-66235362D01*
X114204555Y-66280499D01*
X114193180Y-66317995D01*
X114174708Y-66352554D01*
X114149847Y-66382847D01*
X114119554Y-66407708D01*
X114084995Y-66426180D01*
X114047499Y-66437555D01*
X114002362Y-66442000D01*
X113263638Y-66442000D01*
X113218501Y-66437555D01*
X113181005Y-66426180D01*
X113146446Y-66407708D01*
X113116153Y-66382847D01*
X113091292Y-66352554D01*
X113072820Y-66317995D01*
X113061445Y-66280499D01*
X113057000Y-66235362D01*
X113057000Y-65596638D01*
X113061445Y-65551501D01*
X113072820Y-65514005D01*
X113091292Y-65479446D01*
X113116153Y-65449153D01*
X113146446Y-65424292D01*
X113181005Y-65405820D01*
X113218501Y-65394445D01*
X113263638Y-65390000D01*
X114002362Y-65390000D01*
X114047499Y-65394445D01*
X114047499Y-65394445D01*
G37*
G36*
X145352499Y-65203445D02*
G01*
X145389995Y-65214820D01*
X145424554Y-65233292D01*
X145454847Y-65258153D01*
X145479708Y-65288446D01*
X145498180Y-65323005D01*
X145509555Y-65360501D01*
X145514000Y-65405638D01*
X145514000Y-66144362D01*
X145509555Y-66189499D01*
X145498180Y-66226995D01*
X145479708Y-66261554D01*
X145454847Y-66291847D01*
X145424554Y-66316708D01*
X145389995Y-66335180D01*
X145352499Y-66346555D01*
X145307362Y-66351000D01*
X144668638Y-66351000D01*
X144623501Y-66346555D01*
X144586005Y-66335180D01*
X144551446Y-66316708D01*
X144521153Y-66291847D01*
X144496292Y-66261554D01*
X144477820Y-66226995D01*
X144466445Y-66189499D01*
X144462000Y-66144362D01*
X144462000Y-65405638D01*
X144466445Y-65360501D01*
X144477820Y-65323005D01*
X144496292Y-65288446D01*
X144521153Y-65258153D01*
X144551446Y-65233292D01*
X144586005Y-65214820D01*
X144623501Y-65203445D01*
X144668638Y-65199000D01*
X145307362Y-65199000D01*
X145352499Y-65203445D01*
X145352499Y-65203445D01*
G37*
G36*
X127572499Y-64949445D02*
G01*
X127609995Y-64960820D01*
X127644554Y-64979292D01*
X127674847Y-65004153D01*
X127699708Y-65034446D01*
X127718180Y-65069005D01*
X127729555Y-65106501D01*
X127734000Y-65151638D01*
X127734000Y-65890362D01*
X127729555Y-65935499D01*
X127718180Y-65972995D01*
X127699708Y-66007554D01*
X127674847Y-66037847D01*
X127644554Y-66062708D01*
X127609995Y-66081180D01*
X127572499Y-66092555D01*
X127527362Y-66097000D01*
X126888638Y-66097000D01*
X126843501Y-66092555D01*
X126806005Y-66081180D01*
X126771446Y-66062708D01*
X126741153Y-66037847D01*
X126716292Y-66007554D01*
X126697820Y-65972995D01*
X126686445Y-65935499D01*
X126682000Y-65890362D01*
X126682000Y-65151638D01*
X126686445Y-65106501D01*
X126697820Y-65069005D01*
X126716292Y-65034446D01*
X126741153Y-65004153D01*
X126771446Y-64979292D01*
X126806005Y-64960820D01*
X126843501Y-64949445D01*
X126888638Y-64945000D01*
X127527362Y-64945000D01*
X127572499Y-64949445D01*
X127572499Y-64949445D01*
G37*
G36*
X126048499Y-64949445D02*
G01*
X126085995Y-64960820D01*
X126120554Y-64979292D01*
X126150847Y-65004153D01*
X126175708Y-65034446D01*
X126194180Y-65069005D01*
X126205555Y-65106501D01*
X126210000Y-65151638D01*
X126210000Y-65890362D01*
X126205555Y-65935499D01*
X126194180Y-65972995D01*
X126175708Y-66007554D01*
X126150847Y-66037847D01*
X126120554Y-66062708D01*
X126085995Y-66081180D01*
X126048499Y-66092555D01*
X126003362Y-66097000D01*
X125364638Y-66097000D01*
X125319501Y-66092555D01*
X125282005Y-66081180D01*
X125247446Y-66062708D01*
X125217153Y-66037847D01*
X125192292Y-66007554D01*
X125173820Y-65972995D01*
X125162445Y-65935499D01*
X125158000Y-65890362D01*
X125158000Y-65151638D01*
X125162445Y-65106501D01*
X125173820Y-65069005D01*
X125192292Y-65034446D01*
X125217153Y-65004153D01*
X125247446Y-64979292D01*
X125282005Y-64960820D01*
X125319501Y-64949445D01*
X125364638Y-64945000D01*
X126003362Y-64945000D01*
X126048499Y-64949445D01*
X126048499Y-64949445D01*
G37*
G36*
X140551000Y-65051000D02*
G01*
X131899000Y-65051000D01*
X131899000Y-63449000D01*
X140551000Y-63449000D01*
X140551000Y-65051000D01*
X140551000Y-65051000D01*
G37*
G36*
X145352499Y-63453445D02*
G01*
X145389995Y-63464820D01*
X145424554Y-63483292D01*
X145454847Y-63508153D01*
X145479708Y-63538446D01*
X145498180Y-63573005D01*
X145509555Y-63610501D01*
X145514000Y-63655638D01*
X145514000Y-64394362D01*
X145509555Y-64439499D01*
X145498180Y-64476995D01*
X145479708Y-64511554D01*
X145454847Y-64541847D01*
X145424554Y-64566708D01*
X145389995Y-64585180D01*
X145352499Y-64596555D01*
X145307362Y-64601000D01*
X144668638Y-64601000D01*
X144623501Y-64596555D01*
X144586005Y-64585180D01*
X144551446Y-64566708D01*
X144521153Y-64541847D01*
X144496292Y-64511554D01*
X144477820Y-64476995D01*
X144466445Y-64439499D01*
X144462000Y-64394362D01*
X144462000Y-63655638D01*
X144466445Y-63610501D01*
X144477820Y-63573005D01*
X144496292Y-63538446D01*
X144521153Y-63508153D01*
X144551446Y-63483292D01*
X144586005Y-63464820D01*
X144623501Y-63453445D01*
X144668638Y-63449000D01*
X145307362Y-63449000D01*
X145352499Y-63453445D01*
X145352499Y-63453445D01*
G37*
G36*
X127572499Y-63199445D02*
G01*
X127609995Y-63210820D01*
X127644554Y-63229292D01*
X127674847Y-63254153D01*
X127699708Y-63284446D01*
X127718180Y-63319005D01*
X127729555Y-63356501D01*
X127734000Y-63401638D01*
X127734000Y-64140362D01*
X127729555Y-64185499D01*
X127718180Y-64222995D01*
X127699708Y-64257554D01*
X127674847Y-64287847D01*
X127644554Y-64312708D01*
X127609995Y-64331180D01*
X127572499Y-64342555D01*
X127527362Y-64347000D01*
X126888638Y-64347000D01*
X126843501Y-64342555D01*
X126806005Y-64331180D01*
X126771446Y-64312708D01*
X126741153Y-64287847D01*
X126716292Y-64257554D01*
X126697820Y-64222995D01*
X126686445Y-64185499D01*
X126682000Y-64140362D01*
X126682000Y-63401638D01*
X126686445Y-63356501D01*
X126697820Y-63319005D01*
X126716292Y-63284446D01*
X126741153Y-63254153D01*
X126771446Y-63229292D01*
X126806005Y-63210820D01*
X126843501Y-63199445D01*
X126888638Y-63195000D01*
X127527362Y-63195000D01*
X127572499Y-63199445D01*
X127572499Y-63199445D01*
G37*
G36*
X126048499Y-63199445D02*
G01*
X126085995Y-63210820D01*
X126120554Y-63229292D01*
X126150847Y-63254153D01*
X126175708Y-63284446D01*
X126194180Y-63319005D01*
X126205555Y-63356501D01*
X126210000Y-63401638D01*
X126210000Y-64140362D01*
X126205555Y-64185499D01*
X126194180Y-64222995D01*
X126175708Y-64257554D01*
X126150847Y-64287847D01*
X126120554Y-64312708D01*
X126085995Y-64331180D01*
X126048499Y-64342555D01*
X126003362Y-64347000D01*
X125364638Y-64347000D01*
X125319501Y-64342555D01*
X125282005Y-64331180D01*
X125247446Y-64312708D01*
X125217153Y-64287847D01*
X125192292Y-64257554D01*
X125173820Y-64222995D01*
X125162445Y-64185499D01*
X125158000Y-64140362D01*
X125158000Y-63401638D01*
X125162445Y-63356501D01*
X125173820Y-63319005D01*
X125192292Y-63284446D01*
X125217153Y-63254153D01*
X125247446Y-63229292D01*
X125282005Y-63210820D01*
X125319501Y-63199445D01*
X125364638Y-63195000D01*
X126003362Y-63195000D01*
X126048499Y-63199445D01*
X126048499Y-63199445D01*
G37*
G36*
X131326000Y-62876000D02*
G01*
X129724000Y-62876000D01*
X129724000Y-54224000D01*
X131326000Y-54224000D01*
X131326000Y-62876000D01*
X131326000Y-62876000D01*
G37*
G36*
X142726000Y-62876000D02*
G01*
X141124000Y-62876000D01*
X141124000Y-54224000D01*
X142726000Y-54224000D01*
X142726000Y-62876000D01*
X142726000Y-62876000D01*
G37*
G36*
X159322499Y-61393445D02*
G01*
X159359995Y-61404820D01*
X159394554Y-61423292D01*
X159424847Y-61448153D01*
X159449708Y-61478446D01*
X159468180Y-61513005D01*
X159479555Y-61550501D01*
X159484000Y-61595638D01*
X159484000Y-62334362D01*
X159479555Y-62379499D01*
X159468180Y-62416995D01*
X159449708Y-62451554D01*
X159424847Y-62481847D01*
X159394554Y-62506708D01*
X159359995Y-62525180D01*
X159322499Y-62536555D01*
X159277362Y-62541000D01*
X158638638Y-62541000D01*
X158593501Y-62536555D01*
X158556005Y-62525180D01*
X158521446Y-62506708D01*
X158491153Y-62481847D01*
X158466292Y-62451554D01*
X158447820Y-62416995D01*
X158436445Y-62379499D01*
X158432000Y-62334362D01*
X158432000Y-61595638D01*
X158436445Y-61550501D01*
X158447820Y-61513005D01*
X158466292Y-61478446D01*
X158491153Y-61448153D01*
X158521446Y-61423292D01*
X158556005Y-61404820D01*
X158593501Y-61393445D01*
X158638638Y-61389000D01*
X159277362Y-61389000D01*
X159322499Y-61393445D01*
X159322499Y-61393445D01*
G37*
G36*
X153502928Y-59623764D02*
G01*
X153524009Y-59630160D01*
X153543445Y-59640548D01*
X153560476Y-59654524D01*
X153574452Y-59671555D01*
X153584840Y-59690991D01*
X153591236Y-59712072D01*
X153594000Y-59740140D01*
X153594000Y-61553860D01*
X153591236Y-61581928D01*
X153584840Y-61603009D01*
X153574452Y-61622445D01*
X153560476Y-61639476D01*
X153543445Y-61653452D01*
X153524009Y-61663840D01*
X153502928Y-61670236D01*
X153474860Y-61673000D01*
X153011140Y-61673000D01*
X152983072Y-61670236D01*
X152961991Y-61663840D01*
X152942555Y-61653452D01*
X152925524Y-61639476D01*
X152911548Y-61622445D01*
X152901160Y-61603009D01*
X152894764Y-61581928D01*
X152892000Y-61553860D01*
X152892000Y-59740140D01*
X152894764Y-59712072D01*
X152901160Y-59690991D01*
X152911548Y-59671555D01*
X152925524Y-59654524D01*
X152942555Y-59640548D01*
X152961991Y-59630160D01*
X152983072Y-59623764D01*
X153011140Y-59621000D01*
X153474860Y-59621000D01*
X153502928Y-59623764D01*
X153502928Y-59623764D01*
G37*
G36*
X154772928Y-59623764D02*
G01*
X154794009Y-59630160D01*
X154813445Y-59640548D01*
X154830476Y-59654524D01*
X154844452Y-59671555D01*
X154854840Y-59690991D01*
X154861236Y-59712072D01*
X154864000Y-59740140D01*
X154864000Y-61553860D01*
X154861236Y-61581928D01*
X154854840Y-61603009D01*
X154844452Y-61622445D01*
X154830476Y-61639476D01*
X154813445Y-61653452D01*
X154794009Y-61663840D01*
X154772928Y-61670236D01*
X154744860Y-61673000D01*
X154281140Y-61673000D01*
X154253072Y-61670236D01*
X154231991Y-61663840D01*
X154212555Y-61653452D01*
X154195524Y-61639476D01*
X154181548Y-61622445D01*
X154171160Y-61603009D01*
X154164764Y-61581928D01*
X154162000Y-61553860D01*
X154162000Y-59740140D01*
X154164764Y-59712072D01*
X154171160Y-59690991D01*
X154181548Y-59671555D01*
X154195524Y-59654524D01*
X154212555Y-59640548D01*
X154231991Y-59630160D01*
X154253072Y-59623764D01*
X154281140Y-59621000D01*
X154744860Y-59621000D01*
X154772928Y-59623764D01*
X154772928Y-59623764D01*
G37*
G36*
X152232928Y-59623764D02*
G01*
X152254009Y-59630160D01*
X152273445Y-59640548D01*
X152290476Y-59654524D01*
X152304452Y-59671555D01*
X152314840Y-59690991D01*
X152321236Y-59712072D01*
X152324000Y-59740140D01*
X152324000Y-61553860D01*
X152321236Y-61581928D01*
X152314840Y-61603009D01*
X152304452Y-61622445D01*
X152290476Y-61639476D01*
X152273445Y-61653452D01*
X152254009Y-61663840D01*
X152232928Y-61670236D01*
X152204860Y-61673000D01*
X151741140Y-61673000D01*
X151713072Y-61670236D01*
X151691991Y-61663840D01*
X151672555Y-61653452D01*
X151655524Y-61639476D01*
X151641548Y-61622445D01*
X151631160Y-61603009D01*
X151624764Y-61581928D01*
X151622000Y-61553860D01*
X151622000Y-59740140D01*
X151624764Y-59712072D01*
X151631160Y-59690991D01*
X151641548Y-59671555D01*
X151655524Y-59654524D01*
X151672555Y-59640548D01*
X151691991Y-59630160D01*
X151713072Y-59623764D01*
X151741140Y-59621000D01*
X152204860Y-59621000D01*
X152232928Y-59623764D01*
X152232928Y-59623764D01*
G37*
G36*
X150962928Y-59623764D02*
G01*
X150984009Y-59630160D01*
X151003445Y-59640548D01*
X151020476Y-59654524D01*
X151034452Y-59671555D01*
X151044840Y-59690991D01*
X151051236Y-59712072D01*
X151054000Y-59740140D01*
X151054000Y-61553860D01*
X151051236Y-61581928D01*
X151044840Y-61603009D01*
X151034452Y-61622445D01*
X151020476Y-61639476D01*
X151003445Y-61653452D01*
X150984009Y-61663840D01*
X150962928Y-61670236D01*
X150934860Y-61673000D01*
X150471140Y-61673000D01*
X150443072Y-61670236D01*
X150421991Y-61663840D01*
X150402555Y-61653452D01*
X150385524Y-61639476D01*
X150371548Y-61622445D01*
X150361160Y-61603009D01*
X150354764Y-61581928D01*
X150352000Y-61553860D01*
X150352000Y-59740140D01*
X150354764Y-59712072D01*
X150361160Y-59690991D01*
X150371548Y-59671555D01*
X150385524Y-59654524D01*
X150402555Y-59640548D01*
X150421991Y-59630160D01*
X150443072Y-59623764D01*
X150471140Y-59621000D01*
X150934860Y-59621000D01*
X150962928Y-59623764D01*
X150962928Y-59623764D01*
G37*
G36*
X149692928Y-59623764D02*
G01*
X149714009Y-59630160D01*
X149733445Y-59640548D01*
X149750476Y-59654524D01*
X149764452Y-59671555D01*
X149774840Y-59690991D01*
X149781236Y-59712072D01*
X149784000Y-59740140D01*
X149784000Y-61553860D01*
X149781236Y-61581928D01*
X149774840Y-61603009D01*
X149764452Y-61622445D01*
X149750476Y-61639476D01*
X149733445Y-61653452D01*
X149714009Y-61663840D01*
X149692928Y-61670236D01*
X149664860Y-61673000D01*
X149201140Y-61673000D01*
X149173072Y-61670236D01*
X149151991Y-61663840D01*
X149132555Y-61653452D01*
X149115524Y-61639476D01*
X149101548Y-61622445D01*
X149091160Y-61603009D01*
X149084764Y-61581928D01*
X149082000Y-61553860D01*
X149082000Y-59740140D01*
X149084764Y-59712072D01*
X149091160Y-59690991D01*
X149101548Y-59671555D01*
X149115524Y-59654524D01*
X149132555Y-59640548D01*
X149151991Y-59630160D01*
X149173072Y-59623764D01*
X149201140Y-59621000D01*
X149664860Y-59621000D01*
X149692928Y-59623764D01*
X149692928Y-59623764D01*
G37*
G36*
X148422928Y-59623764D02*
G01*
X148444009Y-59630160D01*
X148463445Y-59640548D01*
X148480476Y-59654524D01*
X148494452Y-59671555D01*
X148504840Y-59690991D01*
X148511236Y-59712072D01*
X148514000Y-59740140D01*
X148514000Y-61553860D01*
X148511236Y-61581928D01*
X148504840Y-61603009D01*
X148494452Y-61622445D01*
X148480476Y-61639476D01*
X148463445Y-61653452D01*
X148444009Y-61663840D01*
X148422928Y-61670236D01*
X148394860Y-61673000D01*
X147931140Y-61673000D01*
X147903072Y-61670236D01*
X147881991Y-61663840D01*
X147862555Y-61653452D01*
X147845524Y-61639476D01*
X147831548Y-61622445D01*
X147821160Y-61603009D01*
X147814764Y-61581928D01*
X147812000Y-61553860D01*
X147812000Y-59740140D01*
X147814764Y-59712072D01*
X147821160Y-59690991D01*
X147831548Y-59671555D01*
X147845524Y-59654524D01*
X147862555Y-59640548D01*
X147881991Y-59630160D01*
X147903072Y-59623764D01*
X147931140Y-59621000D01*
X148394860Y-59621000D01*
X148422928Y-59623764D01*
X148422928Y-59623764D01*
G37*
G36*
X156042928Y-59623764D02*
G01*
X156064009Y-59630160D01*
X156083445Y-59640548D01*
X156100476Y-59654524D01*
X156114452Y-59671555D01*
X156124840Y-59690991D01*
X156131236Y-59712072D01*
X156134000Y-59740140D01*
X156134000Y-61553860D01*
X156131236Y-61581928D01*
X156124840Y-61603009D01*
X156114452Y-61622445D01*
X156100476Y-61639476D01*
X156083445Y-61653452D01*
X156064009Y-61663840D01*
X156042928Y-61670236D01*
X156014860Y-61673000D01*
X155551140Y-61673000D01*
X155523072Y-61670236D01*
X155501991Y-61663840D01*
X155482555Y-61653452D01*
X155465524Y-61639476D01*
X155451548Y-61622445D01*
X155441160Y-61603009D01*
X155434764Y-61581928D01*
X155432000Y-61553860D01*
X155432000Y-59740140D01*
X155434764Y-59712072D01*
X155441160Y-59690991D01*
X155451548Y-59671555D01*
X155465524Y-59654524D01*
X155482555Y-59640548D01*
X155501991Y-59630160D01*
X155523072Y-59623764D01*
X155551140Y-59621000D01*
X156014860Y-59621000D01*
X156042928Y-59623764D01*
X156042928Y-59623764D01*
G37*
G36*
X157312928Y-59623764D02*
G01*
X157334009Y-59630160D01*
X157353445Y-59640548D01*
X157370476Y-59654524D01*
X157384452Y-59671555D01*
X157394840Y-59690991D01*
X157401236Y-59712072D01*
X157404000Y-59740140D01*
X157404000Y-61553860D01*
X157401236Y-61581928D01*
X157394840Y-61603009D01*
X157384452Y-61622445D01*
X157370476Y-61639476D01*
X157353445Y-61653452D01*
X157334009Y-61663840D01*
X157312928Y-61670236D01*
X157284860Y-61673000D01*
X156821140Y-61673000D01*
X156793072Y-61670236D01*
X156771991Y-61663840D01*
X156752555Y-61653452D01*
X156735524Y-61639476D01*
X156721548Y-61622445D01*
X156711160Y-61603009D01*
X156704764Y-61581928D01*
X156702000Y-61553860D01*
X156702000Y-59740140D01*
X156704764Y-59712072D01*
X156711160Y-59690991D01*
X156721548Y-59671555D01*
X156735524Y-59654524D01*
X156752555Y-59640548D01*
X156771991Y-59630160D01*
X156793072Y-59623764D01*
X156821140Y-59621000D01*
X157284860Y-59621000D01*
X157312928Y-59623764D01*
X157312928Y-59623764D01*
G37*
G36*
X159322499Y-59643445D02*
G01*
X159359995Y-59654820D01*
X159394554Y-59673292D01*
X159424847Y-59698153D01*
X159449708Y-59728446D01*
X159468180Y-59763005D01*
X159479555Y-59800501D01*
X159484000Y-59845638D01*
X159484000Y-60584362D01*
X159479555Y-60629499D01*
X159468180Y-60666995D01*
X159449708Y-60701554D01*
X159424847Y-60731847D01*
X159394554Y-60756708D01*
X159359995Y-60775180D01*
X159322499Y-60786555D01*
X159277362Y-60791000D01*
X158638638Y-60791000D01*
X158593501Y-60786555D01*
X158556005Y-60775180D01*
X158521446Y-60756708D01*
X158491153Y-60731847D01*
X158466292Y-60701554D01*
X158447820Y-60666995D01*
X158436445Y-60629499D01*
X158432000Y-60584362D01*
X158432000Y-59845638D01*
X158436445Y-59800501D01*
X158447820Y-59763005D01*
X158466292Y-59728446D01*
X158491153Y-59698153D01*
X158521446Y-59673292D01*
X158556005Y-59654820D01*
X158593501Y-59643445D01*
X158638638Y-59639000D01*
X159277362Y-59639000D01*
X159322499Y-59643445D01*
X159322499Y-59643445D01*
G37*
G36*
X107697499Y-57266445D02*
G01*
X107734995Y-57277820D01*
X107769554Y-57296292D01*
X107799847Y-57321153D01*
X107824708Y-57351446D01*
X107843180Y-57386005D01*
X107854555Y-57423501D01*
X107859000Y-57468638D01*
X107859000Y-58107362D01*
X107854555Y-58152499D01*
X107843180Y-58189995D01*
X107824708Y-58224554D01*
X107799847Y-58254847D01*
X107769554Y-58279708D01*
X107734995Y-58298180D01*
X107697499Y-58309555D01*
X107652362Y-58314000D01*
X106913638Y-58314000D01*
X106868501Y-58309555D01*
X106831005Y-58298180D01*
X106796446Y-58279708D01*
X106766153Y-58254847D01*
X106741292Y-58224554D01*
X106722820Y-58189995D01*
X106711445Y-58152499D01*
X106707000Y-58107362D01*
X106707000Y-57468638D01*
X106711445Y-57423501D01*
X106722820Y-57386005D01*
X106741292Y-57351446D01*
X106766153Y-57321153D01*
X106796446Y-57296292D01*
X106831005Y-57277820D01*
X106868501Y-57266445D01*
X106913638Y-57262000D01*
X107652362Y-57262000D01*
X107697499Y-57266445D01*
X107697499Y-57266445D01*
G37*
G36*
X109447499Y-57266445D02*
G01*
X109484995Y-57277820D01*
X109519554Y-57296292D01*
X109549847Y-57321153D01*
X109574708Y-57351446D01*
X109593180Y-57386005D01*
X109604555Y-57423501D01*
X109609000Y-57468638D01*
X109609000Y-58107362D01*
X109604555Y-58152499D01*
X109593180Y-58189995D01*
X109574708Y-58224554D01*
X109549847Y-58254847D01*
X109519554Y-58279708D01*
X109484995Y-58298180D01*
X109447499Y-58309555D01*
X109402362Y-58314000D01*
X108663638Y-58314000D01*
X108618501Y-58309555D01*
X108581005Y-58298180D01*
X108546446Y-58279708D01*
X108516153Y-58254847D01*
X108491292Y-58224554D01*
X108472820Y-58189995D01*
X108461445Y-58152499D01*
X108457000Y-58107362D01*
X108457000Y-57468638D01*
X108461445Y-57423501D01*
X108472820Y-57386005D01*
X108491292Y-57351446D01*
X108516153Y-57321153D01*
X108546446Y-57296292D01*
X108581005Y-57277820D01*
X108618501Y-57266445D01*
X108663638Y-57262000D01*
X109402362Y-57262000D01*
X109447499Y-57266445D01*
X109447499Y-57266445D01*
G37*
G36*
X112506000Y-56366000D02*
G01*
X111104000Y-56366000D01*
X111104000Y-54714000D01*
X112506000Y-54714000D01*
X112506000Y-56366000D01*
X112506000Y-56366000D01*
G37*
G36*
X108006000Y-56366000D02*
G01*
X106604000Y-56366000D01*
X106604000Y-54714000D01*
X108006000Y-54714000D01*
X108006000Y-56366000D01*
X108006000Y-56366000D01*
G37*
G36*
X145479499Y-53290945D02*
G01*
X145516995Y-53302320D01*
X145551554Y-53320792D01*
X145581847Y-53345653D01*
X145606708Y-53375946D01*
X145625180Y-53410505D01*
X145636555Y-53448001D01*
X145641000Y-53493138D01*
X145641000Y-54231862D01*
X145636555Y-54276999D01*
X145625180Y-54314495D01*
X145606708Y-54349054D01*
X145581847Y-54379347D01*
X145551554Y-54404208D01*
X145516995Y-54422680D01*
X145479499Y-54434055D01*
X145434362Y-54438500D01*
X144795638Y-54438500D01*
X144750501Y-54434055D01*
X144713005Y-54422680D01*
X144678446Y-54404208D01*
X144648153Y-54379347D01*
X144623292Y-54349054D01*
X144604820Y-54314495D01*
X144593445Y-54276999D01*
X144589000Y-54231862D01*
X144589000Y-53493138D01*
X144593445Y-53448001D01*
X144604820Y-53410505D01*
X144623292Y-53375946D01*
X144648153Y-53345653D01*
X144678446Y-53320792D01*
X144713005Y-53302320D01*
X144750501Y-53290945D01*
X144795638Y-53286500D01*
X145434362Y-53286500D01*
X145479499Y-53290945D01*
X145479499Y-53290945D01*
G37*
G36*
X140551000Y-53651000D02*
G01*
X131899000Y-53651000D01*
X131899000Y-52049000D01*
X140551000Y-52049000D01*
X140551000Y-53651000D01*
X140551000Y-53651000D01*
G37*
G36*
X145479499Y-51540945D02*
G01*
X145516995Y-51552320D01*
X145551554Y-51570792D01*
X145581847Y-51595653D01*
X145606708Y-51625946D01*
X145625180Y-51660505D01*
X145636555Y-51698001D01*
X145641000Y-51743138D01*
X145641000Y-52481862D01*
X145636555Y-52526999D01*
X145625180Y-52564495D01*
X145606708Y-52599054D01*
X145581847Y-52629347D01*
X145551554Y-52654208D01*
X145516995Y-52672680D01*
X145479499Y-52684055D01*
X145434362Y-52688500D01*
X144795638Y-52688500D01*
X144750501Y-52684055D01*
X144713005Y-52672680D01*
X144678446Y-52654208D01*
X144648153Y-52629347D01*
X144623292Y-52599054D01*
X144604820Y-52564495D01*
X144593445Y-52526999D01*
X144589000Y-52481862D01*
X144589000Y-51743138D01*
X144593445Y-51698001D01*
X144604820Y-51660505D01*
X144623292Y-51625946D01*
X144648153Y-51595653D01*
X144678446Y-51570792D01*
X144713005Y-51552320D01*
X144750501Y-51540945D01*
X144795638Y-51536500D01*
X145434362Y-51536500D01*
X145479499Y-51540945D01*
X145479499Y-51540945D01*
G37*
G36*
X134847499Y-48630445D02*
G01*
X134884995Y-48641820D01*
X134919554Y-48660292D01*
X134949847Y-48685153D01*
X134974708Y-48715446D01*
X134993180Y-48750005D01*
X135004555Y-48787501D01*
X135009000Y-48832638D01*
X135009000Y-49471362D01*
X135004555Y-49516499D01*
X134993180Y-49553995D01*
X134974708Y-49588554D01*
X134949847Y-49618847D01*
X134919554Y-49643708D01*
X134884995Y-49662180D01*
X134847499Y-49673555D01*
X134802362Y-49678000D01*
X134063638Y-49678000D01*
X134018501Y-49673555D01*
X133981005Y-49662180D01*
X133946446Y-49643708D01*
X133916153Y-49618847D01*
X133891292Y-49588554D01*
X133872820Y-49553995D01*
X133861445Y-49516499D01*
X133857000Y-49471362D01*
X133857000Y-48832638D01*
X133861445Y-48787501D01*
X133872820Y-48750005D01*
X133891292Y-48715446D01*
X133916153Y-48685153D01*
X133946446Y-48660292D01*
X133981005Y-48641820D01*
X134018501Y-48630445D01*
X134063638Y-48626000D01*
X134802362Y-48626000D01*
X134847499Y-48630445D01*
X134847499Y-48630445D01*
G37*
G36*
X133097499Y-48630445D02*
G01*
X133134995Y-48641820D01*
X133169554Y-48660292D01*
X133199847Y-48685153D01*
X133224708Y-48715446D01*
X133243180Y-48750005D01*
X133254555Y-48787501D01*
X133259000Y-48832638D01*
X133259000Y-49471362D01*
X133254555Y-49516499D01*
X133243180Y-49553995D01*
X133224708Y-49588554D01*
X133199847Y-49618847D01*
X133169554Y-49643708D01*
X133134995Y-49662180D01*
X133097499Y-49673555D01*
X133052362Y-49678000D01*
X132313638Y-49678000D01*
X132268501Y-49673555D01*
X132231005Y-49662180D01*
X132196446Y-49643708D01*
X132166153Y-49618847D01*
X132141292Y-49588554D01*
X132122820Y-49553995D01*
X132111445Y-49516499D01*
X132107000Y-49471362D01*
X132107000Y-48832638D01*
X132111445Y-48787501D01*
X132122820Y-48750005D01*
X132141292Y-48715446D01*
X132166153Y-48685153D01*
X132196446Y-48660292D01*
X132231005Y-48641820D01*
X132268501Y-48630445D01*
X132313638Y-48626000D01*
X133052362Y-48626000D01*
X133097499Y-48630445D01*
X133097499Y-48630445D01*
G37*
G36*
X137669499Y-48630445D02*
G01*
X137706995Y-48641820D01*
X137741554Y-48660292D01*
X137771847Y-48685153D01*
X137796708Y-48715446D01*
X137815180Y-48750005D01*
X137826555Y-48787501D01*
X137831000Y-48832638D01*
X137831000Y-49471362D01*
X137826555Y-49516499D01*
X137815180Y-49553995D01*
X137796708Y-49588554D01*
X137771847Y-49618847D01*
X137741554Y-49643708D01*
X137706995Y-49662180D01*
X137669499Y-49673555D01*
X137624362Y-49678000D01*
X136885638Y-49678000D01*
X136840501Y-49673555D01*
X136803005Y-49662180D01*
X136768446Y-49643708D01*
X136738153Y-49618847D01*
X136713292Y-49588554D01*
X136694820Y-49553995D01*
X136683445Y-49516499D01*
X136679000Y-49471362D01*
X136679000Y-48832638D01*
X136683445Y-48787501D01*
X136694820Y-48750005D01*
X136713292Y-48715446D01*
X136738153Y-48685153D01*
X136768446Y-48660292D01*
X136803005Y-48641820D01*
X136840501Y-48630445D01*
X136885638Y-48626000D01*
X137624362Y-48626000D01*
X137669499Y-48630445D01*
X137669499Y-48630445D01*
G37*
G36*
X139419499Y-48630445D02*
G01*
X139456995Y-48641820D01*
X139491554Y-48660292D01*
X139521847Y-48685153D01*
X139546708Y-48715446D01*
X139565180Y-48750005D01*
X139576555Y-48787501D01*
X139581000Y-48832638D01*
X139581000Y-49471362D01*
X139576555Y-49516499D01*
X139565180Y-49553995D01*
X139546708Y-49588554D01*
X139521847Y-49618847D01*
X139491554Y-49643708D01*
X139456995Y-49662180D01*
X139419499Y-49673555D01*
X139374362Y-49678000D01*
X138635638Y-49678000D01*
X138590501Y-49673555D01*
X138553005Y-49662180D01*
X138518446Y-49643708D01*
X138488153Y-49618847D01*
X138463292Y-49588554D01*
X138444820Y-49553995D01*
X138433445Y-49516499D01*
X138429000Y-49471362D01*
X138429000Y-48832638D01*
X138433445Y-48787501D01*
X138444820Y-48750005D01*
X138463292Y-48715446D01*
X138488153Y-48685153D01*
X138518446Y-48660292D01*
X138553005Y-48641820D01*
X138590501Y-48630445D01*
X138635638Y-48626000D01*
X139374362Y-48626000D01*
X139419499Y-48630445D01*
X139419499Y-48630445D01*
G37*
G36*
X131382499Y-48439445D02*
G01*
X131419995Y-48450820D01*
X131454554Y-48469292D01*
X131484847Y-48494153D01*
X131509708Y-48524446D01*
X131528180Y-48559005D01*
X131539555Y-48596501D01*
X131544000Y-48641638D01*
X131544000Y-49380362D01*
X131539555Y-49425499D01*
X131528180Y-49462995D01*
X131509708Y-49497554D01*
X131484847Y-49527847D01*
X131454554Y-49552708D01*
X131419995Y-49571180D01*
X131382499Y-49582555D01*
X131337362Y-49587000D01*
X130698638Y-49587000D01*
X130653501Y-49582555D01*
X130616005Y-49571180D01*
X130581446Y-49552708D01*
X130551153Y-49527847D01*
X130526292Y-49497554D01*
X130507820Y-49462995D01*
X130496445Y-49425499D01*
X130492000Y-49380362D01*
X130492000Y-48641638D01*
X130496445Y-48596501D01*
X130507820Y-48559005D01*
X130526292Y-48524446D01*
X130551153Y-48494153D01*
X130581446Y-48469292D01*
X130616005Y-48450820D01*
X130653501Y-48439445D01*
X130698638Y-48435000D01*
X131337362Y-48435000D01*
X131382499Y-48439445D01*
X131382499Y-48439445D01*
G37*
G36*
X128137000Y-48543000D02*
G01*
X127295000Y-48543000D01*
X127295000Y-46041000D01*
X128137000Y-46041000D01*
X128137000Y-48543000D01*
X128137000Y-48543000D01*
G37*
G36*
X125597000Y-48543000D02*
G01*
X124755000Y-48543000D01*
X124755000Y-46041000D01*
X125597000Y-46041000D01*
X125597000Y-48543000D01*
X125597000Y-48543000D01*
G37*
G36*
X126867000Y-48543000D02*
G01*
X126025000Y-48543000D01*
X126025000Y-46041000D01*
X126867000Y-46041000D01*
X126867000Y-48543000D01*
X126867000Y-48543000D01*
G37*
G36*
X108006000Y-48416000D02*
G01*
X106604000Y-48416000D01*
X106604000Y-46764000D01*
X108006000Y-46764000D01*
X108006000Y-48416000D01*
X108006000Y-48416000D01*
G37*
G36*
X112506000Y-48416000D02*
G01*
X111104000Y-48416000D01*
X111104000Y-46764000D01*
X112506000Y-46764000D01*
X112506000Y-48416000D01*
X112506000Y-48416000D01*
G37*
G36*
X131382499Y-46689445D02*
G01*
X131419995Y-46700820D01*
X131454554Y-46719292D01*
X131484847Y-46744153D01*
X131509708Y-46774446D01*
X131528180Y-46809005D01*
X131539555Y-46846501D01*
X131544000Y-46891638D01*
X131544000Y-47630362D01*
X131539555Y-47675499D01*
X131528180Y-47712995D01*
X131509708Y-47747554D01*
X131484847Y-47777847D01*
X131454554Y-47802708D01*
X131419995Y-47821180D01*
X131382499Y-47832555D01*
X131337362Y-47837000D01*
X130698638Y-47837000D01*
X130653501Y-47832555D01*
X130616005Y-47821180D01*
X130581446Y-47802708D01*
X130551153Y-47777847D01*
X130526292Y-47747554D01*
X130507820Y-47712995D01*
X130496445Y-47675499D01*
X130492000Y-47630362D01*
X130492000Y-46891638D01*
X130496445Y-46846501D01*
X130507820Y-46809005D01*
X130526292Y-46774446D01*
X130551153Y-46744153D01*
X130581446Y-46719292D01*
X130616005Y-46700820D01*
X130653501Y-46689445D01*
X130698638Y-46685000D01*
X131337362Y-46685000D01*
X131382499Y-46689445D01*
X131382499Y-46689445D01*
G37*
G36*
X138745000Y-47609000D02*
G01*
X136643000Y-47609000D01*
X136643000Y-45107000D01*
X138745000Y-45107000D01*
X138745000Y-47609000D01*
X138745000Y-47609000D01*
G37*
G36*
X135045000Y-47609000D02*
G01*
X132943000Y-47609000D01*
X132943000Y-45107000D01*
X135045000Y-45107000D01*
X135045000Y-47609000D01*
X135045000Y-47609000D01*
G37*
G36*
X161608499Y-43613445D02*
G01*
X161645995Y-43624820D01*
X161680554Y-43643292D01*
X161710847Y-43668153D01*
X161735708Y-43698446D01*
X161754180Y-43733005D01*
X161765555Y-43770501D01*
X161770000Y-43815638D01*
X161770000Y-44554362D01*
X161765555Y-44599499D01*
X161754180Y-44636995D01*
X161735708Y-44671554D01*
X161710847Y-44701847D01*
X161680554Y-44726708D01*
X161645995Y-44745180D01*
X161608499Y-44756555D01*
X161563362Y-44761000D01*
X160924638Y-44761000D01*
X160879501Y-44756555D01*
X160842005Y-44745180D01*
X160807446Y-44726708D01*
X160777153Y-44701847D01*
X160752292Y-44671554D01*
X160733820Y-44636995D01*
X160722445Y-44599499D01*
X160718000Y-44554362D01*
X160718000Y-43815638D01*
X160722445Y-43770501D01*
X160733820Y-43733005D01*
X160752292Y-43698446D01*
X160777153Y-43668153D01*
X160807446Y-43643292D01*
X160842005Y-43624820D01*
X160879501Y-43613445D01*
X160924638Y-43609000D01*
X161563362Y-43609000D01*
X161608499Y-43613445D01*
X161608499Y-43613445D01*
G37*
G36*
X160084499Y-43587945D02*
G01*
X160121995Y-43599320D01*
X160156554Y-43617792D01*
X160186847Y-43642653D01*
X160211708Y-43672946D01*
X160230180Y-43707505D01*
X160241555Y-43745001D01*
X160246000Y-43790138D01*
X160246000Y-44528862D01*
X160241555Y-44573999D01*
X160230180Y-44611495D01*
X160211708Y-44646054D01*
X160186847Y-44676347D01*
X160156554Y-44701208D01*
X160121995Y-44719680D01*
X160084499Y-44731055D01*
X160039362Y-44735500D01*
X159400638Y-44735500D01*
X159355501Y-44731055D01*
X159318005Y-44719680D01*
X159283446Y-44701208D01*
X159253153Y-44676347D01*
X159228292Y-44646054D01*
X159209820Y-44611495D01*
X159198445Y-44573999D01*
X159194000Y-44528862D01*
X159194000Y-43790138D01*
X159198445Y-43745001D01*
X159209820Y-43707505D01*
X159228292Y-43672946D01*
X159253153Y-43642653D01*
X159283446Y-43617792D01*
X159318005Y-43599320D01*
X159355501Y-43587945D01*
X159400638Y-43583500D01*
X160039362Y-43583500D01*
X160084499Y-43587945D01*
X160084499Y-43587945D01*
G37*
G36*
X125597000Y-44643000D02*
G01*
X124755000Y-44643000D01*
X124755000Y-42141000D01*
X125597000Y-42141000D01*
X125597000Y-44643000D01*
X125597000Y-44643000D01*
G37*
G36*
X128137000Y-44643000D02*
G01*
X127295000Y-44643000D01*
X127295000Y-42141000D01*
X128137000Y-42141000D01*
X128137000Y-44643000D01*
X128137000Y-44643000D01*
G37*
G36*
X126867000Y-44643000D02*
G01*
X126025000Y-44643000D01*
X126025000Y-42141000D01*
X126867000Y-42141000D01*
X126867000Y-44643000D01*
X126867000Y-44643000D01*
G37*
G36*
X155191000Y-44623000D02*
G01*
X154089000Y-44623000D01*
X154089000Y-43521000D01*
X155191000Y-43521000D01*
X155191000Y-44623000D01*
X155191000Y-44623000D01*
G37*
G36*
X153099499Y-43345445D02*
G01*
X153136995Y-43356820D01*
X153171554Y-43375292D01*
X153201847Y-43400153D01*
X153226708Y-43430446D01*
X153245180Y-43465005D01*
X153256555Y-43502501D01*
X153261000Y-43547638D01*
X153261000Y-44286362D01*
X153256555Y-44331499D01*
X153245180Y-44368995D01*
X153226708Y-44403554D01*
X153201847Y-44433847D01*
X153171554Y-44458708D01*
X153136995Y-44477180D01*
X153099499Y-44488555D01*
X153054362Y-44493000D01*
X152415638Y-44493000D01*
X152370501Y-44488555D01*
X152333005Y-44477180D01*
X152298446Y-44458708D01*
X152268153Y-44433847D01*
X152243292Y-44403554D01*
X152224820Y-44368995D01*
X152213445Y-44331499D01*
X152209000Y-44286362D01*
X152209000Y-43547638D01*
X152213445Y-43502501D01*
X152224820Y-43465005D01*
X152243292Y-43430446D01*
X152268153Y-43400153D01*
X152298446Y-43375292D01*
X152333005Y-43356820D01*
X152370501Y-43345445D01*
X152415638Y-43341000D01*
X153054362Y-43341000D01*
X153099499Y-43345445D01*
X153099499Y-43345445D01*
G37*
G36*
X151448499Y-43345445D02*
G01*
X151485995Y-43356820D01*
X151520554Y-43375292D01*
X151550847Y-43400153D01*
X151575708Y-43430446D01*
X151594180Y-43465005D01*
X151605555Y-43502501D01*
X151610000Y-43547638D01*
X151610000Y-44286362D01*
X151605555Y-44331499D01*
X151594180Y-44368995D01*
X151575708Y-44403554D01*
X151550847Y-44433847D01*
X151520554Y-44458708D01*
X151485995Y-44477180D01*
X151448499Y-44488555D01*
X151403362Y-44493000D01*
X150764638Y-44493000D01*
X150719501Y-44488555D01*
X150682005Y-44477180D01*
X150647446Y-44458708D01*
X150617153Y-44433847D01*
X150592292Y-44403554D01*
X150573820Y-44368995D01*
X150562445Y-44331499D01*
X150558000Y-44286362D01*
X150558000Y-43547638D01*
X150562445Y-43502501D01*
X150573820Y-43465005D01*
X150592292Y-43430446D01*
X150617153Y-43400153D01*
X150647446Y-43375292D01*
X150682005Y-43356820D01*
X150719501Y-43345445D01*
X150764638Y-43341000D01*
X151403362Y-43341000D01*
X151448499Y-43345445D01*
X151448499Y-43345445D01*
G37*
G36*
X106850000Y-41199001D02*
G01*
X106852402Y-41223387D01*
X106859515Y-41246836D01*
X106871066Y-41268447D01*
X106875000Y-41273241D01*
X106875000Y-41771379D01*
X106877402Y-41795765D01*
X106880383Y-41807665D01*
X106886304Y-41827182D01*
X106897907Y-41945000D01*
X106886304Y-42062818D01*
X106880383Y-42082335D01*
X106875602Y-42106368D01*
X106875000Y-42118621D01*
X106875000Y-43426000D01*
X105299999Y-43426000D01*
X105275613Y-43428402D01*
X105252164Y-43435515D01*
X105246579Y-43438500D01*
X104373000Y-43438500D01*
X104373000Y-43105999D01*
X104370598Y-43081613D01*
X104363485Y-43058164D01*
X104351934Y-43036553D01*
X104336389Y-43017611D01*
X104317447Y-43002066D01*
X104295836Y-42990515D01*
X104272387Y-42983402D01*
X104248001Y-42981000D01*
X102873950Y-42981000D01*
X102872387Y-42980526D01*
X102860255Y-42978726D01*
X102776679Y-42970495D01*
X102639828Y-42928981D01*
X102639825Y-42928980D01*
X102513706Y-42861568D01*
X102403157Y-42770843D01*
X102312432Y-42660294D01*
X102245020Y-42534175D01*
X102218615Y-42447130D01*
X102203505Y-42397321D01*
X102189488Y-42255000D01*
X102203505Y-42112679D01*
X102245019Y-41975828D01*
X102245020Y-41975825D01*
X102312432Y-41849706D01*
X102403157Y-41739157D01*
X102513706Y-41648432D01*
X102639825Y-41581020D01*
X102639828Y-41581019D01*
X102776679Y-41539505D01*
X102860254Y-41531274D01*
X102871686Y-41529000D01*
X104248001Y-41529000D01*
X104272387Y-41526598D01*
X104295836Y-41519485D01*
X104310775Y-41511500D01*
X105148001Y-41511500D01*
X105172387Y-41509098D01*
X105195836Y-41501985D01*
X105217447Y-41490434D01*
X105236389Y-41474889D01*
X105251934Y-41455947D01*
X105263485Y-41434336D01*
X105270598Y-41410887D01*
X105273000Y-41386501D01*
X105273000Y-41200999D01*
X105270598Y-41176613D01*
X105263485Y-41153164D01*
X105251934Y-41131553D01*
X105236389Y-41112611D01*
X105217447Y-41097066D01*
X105195836Y-41085515D01*
X105172387Y-41078402D01*
X105148001Y-41076000D01*
X105098000Y-41076000D01*
X105098000Y-37974000D01*
X106850000Y-37974000D01*
X106850000Y-41199001D01*
X106850000Y-41199001D01*
G37*
G36*
X161608499Y-41863445D02*
G01*
X161645995Y-41874820D01*
X161680554Y-41893292D01*
X161710847Y-41918153D01*
X161735708Y-41948446D01*
X161754180Y-41983005D01*
X161765555Y-42020501D01*
X161770000Y-42065638D01*
X161770000Y-42804362D01*
X161765555Y-42849499D01*
X161754180Y-42886995D01*
X161735708Y-42921554D01*
X161710847Y-42951847D01*
X161680554Y-42976708D01*
X161645995Y-42995180D01*
X161608499Y-43006555D01*
X161563362Y-43011000D01*
X160924638Y-43011000D01*
X160879501Y-43006555D01*
X160842005Y-42995180D01*
X160807446Y-42976708D01*
X160777153Y-42951847D01*
X160752292Y-42921554D01*
X160733820Y-42886995D01*
X160722445Y-42849499D01*
X160718000Y-42804362D01*
X160718000Y-42065638D01*
X160722445Y-42020501D01*
X160733820Y-41983005D01*
X160752292Y-41948446D01*
X160777153Y-41918153D01*
X160807446Y-41893292D01*
X160842005Y-41874820D01*
X160879501Y-41863445D01*
X160924638Y-41859000D01*
X161563362Y-41859000D01*
X161608499Y-41863445D01*
X161608499Y-41863445D01*
G37*
G36*
X160084499Y-41837945D02*
G01*
X160121995Y-41849320D01*
X160156554Y-41867792D01*
X160186847Y-41892653D01*
X160211708Y-41922946D01*
X160230180Y-41957505D01*
X160241555Y-41995001D01*
X160246000Y-42040138D01*
X160246000Y-42778862D01*
X160241555Y-42823999D01*
X160230180Y-42861495D01*
X160211708Y-42896054D01*
X160186847Y-42926347D01*
X160156554Y-42951208D01*
X160121995Y-42969680D01*
X160084499Y-42981055D01*
X160039362Y-42985500D01*
X159400638Y-42985500D01*
X159355501Y-42981055D01*
X159318005Y-42969680D01*
X159283446Y-42951208D01*
X159253153Y-42926347D01*
X159228292Y-42896054D01*
X159209820Y-42861495D01*
X159198445Y-42823999D01*
X159194000Y-42778862D01*
X159194000Y-42040138D01*
X159198445Y-41995001D01*
X159209820Y-41957505D01*
X159228292Y-41922946D01*
X159253153Y-41892653D01*
X159283446Y-41867792D01*
X159318005Y-41849320D01*
X159355501Y-41837945D01*
X159400638Y-41833500D01*
X160039362Y-41833500D01*
X160084499Y-41837945D01*
X160084499Y-41837945D01*
G37*
G36*
X153099499Y-41595445D02*
G01*
X153136995Y-41606820D01*
X153171554Y-41625292D01*
X153201847Y-41650153D01*
X153226708Y-41680446D01*
X153245180Y-41715005D01*
X153256555Y-41752501D01*
X153261000Y-41797638D01*
X153261000Y-42536362D01*
X153256555Y-42581499D01*
X153245180Y-42618995D01*
X153226708Y-42653554D01*
X153201847Y-42683847D01*
X153171554Y-42708708D01*
X153136995Y-42727180D01*
X153099499Y-42738555D01*
X153054362Y-42743000D01*
X152415638Y-42743000D01*
X152370501Y-42738555D01*
X152333005Y-42727180D01*
X152298446Y-42708708D01*
X152268153Y-42683847D01*
X152243292Y-42653554D01*
X152224820Y-42618995D01*
X152213445Y-42581499D01*
X152209000Y-42536362D01*
X152209000Y-41797638D01*
X152213445Y-41752501D01*
X152224820Y-41715005D01*
X152243292Y-41680446D01*
X152268153Y-41650153D01*
X152298446Y-41625292D01*
X152333005Y-41606820D01*
X152370501Y-41595445D01*
X152415638Y-41591000D01*
X153054362Y-41591000D01*
X153099499Y-41595445D01*
X153099499Y-41595445D01*
G37*
G36*
X151448499Y-41595445D02*
G01*
X151485995Y-41606820D01*
X151520554Y-41625292D01*
X151550847Y-41650153D01*
X151575708Y-41680446D01*
X151594180Y-41715005D01*
X151605555Y-41752501D01*
X151610000Y-41797638D01*
X151610000Y-42536362D01*
X151605555Y-42581499D01*
X151594180Y-42618995D01*
X151575708Y-42653554D01*
X151550847Y-42683847D01*
X151520554Y-42708708D01*
X151485995Y-42727180D01*
X151448499Y-42738555D01*
X151403362Y-42743000D01*
X150764638Y-42743000D01*
X150719501Y-42738555D01*
X150682005Y-42727180D01*
X150647446Y-42708708D01*
X150617153Y-42683847D01*
X150592292Y-42653554D01*
X150573820Y-42618995D01*
X150562445Y-42581499D01*
X150558000Y-42536362D01*
X150558000Y-41797638D01*
X150562445Y-41752501D01*
X150573820Y-41715005D01*
X150592292Y-41680446D01*
X150617153Y-41650153D01*
X150647446Y-41625292D01*
X150682005Y-41606820D01*
X150719501Y-41595445D01*
X150764638Y-41591000D01*
X151403362Y-41591000D01*
X151448499Y-41595445D01*
X151448499Y-41595445D01*
G37*
G36*
X104125000Y-41251000D02*
G01*
X101523000Y-41251000D01*
X101523000Y-39719000D01*
X104125000Y-39719000D01*
X104125000Y-41251000D01*
X104125000Y-41251000D01*
G37*
G36*
X156216189Y-37926000D02*
G01*
X156218591Y-37950386D01*
X156225704Y-37973835D01*
X156237255Y-37995446D01*
X156252800Y-38014388D01*
X156271742Y-38029933D01*
X156293353Y-38041484D01*
X156316802Y-38048597D01*
X156341188Y-38050999D01*
X157226001Y-38050999D01*
X157226001Y-39933001D01*
X156341188Y-39933001D01*
X156316802Y-39935403D01*
X156293353Y-39942516D01*
X156271742Y-39954067D01*
X156252800Y-39969612D01*
X156237255Y-39988554D01*
X156225704Y-40010165D01*
X156218591Y-40033614D01*
X156216189Y-40058000D01*
X156216189Y-40943001D01*
X154333811Y-40943001D01*
X154333811Y-40058000D01*
X154331409Y-40033614D01*
X154324296Y-40010165D01*
X154312745Y-39988554D01*
X154297200Y-39969612D01*
X154278258Y-39954067D01*
X154256647Y-39942516D01*
X154233198Y-39935403D01*
X154208812Y-39933001D01*
X153323999Y-39933001D01*
X153323999Y-38050999D01*
X154208812Y-38050999D01*
X154233198Y-38048597D01*
X154256647Y-38041484D01*
X154278258Y-38029933D01*
X154297200Y-38014388D01*
X154312745Y-37995446D01*
X154324296Y-37973835D01*
X154331409Y-37950386D01*
X154333811Y-37926000D01*
X154333811Y-37040999D01*
X156216189Y-37040999D01*
X156216189Y-37926000D01*
X156216189Y-37926000D01*
G37*
G36*
X116305499Y-39232445D02*
G01*
X116342995Y-39243820D01*
X116377554Y-39262292D01*
X116407847Y-39287153D01*
X116432708Y-39317446D01*
X116451180Y-39352005D01*
X116462555Y-39389501D01*
X116467000Y-39434638D01*
X116467000Y-40073362D01*
X116462555Y-40118499D01*
X116451180Y-40155995D01*
X116432708Y-40190554D01*
X116407847Y-40220847D01*
X116377554Y-40245708D01*
X116342995Y-40264180D01*
X116305499Y-40275555D01*
X116260362Y-40280000D01*
X115521638Y-40280000D01*
X115476501Y-40275555D01*
X115439005Y-40264180D01*
X115404446Y-40245708D01*
X115374153Y-40220847D01*
X115349292Y-40190554D01*
X115330820Y-40155995D01*
X115319445Y-40118499D01*
X115315000Y-40073362D01*
X115315000Y-39434638D01*
X115319445Y-39389501D01*
X115330820Y-39352005D01*
X115349292Y-39317446D01*
X115374153Y-39287153D01*
X115404446Y-39262292D01*
X115439005Y-39243820D01*
X115476501Y-39232445D01*
X115521638Y-39228000D01*
X116260362Y-39228000D01*
X116305499Y-39232445D01*
X116305499Y-39232445D01*
G37*
G36*
X114555499Y-39232445D02*
G01*
X114592995Y-39243820D01*
X114627554Y-39262292D01*
X114657847Y-39287153D01*
X114682708Y-39317446D01*
X114701180Y-39352005D01*
X114712555Y-39389501D01*
X114717000Y-39434638D01*
X114717000Y-40073362D01*
X114712555Y-40118499D01*
X114701180Y-40155995D01*
X114682708Y-40190554D01*
X114657847Y-40220847D01*
X114627554Y-40245708D01*
X114592995Y-40264180D01*
X114555499Y-40275555D01*
X114510362Y-40280000D01*
X113771638Y-40280000D01*
X113726501Y-40275555D01*
X113689005Y-40264180D01*
X113654446Y-40245708D01*
X113624153Y-40220847D01*
X113599292Y-40190554D01*
X113580820Y-40155995D01*
X113569445Y-40118499D01*
X113565000Y-40073362D01*
X113565000Y-39434638D01*
X113569445Y-39389501D01*
X113580820Y-39352005D01*
X113599292Y-39317446D01*
X113624153Y-39287153D01*
X113654446Y-39262292D01*
X113689005Y-39243820D01*
X113726501Y-39232445D01*
X113771638Y-39228000D01*
X114510362Y-39228000D01*
X114555499Y-39232445D01*
X114555499Y-39232445D01*
G37*
G36*
X160614499Y-39105445D02*
G01*
X160651995Y-39116820D01*
X160686554Y-39135292D01*
X160716847Y-39160153D01*
X160741708Y-39190446D01*
X160760180Y-39225005D01*
X160771555Y-39262501D01*
X160776000Y-39307638D01*
X160776000Y-39946362D01*
X160771555Y-39991499D01*
X160760180Y-40028995D01*
X160741708Y-40063554D01*
X160716847Y-40093847D01*
X160686554Y-40118708D01*
X160651995Y-40137180D01*
X160614499Y-40148555D01*
X160569362Y-40153000D01*
X159830638Y-40153000D01*
X159785501Y-40148555D01*
X159748005Y-40137180D01*
X159713446Y-40118708D01*
X159683153Y-40093847D01*
X159658292Y-40063554D01*
X159639820Y-40028995D01*
X159628445Y-39991499D01*
X159624000Y-39946362D01*
X159624000Y-39307638D01*
X159628445Y-39262501D01*
X159639820Y-39225005D01*
X159658292Y-39190446D01*
X159683153Y-39160153D01*
X159713446Y-39135292D01*
X159748005Y-39116820D01*
X159785501Y-39105445D01*
X159830638Y-39101000D01*
X160569362Y-39101000D01*
X160614499Y-39105445D01*
X160614499Y-39105445D01*
G37*
G36*
X158864499Y-39105445D02*
G01*
X158901995Y-39116820D01*
X158936554Y-39135292D01*
X158966847Y-39160153D01*
X158991708Y-39190446D01*
X159010180Y-39225005D01*
X159021555Y-39262501D01*
X159026000Y-39307638D01*
X159026000Y-39946362D01*
X159021555Y-39991499D01*
X159010180Y-40028995D01*
X158991708Y-40063554D01*
X158966847Y-40093847D01*
X158936554Y-40118708D01*
X158901995Y-40137180D01*
X158864499Y-40148555D01*
X158819362Y-40153000D01*
X158080638Y-40153000D01*
X158035501Y-40148555D01*
X157998005Y-40137180D01*
X157963446Y-40118708D01*
X157933153Y-40093847D01*
X157908292Y-40063554D01*
X157889820Y-40028995D01*
X157878445Y-39991499D01*
X157874000Y-39946362D01*
X157874000Y-39307638D01*
X157878445Y-39262501D01*
X157889820Y-39225005D01*
X157908292Y-39190446D01*
X157933153Y-39160153D01*
X157963446Y-39135292D01*
X157998005Y-39116820D01*
X158035501Y-39105445D01*
X158080638Y-39101000D01*
X158819362Y-39101000D01*
X158864499Y-39105445D01*
X158864499Y-39105445D01*
G37*
G36*
X152464499Y-38660445D02*
G01*
X152501995Y-38671820D01*
X152536554Y-38690292D01*
X152566847Y-38715153D01*
X152591708Y-38745446D01*
X152610180Y-38780005D01*
X152621555Y-38817501D01*
X152626000Y-38862638D01*
X152626000Y-39601362D01*
X152621555Y-39646499D01*
X152610180Y-39683995D01*
X152591708Y-39718554D01*
X152566847Y-39748847D01*
X152536554Y-39773708D01*
X152501995Y-39792180D01*
X152464499Y-39803555D01*
X152419362Y-39808000D01*
X151780638Y-39808000D01*
X151735501Y-39803555D01*
X151698005Y-39792180D01*
X151663446Y-39773708D01*
X151633153Y-39748847D01*
X151608292Y-39718554D01*
X151589820Y-39683995D01*
X151578445Y-39646499D01*
X151574000Y-39601362D01*
X151574000Y-38862638D01*
X151578445Y-38817501D01*
X151589820Y-38780005D01*
X151608292Y-38745446D01*
X151633153Y-38715153D01*
X151663446Y-38690292D01*
X151698005Y-38671820D01*
X151735501Y-38660445D01*
X151780638Y-38656000D01*
X152419362Y-38656000D01*
X152464499Y-38660445D01*
X152464499Y-38660445D01*
G37*
G36*
X104125000Y-39331000D02*
G01*
X101523000Y-39331000D01*
X101523000Y-37799000D01*
X104125000Y-37799000D01*
X104125000Y-39331000D01*
X104125000Y-39331000D01*
G37*
G36*
X165015000Y-39123000D02*
G01*
X164013000Y-39123000D01*
X164013000Y-38221000D01*
X165015000Y-38221000D01*
X165015000Y-39123000D01*
X165015000Y-39123000D01*
G37*
G36*
X116305499Y-37708445D02*
G01*
X116342995Y-37719820D01*
X116377554Y-37738292D01*
X116407847Y-37763153D01*
X116432708Y-37793446D01*
X116451180Y-37828005D01*
X116462555Y-37865501D01*
X116467000Y-37910638D01*
X116467000Y-38549362D01*
X116462555Y-38594499D01*
X116451180Y-38631995D01*
X116432708Y-38666554D01*
X116407847Y-38696847D01*
X116377554Y-38721708D01*
X116342995Y-38740180D01*
X116305499Y-38751555D01*
X116260362Y-38756000D01*
X115521638Y-38756000D01*
X115476501Y-38751555D01*
X115439005Y-38740180D01*
X115404446Y-38721708D01*
X115374153Y-38696847D01*
X115349292Y-38666554D01*
X115330820Y-38631995D01*
X115319445Y-38594499D01*
X115315000Y-38549362D01*
X115315000Y-37910638D01*
X115319445Y-37865501D01*
X115330820Y-37828005D01*
X115349292Y-37793446D01*
X115374153Y-37763153D01*
X115404446Y-37738292D01*
X115439005Y-37719820D01*
X115476501Y-37708445D01*
X115521638Y-37704000D01*
X116260362Y-37704000D01*
X116305499Y-37708445D01*
X116305499Y-37708445D01*
G37*
G36*
X114555499Y-37708445D02*
G01*
X114592995Y-37719820D01*
X114627554Y-37738292D01*
X114657847Y-37763153D01*
X114682708Y-37793446D01*
X114701180Y-37828005D01*
X114712555Y-37865501D01*
X114717000Y-37910638D01*
X114717000Y-38549362D01*
X114712555Y-38594499D01*
X114701180Y-38631995D01*
X114682708Y-38666554D01*
X114657847Y-38696847D01*
X114627554Y-38721708D01*
X114592995Y-38740180D01*
X114555499Y-38751555D01*
X114510362Y-38756000D01*
X113771638Y-38756000D01*
X113726501Y-38751555D01*
X113689005Y-38740180D01*
X113654446Y-38721708D01*
X113624153Y-38696847D01*
X113599292Y-38666554D01*
X113580820Y-38631995D01*
X113569445Y-38594499D01*
X113565000Y-38549362D01*
X113565000Y-37910638D01*
X113569445Y-37865501D01*
X113580820Y-37828005D01*
X113599292Y-37793446D01*
X113624153Y-37763153D01*
X113654446Y-37738292D01*
X113689005Y-37719820D01*
X113726501Y-37708445D01*
X113771638Y-37704000D01*
X114510362Y-37704000D01*
X114555499Y-37708445D01*
X114555499Y-37708445D01*
G37*
G36*
X163015000Y-38173000D02*
G01*
X162013000Y-38173000D01*
X162013000Y-37271000D01*
X163015000Y-37271000D01*
X163015000Y-38173000D01*
X163015000Y-38173000D01*
G37*
G36*
X152464499Y-36910445D02*
G01*
X152501995Y-36921820D01*
X152536554Y-36940292D01*
X152566847Y-36965153D01*
X152591708Y-36995446D01*
X152610180Y-37030005D01*
X152621555Y-37067501D01*
X152626000Y-37112638D01*
X152626000Y-37851362D01*
X152621555Y-37896499D01*
X152610180Y-37933995D01*
X152591708Y-37968554D01*
X152566847Y-37998847D01*
X152536554Y-38023708D01*
X152501995Y-38042180D01*
X152464499Y-38053555D01*
X152419362Y-38058000D01*
X151780638Y-38058000D01*
X151735501Y-38053555D01*
X151698005Y-38042180D01*
X151663446Y-38023708D01*
X151633153Y-37998847D01*
X151608292Y-37968554D01*
X151589820Y-37933995D01*
X151578445Y-37896499D01*
X151574000Y-37851362D01*
X151574000Y-37112638D01*
X151578445Y-37067501D01*
X151589820Y-37030005D01*
X151608292Y-36995446D01*
X151633153Y-36965153D01*
X151663446Y-36940292D01*
X151698005Y-36921820D01*
X151735501Y-36910445D01*
X151780638Y-36906000D01*
X152419362Y-36906000D01*
X152464499Y-36910445D01*
X152464499Y-36910445D01*
G37*
G36*
X105252164Y-35564485D02*
G01*
X105275613Y-35571598D01*
X105299999Y-35574000D01*
X106895000Y-35574000D01*
X106895000Y-37069341D01*
X106895602Y-37081593D01*
X106897907Y-37105000D01*
X106895602Y-37128407D01*
X106895000Y-37140659D01*
X106895000Y-37676000D01*
X106500586Y-37676000D01*
X106476200Y-37678402D01*
X106464300Y-37681383D01*
X106411818Y-37697304D01*
X106323519Y-37706000D01*
X105864481Y-37706000D01*
X105776182Y-37697304D01*
X105723700Y-37681383D01*
X105699667Y-37676602D01*
X105687414Y-37676000D01*
X105293000Y-37676000D01*
X105293000Y-37625999D01*
X105290598Y-37601613D01*
X105283485Y-37578164D01*
X105271934Y-37556553D01*
X105256389Y-37537611D01*
X105237447Y-37522066D01*
X105215836Y-37510515D01*
X105192387Y-37503402D01*
X105168001Y-37501000D01*
X103461162Y-37501000D01*
X103436776Y-37503402D01*
X103424876Y-37506383D01*
X103411322Y-37510495D01*
X103304660Y-37521000D01*
X102883340Y-37521000D01*
X102847787Y-37517498D01*
X102776679Y-37510495D01*
X102639828Y-37468981D01*
X102639825Y-37468980D01*
X102513706Y-37401568D01*
X102403157Y-37310843D01*
X102312432Y-37200294D01*
X102245020Y-37074175D01*
X102229461Y-37022885D01*
X102203505Y-36937321D01*
X102189488Y-36795000D01*
X102203505Y-36652679D01*
X102245019Y-36515828D01*
X102245020Y-36515825D01*
X102312432Y-36389706D01*
X102403157Y-36279157D01*
X102513706Y-36188432D01*
X102639825Y-36121020D01*
X102639828Y-36121019D01*
X102776679Y-36079505D01*
X102860254Y-36071274D01*
X102884286Y-36066494D01*
X102906925Y-36057116D01*
X102919072Y-36049000D01*
X104248001Y-36049000D01*
X104272387Y-36046598D01*
X104295836Y-36039485D01*
X104317447Y-36027934D01*
X104336389Y-36012389D01*
X104351934Y-35993447D01*
X104363485Y-35971836D01*
X104370598Y-35948387D01*
X104373000Y-35924001D01*
X104373000Y-35561500D01*
X105246579Y-35561500D01*
X105252164Y-35564485D01*
X105252164Y-35564485D01*
G37*
G36*
X165015000Y-37223000D02*
G01*
X164013000Y-37223000D01*
X164013000Y-36321000D01*
X165015000Y-36321000D01*
X165015000Y-37223000D01*
X165015000Y-37223000D01*
G37*
G36*
X157798499Y-35245445D02*
G01*
X157835995Y-35256820D01*
X157870554Y-35275292D01*
X157900847Y-35300153D01*
X157925708Y-35330446D01*
X157944180Y-35365005D01*
X157955555Y-35402501D01*
X157960000Y-35447638D01*
X157960000Y-36186362D01*
X157955555Y-36231499D01*
X157944180Y-36268995D01*
X157925708Y-36303554D01*
X157900847Y-36333847D01*
X157870554Y-36358708D01*
X157835995Y-36377180D01*
X157798499Y-36388555D01*
X157753362Y-36393000D01*
X157114638Y-36393000D01*
X157069501Y-36388555D01*
X157032005Y-36377180D01*
X156997446Y-36358708D01*
X156967153Y-36333847D01*
X156942292Y-36303554D01*
X156923820Y-36268995D01*
X156912445Y-36231499D01*
X156908000Y-36186362D01*
X156908000Y-35447638D01*
X156912445Y-35402501D01*
X156923820Y-35365005D01*
X156942292Y-35330446D01*
X156967153Y-35300153D01*
X156997446Y-35275292D01*
X157032005Y-35256820D01*
X157069501Y-35245445D01*
X157114638Y-35241000D01*
X157753362Y-35241000D01*
X157798499Y-35245445D01*
X157798499Y-35245445D01*
G37*
G36*
X161354499Y-35245445D02*
G01*
X161391995Y-35256820D01*
X161426554Y-35275292D01*
X161456847Y-35300153D01*
X161481708Y-35330446D01*
X161500180Y-35365005D01*
X161511555Y-35402501D01*
X161516000Y-35447638D01*
X161516000Y-36186362D01*
X161511555Y-36231499D01*
X161500180Y-36268995D01*
X161481708Y-36303554D01*
X161456847Y-36333847D01*
X161426554Y-36358708D01*
X161391995Y-36377180D01*
X161354499Y-36388555D01*
X161309362Y-36393000D01*
X160670638Y-36393000D01*
X160625501Y-36388555D01*
X160588005Y-36377180D01*
X160553446Y-36358708D01*
X160523153Y-36333847D01*
X160498292Y-36303554D01*
X160479820Y-36268995D01*
X160468445Y-36231499D01*
X160464000Y-36186362D01*
X160464000Y-35447638D01*
X160468445Y-35402501D01*
X160479820Y-35365005D01*
X160498292Y-35330446D01*
X160523153Y-35300153D01*
X160553446Y-35275292D01*
X160588005Y-35256820D01*
X160625501Y-35245445D01*
X160670638Y-35241000D01*
X161309362Y-35241000D01*
X161354499Y-35245445D01*
X161354499Y-35245445D01*
G37*
G36*
X159830499Y-35245445D02*
G01*
X159867995Y-35256820D01*
X159902554Y-35275292D01*
X159932847Y-35300153D01*
X159957708Y-35330446D01*
X159976180Y-35365005D01*
X159987555Y-35402501D01*
X159992000Y-35447638D01*
X159992000Y-36186362D01*
X159987555Y-36231499D01*
X159976180Y-36268995D01*
X159957708Y-36303554D01*
X159932847Y-36333847D01*
X159902554Y-36358708D01*
X159867995Y-36377180D01*
X159830499Y-36388555D01*
X159785362Y-36393000D01*
X159146638Y-36393000D01*
X159101501Y-36388555D01*
X159064005Y-36377180D01*
X159029446Y-36358708D01*
X158999153Y-36333847D01*
X158974292Y-36303554D01*
X158955820Y-36268995D01*
X158944445Y-36231499D01*
X158940000Y-36186362D01*
X158940000Y-35447638D01*
X158944445Y-35402501D01*
X158955820Y-35365005D01*
X158974292Y-35330446D01*
X158999153Y-35300153D01*
X159029446Y-35275292D01*
X159064005Y-35256820D01*
X159101501Y-35245445D01*
X159146638Y-35241000D01*
X159785362Y-35241000D01*
X159830499Y-35245445D01*
X159830499Y-35245445D01*
G37*
G36*
X156274499Y-35245445D02*
G01*
X156311995Y-35256820D01*
X156346554Y-35275292D01*
X156376847Y-35300153D01*
X156401708Y-35330446D01*
X156420180Y-35365005D01*
X156431555Y-35402501D01*
X156436000Y-35447638D01*
X156436000Y-36186362D01*
X156431555Y-36231499D01*
X156420180Y-36268995D01*
X156401708Y-36303554D01*
X156376847Y-36333847D01*
X156346554Y-36358708D01*
X156311995Y-36377180D01*
X156274499Y-36388555D01*
X156229362Y-36393000D01*
X155590638Y-36393000D01*
X155545501Y-36388555D01*
X155508005Y-36377180D01*
X155473446Y-36358708D01*
X155443153Y-36333847D01*
X155418292Y-36303554D01*
X155399820Y-36268995D01*
X155388445Y-36231499D01*
X155384000Y-36186362D01*
X155384000Y-35447638D01*
X155388445Y-35402501D01*
X155399820Y-35365005D01*
X155418292Y-35330446D01*
X155443153Y-35300153D01*
X155473446Y-35275292D01*
X155508005Y-35256820D01*
X155545501Y-35245445D01*
X155590638Y-35241000D01*
X156229362Y-35241000D01*
X156274499Y-35245445D01*
X156274499Y-35245445D01*
G37*
G36*
X164847499Y-34406445D02*
G01*
X164884995Y-34417820D01*
X164919554Y-34436292D01*
X164949847Y-34461153D01*
X164974708Y-34491446D01*
X164993180Y-34526005D01*
X165004555Y-34563501D01*
X165009000Y-34608638D01*
X165009000Y-35247362D01*
X165004555Y-35292499D01*
X164993180Y-35329995D01*
X164974708Y-35364554D01*
X164949847Y-35394847D01*
X164919554Y-35419708D01*
X164884995Y-35438180D01*
X164847499Y-35449555D01*
X164802362Y-35454000D01*
X164063638Y-35454000D01*
X164018501Y-35449555D01*
X163981005Y-35438180D01*
X163946446Y-35419708D01*
X163916153Y-35394847D01*
X163891292Y-35364554D01*
X163872820Y-35329995D01*
X163861445Y-35292499D01*
X163857000Y-35247362D01*
X163857000Y-34608638D01*
X163861445Y-34563501D01*
X163872820Y-34526005D01*
X163891292Y-34491446D01*
X163916153Y-34461153D01*
X163946446Y-34436292D01*
X163981005Y-34417820D01*
X164018501Y-34406445D01*
X164063638Y-34402000D01*
X164802362Y-34402000D01*
X164847499Y-34406445D01*
X164847499Y-34406445D01*
G37*
G36*
X166597499Y-34406445D02*
G01*
X166634995Y-34417820D01*
X166669554Y-34436292D01*
X166699847Y-34461153D01*
X166724708Y-34491446D01*
X166743180Y-34526005D01*
X166754555Y-34563501D01*
X166759000Y-34608638D01*
X166759000Y-35247362D01*
X166754555Y-35292499D01*
X166743180Y-35329995D01*
X166724708Y-35364554D01*
X166699847Y-35394847D01*
X166669554Y-35419708D01*
X166634995Y-35438180D01*
X166597499Y-35449555D01*
X166552362Y-35454000D01*
X165813638Y-35454000D01*
X165768501Y-35449555D01*
X165731005Y-35438180D01*
X165696446Y-35419708D01*
X165666153Y-35394847D01*
X165641292Y-35364554D01*
X165622820Y-35329995D01*
X165611445Y-35292499D01*
X165607000Y-35247362D01*
X165607000Y-34608638D01*
X165611445Y-34563501D01*
X165622820Y-34526005D01*
X165641292Y-34491446D01*
X165666153Y-34461153D01*
X165696446Y-34436292D01*
X165731005Y-34417820D01*
X165768501Y-34406445D01*
X165813638Y-34402000D01*
X166552362Y-34402000D01*
X166597499Y-34406445D01*
X166597499Y-34406445D01*
G37*
G36*
X123007681Y-33779654D02*
G01*
X123079890Y-33794017D01*
X123198364Y-33843091D01*
X123304988Y-33914335D01*
X123395665Y-34005012D01*
X123466910Y-34111638D01*
X123515983Y-34230111D01*
X123517403Y-34237249D01*
X123524516Y-34260698D01*
X123536067Y-34282309D01*
X123551612Y-34301251D01*
X123570554Y-34316797D01*
X123592164Y-34328348D01*
X123615613Y-34335461D01*
X123639999Y-34337863D01*
X123664385Y-34335461D01*
X123687834Y-34328348D01*
X123709445Y-34316797D01*
X123728387Y-34301252D01*
X123743933Y-34282310D01*
X123755484Y-34260700D01*
X123762597Y-34237249D01*
X123764017Y-34230111D01*
X123813090Y-34111638D01*
X123884335Y-34005012D01*
X123975012Y-33914335D01*
X124081636Y-33843091D01*
X124200110Y-33794017D01*
X124272319Y-33779654D01*
X124325881Y-33769000D01*
X124454119Y-33769000D01*
X124507681Y-33779654D01*
X124579890Y-33794017D01*
X124698364Y-33843091D01*
X124804988Y-33914335D01*
X124895665Y-34005012D01*
X124966910Y-34111638D01*
X125015983Y-34230111D01*
X125017403Y-34237249D01*
X125024516Y-34260698D01*
X125036067Y-34282309D01*
X125051612Y-34301251D01*
X125070554Y-34316797D01*
X125092164Y-34328348D01*
X125115613Y-34335461D01*
X125139999Y-34337863D01*
X125164385Y-34335461D01*
X125187834Y-34328348D01*
X125209445Y-34316797D01*
X125228387Y-34301252D01*
X125243933Y-34282310D01*
X125255484Y-34260700D01*
X125262597Y-34237249D01*
X125264017Y-34230111D01*
X125313090Y-34111638D01*
X125384335Y-34005012D01*
X125475012Y-33914335D01*
X125581636Y-33843091D01*
X125700110Y-33794017D01*
X125772319Y-33779654D01*
X125825881Y-33769000D01*
X125954119Y-33769000D01*
X126007681Y-33779654D01*
X126079890Y-33794017D01*
X126198364Y-33843091D01*
X126304988Y-33914335D01*
X126395665Y-34005012D01*
X126466910Y-34111638D01*
X126515983Y-34230111D01*
X126517403Y-34237249D01*
X126524516Y-34260698D01*
X126536067Y-34282309D01*
X126551612Y-34301251D01*
X126570554Y-34316797D01*
X126592164Y-34328348D01*
X126615613Y-34335461D01*
X126639999Y-34337863D01*
X126664385Y-34335461D01*
X126687834Y-34328348D01*
X126709445Y-34316797D01*
X126728387Y-34301252D01*
X126743933Y-34282310D01*
X126755484Y-34260700D01*
X126762597Y-34237249D01*
X126764017Y-34230111D01*
X126813090Y-34111638D01*
X126884335Y-34005012D01*
X126975012Y-33914335D01*
X127081636Y-33843091D01*
X127200110Y-33794017D01*
X127272319Y-33779654D01*
X127325881Y-33769000D01*
X127454119Y-33769000D01*
X127507681Y-33779654D01*
X127579890Y-33794017D01*
X127698364Y-33843091D01*
X127804988Y-33914335D01*
X127895665Y-34005012D01*
X127966910Y-34111638D01*
X128015983Y-34230111D01*
X128017403Y-34237249D01*
X128024516Y-34260698D01*
X128036067Y-34282309D01*
X128051612Y-34301251D01*
X128070554Y-34316797D01*
X128092164Y-34328348D01*
X128115613Y-34335461D01*
X128139999Y-34337863D01*
X128164385Y-34335461D01*
X128187834Y-34328348D01*
X128209445Y-34316797D01*
X128228387Y-34301252D01*
X128243933Y-34282310D01*
X128255484Y-34260700D01*
X128262597Y-34237249D01*
X128264017Y-34230111D01*
X128313090Y-34111638D01*
X128384335Y-34005012D01*
X128475012Y-33914335D01*
X128581636Y-33843091D01*
X128700110Y-33794017D01*
X128772319Y-33779654D01*
X128825881Y-33769000D01*
X128954119Y-33769000D01*
X129007681Y-33779654D01*
X129079890Y-33794017D01*
X129198364Y-33843091D01*
X129304988Y-33914335D01*
X129395665Y-34005012D01*
X129466910Y-34111638D01*
X129515983Y-34230111D01*
X129517403Y-34237249D01*
X129524516Y-34260698D01*
X129536067Y-34282309D01*
X129551612Y-34301251D01*
X129570554Y-34316797D01*
X129592164Y-34328348D01*
X129615613Y-34335461D01*
X129639999Y-34337863D01*
X129664385Y-34335461D01*
X129687834Y-34328348D01*
X129709445Y-34316797D01*
X129728387Y-34301252D01*
X129743933Y-34282310D01*
X129755484Y-34260700D01*
X129762597Y-34237249D01*
X129764017Y-34230111D01*
X129813090Y-34111638D01*
X129884335Y-34005012D01*
X129975012Y-33914335D01*
X130081636Y-33843091D01*
X130200110Y-33794017D01*
X130272319Y-33779654D01*
X130325881Y-33769000D01*
X130454119Y-33769000D01*
X130507681Y-33779654D01*
X130579890Y-33794017D01*
X130698364Y-33843091D01*
X130804988Y-33914335D01*
X130895665Y-34005012D01*
X130966910Y-34111638D01*
X131015983Y-34230111D01*
X131017403Y-34237249D01*
X131024516Y-34260698D01*
X131036067Y-34282309D01*
X131051612Y-34301251D01*
X131070554Y-34316797D01*
X131092164Y-34328348D01*
X131115613Y-34335461D01*
X131139999Y-34337863D01*
X131164385Y-34335461D01*
X131187834Y-34328348D01*
X131209445Y-34316797D01*
X131228387Y-34301252D01*
X131243933Y-34282310D01*
X131255484Y-34260700D01*
X131262597Y-34237249D01*
X131264017Y-34230111D01*
X131313090Y-34111638D01*
X131384335Y-34005012D01*
X131475012Y-33914335D01*
X131581636Y-33843091D01*
X131700110Y-33794017D01*
X131772319Y-33779654D01*
X131825881Y-33769000D01*
X131954119Y-33769000D01*
X132007681Y-33779654D01*
X132079890Y-33794017D01*
X132198364Y-33843091D01*
X132304988Y-33914335D01*
X132395665Y-34005012D01*
X132466910Y-34111638D01*
X132515983Y-34230111D01*
X132517403Y-34237249D01*
X132524516Y-34260698D01*
X132536067Y-34282309D01*
X132551612Y-34301251D01*
X132570554Y-34316797D01*
X132592164Y-34328348D01*
X132615613Y-34335461D01*
X132639999Y-34337863D01*
X132664385Y-34335461D01*
X132687834Y-34328348D01*
X132709445Y-34316797D01*
X132728387Y-34301252D01*
X132743933Y-34282310D01*
X132755484Y-34260700D01*
X132762597Y-34237249D01*
X132764017Y-34230111D01*
X132813090Y-34111638D01*
X132884335Y-34005012D01*
X132975012Y-33914335D01*
X133081636Y-33843091D01*
X133200110Y-33794017D01*
X133272319Y-33779654D01*
X133325881Y-33769000D01*
X133454119Y-33769000D01*
X133507681Y-33779654D01*
X133579890Y-33794017D01*
X133698364Y-33843091D01*
X133804988Y-33914335D01*
X133895665Y-34005012D01*
X133966910Y-34111638D01*
X134015983Y-34230111D01*
X134017403Y-34237249D01*
X134024516Y-34260698D01*
X134036067Y-34282309D01*
X134051612Y-34301251D01*
X134070554Y-34316797D01*
X134092164Y-34328348D01*
X134115613Y-34335461D01*
X134139999Y-34337863D01*
X134164385Y-34335461D01*
X134187834Y-34328348D01*
X134209445Y-34316797D01*
X134228387Y-34301252D01*
X134243933Y-34282310D01*
X134255484Y-34260700D01*
X134262597Y-34237249D01*
X134264017Y-34230111D01*
X134313090Y-34111638D01*
X134384335Y-34005012D01*
X134475012Y-33914335D01*
X134581636Y-33843091D01*
X134700110Y-33794017D01*
X134772319Y-33779654D01*
X134825881Y-33769000D01*
X134954119Y-33769000D01*
X135007681Y-33779654D01*
X135079890Y-33794017D01*
X135198364Y-33843091D01*
X135304988Y-33914335D01*
X135395665Y-34005012D01*
X135466910Y-34111638D01*
X135515983Y-34230111D01*
X135517403Y-34237249D01*
X135524516Y-34260698D01*
X135536067Y-34282309D01*
X135551612Y-34301251D01*
X135570554Y-34316797D01*
X135592164Y-34328348D01*
X135615613Y-34335461D01*
X135639999Y-34337863D01*
X135664385Y-34335461D01*
X135687834Y-34328348D01*
X135709445Y-34316797D01*
X135728387Y-34301252D01*
X135743933Y-34282310D01*
X135755484Y-34260700D01*
X135762597Y-34237249D01*
X135764017Y-34230111D01*
X135813090Y-34111638D01*
X135884335Y-34005012D01*
X135975012Y-33914335D01*
X136081636Y-33843091D01*
X136200110Y-33794017D01*
X136272319Y-33779654D01*
X136325881Y-33769000D01*
X136454119Y-33769000D01*
X136507681Y-33779654D01*
X136579890Y-33794017D01*
X136698364Y-33843091D01*
X136804988Y-33914335D01*
X136895665Y-34005012D01*
X136966910Y-34111638D01*
X137015983Y-34230111D01*
X137017403Y-34237249D01*
X137024516Y-34260698D01*
X137036067Y-34282309D01*
X137051612Y-34301251D01*
X137070554Y-34316797D01*
X137092164Y-34328348D01*
X137115613Y-34335461D01*
X137139999Y-34337863D01*
X137164385Y-34335461D01*
X137187834Y-34328348D01*
X137209445Y-34316797D01*
X137228387Y-34301252D01*
X137243933Y-34282310D01*
X137255484Y-34260700D01*
X137262597Y-34237249D01*
X137264017Y-34230111D01*
X137313090Y-34111638D01*
X137384335Y-34005012D01*
X137475012Y-33914335D01*
X137581636Y-33843091D01*
X137700110Y-33794017D01*
X137772319Y-33779654D01*
X137825881Y-33769000D01*
X137954119Y-33769000D01*
X138007681Y-33779654D01*
X138079890Y-33794017D01*
X138198364Y-33843091D01*
X138304988Y-33914335D01*
X138395665Y-34005012D01*
X138466910Y-34111638D01*
X138515983Y-34230111D01*
X138517403Y-34237249D01*
X138524516Y-34260698D01*
X138536067Y-34282309D01*
X138551612Y-34301251D01*
X138570554Y-34316797D01*
X138592164Y-34328348D01*
X138615613Y-34335461D01*
X138639999Y-34337863D01*
X138664385Y-34335461D01*
X138687834Y-34328348D01*
X138709445Y-34316797D01*
X138728387Y-34301252D01*
X138743933Y-34282310D01*
X138755484Y-34260700D01*
X138762597Y-34237249D01*
X138764017Y-34230111D01*
X138813090Y-34111638D01*
X138884335Y-34005012D01*
X138975012Y-33914335D01*
X139081636Y-33843091D01*
X139200110Y-33794017D01*
X139272319Y-33779654D01*
X139325881Y-33769000D01*
X139454119Y-33769000D01*
X139507681Y-33779654D01*
X139579890Y-33794017D01*
X139698364Y-33843091D01*
X139804988Y-33914335D01*
X139895665Y-34005012D01*
X139966910Y-34111638D01*
X140015983Y-34230111D01*
X140017403Y-34237249D01*
X140024516Y-34260698D01*
X140036067Y-34282309D01*
X140051612Y-34301251D01*
X140070554Y-34316797D01*
X140092164Y-34328348D01*
X140115613Y-34335461D01*
X140139999Y-34337863D01*
X140164385Y-34335461D01*
X140187834Y-34328348D01*
X140209445Y-34316797D01*
X140228387Y-34301252D01*
X140243933Y-34282310D01*
X140255484Y-34260700D01*
X140262597Y-34237249D01*
X140264017Y-34230111D01*
X140313090Y-34111638D01*
X140384335Y-34005012D01*
X140475012Y-33914335D01*
X140581636Y-33843091D01*
X140700110Y-33794017D01*
X140772319Y-33779654D01*
X140825881Y-33769000D01*
X140954119Y-33769000D01*
X141007681Y-33779654D01*
X141079890Y-33794017D01*
X141198364Y-33843091D01*
X141304988Y-33914335D01*
X141395665Y-34005012D01*
X141466910Y-34111638D01*
X141515983Y-34230111D01*
X141517403Y-34237249D01*
X141524516Y-34260698D01*
X141536067Y-34282309D01*
X141551612Y-34301251D01*
X141570554Y-34316797D01*
X141592164Y-34328348D01*
X141615613Y-34335461D01*
X141639999Y-34337863D01*
X141664385Y-34335461D01*
X141687834Y-34328348D01*
X141709445Y-34316797D01*
X141728387Y-34301252D01*
X141743933Y-34282310D01*
X141755484Y-34260700D01*
X141762597Y-34237249D01*
X141764017Y-34230111D01*
X141813090Y-34111638D01*
X141884335Y-34005012D01*
X141975012Y-33914335D01*
X142081636Y-33843091D01*
X142200110Y-33794017D01*
X142272319Y-33779654D01*
X142325881Y-33769000D01*
X142454119Y-33769000D01*
X142507681Y-33779654D01*
X142579890Y-33794017D01*
X142698364Y-33843091D01*
X142804988Y-33914335D01*
X142895665Y-34005012D01*
X142966910Y-34111638D01*
X143015983Y-34230111D01*
X143017403Y-34237249D01*
X143024516Y-34260698D01*
X143036067Y-34282309D01*
X143051612Y-34301251D01*
X143070554Y-34316797D01*
X143092164Y-34328348D01*
X143115613Y-34335461D01*
X143139999Y-34337863D01*
X143164385Y-34335461D01*
X143187834Y-34328348D01*
X143209445Y-34316797D01*
X143228387Y-34301252D01*
X143243933Y-34282310D01*
X143255484Y-34260700D01*
X143262597Y-34237249D01*
X143264017Y-34230111D01*
X143313090Y-34111638D01*
X143384335Y-34005012D01*
X143475012Y-33914335D01*
X143581636Y-33843091D01*
X143700110Y-33794017D01*
X143772319Y-33779654D01*
X143825881Y-33769000D01*
X143954119Y-33769000D01*
X144007681Y-33779654D01*
X144079890Y-33794017D01*
X144198364Y-33843091D01*
X144304988Y-33914335D01*
X144395665Y-34005012D01*
X144466910Y-34111638D01*
X144515983Y-34230111D01*
X144517403Y-34237249D01*
X144524516Y-34260698D01*
X144536067Y-34282309D01*
X144551612Y-34301251D01*
X144570554Y-34316797D01*
X144592164Y-34328348D01*
X144615613Y-34335461D01*
X144639999Y-34337863D01*
X144664385Y-34335461D01*
X144687834Y-34328348D01*
X144709445Y-34316797D01*
X144728387Y-34301252D01*
X144743933Y-34282310D01*
X144755484Y-34260700D01*
X144762597Y-34237249D01*
X144764017Y-34230111D01*
X144813090Y-34111638D01*
X144884335Y-34005012D01*
X144975012Y-33914335D01*
X145081636Y-33843091D01*
X145200110Y-33794017D01*
X145272319Y-33779654D01*
X145325881Y-33769000D01*
X145454119Y-33769000D01*
X145507681Y-33779654D01*
X145579890Y-33794017D01*
X145698364Y-33843091D01*
X145804988Y-33914335D01*
X145895665Y-34005012D01*
X145966910Y-34111638D01*
X146015983Y-34230111D01*
X146017403Y-34237249D01*
X146024516Y-34260698D01*
X146036067Y-34282309D01*
X146051612Y-34301251D01*
X146070554Y-34316797D01*
X146092164Y-34328348D01*
X146115613Y-34335461D01*
X146139999Y-34337863D01*
X146164385Y-34335461D01*
X146187834Y-34328348D01*
X146209445Y-34316797D01*
X146228387Y-34301252D01*
X146243933Y-34282310D01*
X146255484Y-34260700D01*
X146262597Y-34237249D01*
X146264017Y-34230111D01*
X146313090Y-34111638D01*
X146384335Y-34005012D01*
X146475012Y-33914335D01*
X146581636Y-33843091D01*
X146700110Y-33794017D01*
X146772319Y-33779654D01*
X146825881Y-33769000D01*
X146954119Y-33769000D01*
X147007681Y-33779654D01*
X147079890Y-33794017D01*
X147198364Y-33843091D01*
X147304988Y-33914335D01*
X147395665Y-34005012D01*
X147466910Y-34111638D01*
X147515983Y-34230110D01*
X147541000Y-34355881D01*
X147541000Y-34484119D01*
X147515983Y-34609890D01*
X147493156Y-34665000D01*
X147466909Y-34728364D01*
X147395665Y-34834988D01*
X147304988Y-34925665D01*
X147198364Y-34996909D01*
X147198363Y-34996910D01*
X147198362Y-34996910D01*
X147079890Y-35045983D01*
X146954119Y-35071000D01*
X146825881Y-35071000D01*
X146700110Y-35045983D01*
X146581638Y-34996910D01*
X146581637Y-34996910D01*
X146581636Y-34996909D01*
X146475012Y-34925665D01*
X146384335Y-34834988D01*
X146313091Y-34728364D01*
X146264017Y-34609890D01*
X146262597Y-34602751D01*
X146255484Y-34579302D01*
X146243933Y-34557691D01*
X146228388Y-34538749D01*
X146209446Y-34523203D01*
X146187836Y-34511652D01*
X146164387Y-34504539D01*
X146140001Y-34502137D01*
X146115615Y-34504539D01*
X146092166Y-34511652D01*
X146070555Y-34523203D01*
X146051613Y-34538748D01*
X146036067Y-34557690D01*
X146024516Y-34579300D01*
X146017403Y-34602751D01*
X146015983Y-34609890D01*
X145966909Y-34728364D01*
X145895665Y-34834988D01*
X145804988Y-34925665D01*
X145698364Y-34996909D01*
X145698363Y-34996910D01*
X145698362Y-34996910D01*
X145579890Y-35045983D01*
X145454119Y-35071000D01*
X145325881Y-35071000D01*
X145200110Y-35045983D01*
X145081638Y-34996910D01*
X145081637Y-34996910D01*
X145081636Y-34996909D01*
X144975012Y-34925665D01*
X144884335Y-34834988D01*
X144813091Y-34728364D01*
X144764017Y-34609890D01*
X144762597Y-34602751D01*
X144755484Y-34579302D01*
X144743933Y-34557691D01*
X144728388Y-34538749D01*
X144709446Y-34523203D01*
X144687836Y-34511652D01*
X144664387Y-34504539D01*
X144640001Y-34502137D01*
X144615615Y-34504539D01*
X144592166Y-34511652D01*
X144570555Y-34523203D01*
X144551613Y-34538748D01*
X144536067Y-34557690D01*
X144524516Y-34579300D01*
X144517403Y-34602751D01*
X144515983Y-34609890D01*
X144466909Y-34728364D01*
X144395665Y-34834988D01*
X144304988Y-34925665D01*
X144198364Y-34996909D01*
X144198363Y-34996910D01*
X144198362Y-34996910D01*
X144079890Y-35045983D01*
X143954119Y-35071000D01*
X143825881Y-35071000D01*
X143700110Y-35045983D01*
X143581638Y-34996910D01*
X143581637Y-34996910D01*
X143581636Y-34996909D01*
X143475012Y-34925665D01*
X143384335Y-34834988D01*
X143313091Y-34728364D01*
X143264017Y-34609890D01*
X143262597Y-34602751D01*
X143255484Y-34579302D01*
X143243933Y-34557691D01*
X143228388Y-34538749D01*
X143209446Y-34523203D01*
X143187836Y-34511652D01*
X143164387Y-34504539D01*
X143140001Y-34502137D01*
X143115615Y-34504539D01*
X143092166Y-34511652D01*
X143070555Y-34523203D01*
X143051613Y-34538748D01*
X143036067Y-34557690D01*
X143024516Y-34579300D01*
X143017403Y-34602751D01*
X143015983Y-34609890D01*
X142966909Y-34728364D01*
X142895665Y-34834988D01*
X142804988Y-34925665D01*
X142698364Y-34996909D01*
X142698363Y-34996910D01*
X142698362Y-34996910D01*
X142579890Y-35045983D01*
X142454119Y-35071000D01*
X142325881Y-35071000D01*
X142200110Y-35045983D01*
X142081638Y-34996910D01*
X142081637Y-34996910D01*
X142081636Y-34996909D01*
X141975012Y-34925665D01*
X141884335Y-34834988D01*
X141813091Y-34728364D01*
X141764017Y-34609890D01*
X141762597Y-34602751D01*
X141755484Y-34579302D01*
X141743933Y-34557691D01*
X141728388Y-34538749D01*
X141709446Y-34523203D01*
X141687836Y-34511652D01*
X141664387Y-34504539D01*
X141640001Y-34502137D01*
X141615615Y-34504539D01*
X141592166Y-34511652D01*
X141570555Y-34523203D01*
X141551613Y-34538748D01*
X141536067Y-34557690D01*
X141524516Y-34579300D01*
X141517403Y-34602751D01*
X141515983Y-34609890D01*
X141466909Y-34728364D01*
X141395665Y-34834988D01*
X141304988Y-34925665D01*
X141198364Y-34996909D01*
X141198363Y-34996910D01*
X141198362Y-34996910D01*
X141079890Y-35045983D01*
X140954119Y-35071000D01*
X140825881Y-35071000D01*
X140700110Y-35045983D01*
X140581638Y-34996910D01*
X140581637Y-34996910D01*
X140581636Y-34996909D01*
X140475012Y-34925665D01*
X140384335Y-34834988D01*
X140313091Y-34728364D01*
X140264017Y-34609890D01*
X140262597Y-34602751D01*
X140255484Y-34579302D01*
X140243933Y-34557691D01*
X140228388Y-34538749D01*
X140209446Y-34523203D01*
X140187836Y-34511652D01*
X140164387Y-34504539D01*
X140140001Y-34502137D01*
X140115615Y-34504539D01*
X140092166Y-34511652D01*
X140070555Y-34523203D01*
X140051613Y-34538748D01*
X140036067Y-34557690D01*
X140024516Y-34579300D01*
X140017403Y-34602751D01*
X140015983Y-34609890D01*
X139966909Y-34728364D01*
X139895665Y-34834988D01*
X139804988Y-34925665D01*
X139698364Y-34996909D01*
X139698363Y-34996910D01*
X139698362Y-34996910D01*
X139579890Y-35045983D01*
X139454119Y-35071000D01*
X139325881Y-35071000D01*
X139200110Y-35045983D01*
X139081638Y-34996910D01*
X139081637Y-34996910D01*
X139081636Y-34996909D01*
X138975012Y-34925665D01*
X138884335Y-34834988D01*
X138813091Y-34728364D01*
X138764017Y-34609890D01*
X138762597Y-34602751D01*
X138755484Y-34579302D01*
X138743933Y-34557691D01*
X138728388Y-34538749D01*
X138709446Y-34523203D01*
X138687836Y-34511652D01*
X138664387Y-34504539D01*
X138640001Y-34502137D01*
X138615615Y-34504539D01*
X138592166Y-34511652D01*
X138570555Y-34523203D01*
X138551613Y-34538748D01*
X138536067Y-34557690D01*
X138524516Y-34579300D01*
X138517403Y-34602751D01*
X138515983Y-34609890D01*
X138466909Y-34728364D01*
X138395665Y-34834988D01*
X138304988Y-34925665D01*
X138198364Y-34996909D01*
X138198363Y-34996910D01*
X138198362Y-34996910D01*
X138079890Y-35045983D01*
X137954119Y-35071000D01*
X137825881Y-35071000D01*
X137700110Y-35045983D01*
X137581638Y-34996910D01*
X137581637Y-34996910D01*
X137581636Y-34996909D01*
X137475012Y-34925665D01*
X137384335Y-34834988D01*
X137313091Y-34728364D01*
X137264017Y-34609890D01*
X137262597Y-34602751D01*
X137255484Y-34579302D01*
X137243933Y-34557691D01*
X137228388Y-34538749D01*
X137209446Y-34523203D01*
X137187836Y-34511652D01*
X137164387Y-34504539D01*
X137140001Y-34502137D01*
X137115615Y-34504539D01*
X137092166Y-34511652D01*
X137070555Y-34523203D01*
X137051613Y-34538748D01*
X137036067Y-34557690D01*
X137024516Y-34579300D01*
X137017403Y-34602751D01*
X137015983Y-34609890D01*
X136966909Y-34728364D01*
X136895665Y-34834988D01*
X136804988Y-34925665D01*
X136698364Y-34996909D01*
X136698363Y-34996910D01*
X136698362Y-34996910D01*
X136579890Y-35045983D01*
X136454119Y-35071000D01*
X136325881Y-35071000D01*
X136200110Y-35045983D01*
X136081638Y-34996910D01*
X136081637Y-34996910D01*
X136081636Y-34996909D01*
X135975012Y-34925665D01*
X135884335Y-34834988D01*
X135813091Y-34728364D01*
X135764017Y-34609890D01*
X135762597Y-34602751D01*
X135755484Y-34579302D01*
X135743933Y-34557691D01*
X135728388Y-34538749D01*
X135709446Y-34523203D01*
X135687836Y-34511652D01*
X135664387Y-34504539D01*
X135640001Y-34502137D01*
X135615615Y-34504539D01*
X135592166Y-34511652D01*
X135570555Y-34523203D01*
X135551613Y-34538748D01*
X135536067Y-34557690D01*
X135524516Y-34579300D01*
X135517403Y-34602751D01*
X135515983Y-34609890D01*
X135466909Y-34728364D01*
X135395665Y-34834988D01*
X135304988Y-34925665D01*
X135198364Y-34996909D01*
X135198363Y-34996910D01*
X135198362Y-34996910D01*
X135079890Y-35045983D01*
X134954119Y-35071000D01*
X134825881Y-35071000D01*
X134700110Y-35045983D01*
X134581638Y-34996910D01*
X134581637Y-34996910D01*
X134581636Y-34996909D01*
X134475012Y-34925665D01*
X134384335Y-34834988D01*
X134313091Y-34728364D01*
X134264017Y-34609890D01*
X134262597Y-34602751D01*
X134255484Y-34579302D01*
X134243933Y-34557691D01*
X134228388Y-34538749D01*
X134209446Y-34523203D01*
X134187836Y-34511652D01*
X134164387Y-34504539D01*
X134140001Y-34502137D01*
X134115615Y-34504539D01*
X134092166Y-34511652D01*
X134070555Y-34523203D01*
X134051613Y-34538748D01*
X134036067Y-34557690D01*
X134024516Y-34579300D01*
X134017403Y-34602751D01*
X134015983Y-34609890D01*
X133966909Y-34728364D01*
X133895665Y-34834988D01*
X133804988Y-34925665D01*
X133698364Y-34996909D01*
X133698363Y-34996910D01*
X133698362Y-34996910D01*
X133579890Y-35045983D01*
X133454119Y-35071000D01*
X133325881Y-35071000D01*
X133200110Y-35045983D01*
X133081638Y-34996910D01*
X133081637Y-34996910D01*
X133081636Y-34996909D01*
X132975012Y-34925665D01*
X132884335Y-34834988D01*
X132813091Y-34728364D01*
X132764017Y-34609890D01*
X132762597Y-34602751D01*
X132755484Y-34579302D01*
X132743933Y-34557691D01*
X132728388Y-34538749D01*
X132709446Y-34523203D01*
X132687836Y-34511652D01*
X132664387Y-34504539D01*
X132640001Y-34502137D01*
X132615615Y-34504539D01*
X132592166Y-34511652D01*
X132570555Y-34523203D01*
X132551613Y-34538748D01*
X132536067Y-34557690D01*
X132524516Y-34579300D01*
X132517403Y-34602751D01*
X132515983Y-34609890D01*
X132466909Y-34728364D01*
X132395665Y-34834988D01*
X132304988Y-34925665D01*
X132198364Y-34996909D01*
X132198363Y-34996910D01*
X132198362Y-34996910D01*
X132079890Y-35045983D01*
X131954119Y-35071000D01*
X131825881Y-35071000D01*
X131700110Y-35045983D01*
X131581638Y-34996910D01*
X131581637Y-34996910D01*
X131581636Y-34996909D01*
X131475012Y-34925665D01*
X131384335Y-34834988D01*
X131313091Y-34728364D01*
X131264017Y-34609890D01*
X131262597Y-34602751D01*
X131255484Y-34579302D01*
X131243933Y-34557691D01*
X131228388Y-34538749D01*
X131209446Y-34523203D01*
X131187836Y-34511652D01*
X131164387Y-34504539D01*
X131140001Y-34502137D01*
X131115615Y-34504539D01*
X131092166Y-34511652D01*
X131070555Y-34523203D01*
X131051613Y-34538748D01*
X131036067Y-34557690D01*
X131024516Y-34579300D01*
X131017403Y-34602751D01*
X131015983Y-34609890D01*
X130966909Y-34728364D01*
X130895665Y-34834988D01*
X130804988Y-34925665D01*
X130698364Y-34996909D01*
X130698363Y-34996910D01*
X130698362Y-34996910D01*
X130579890Y-35045983D01*
X130454119Y-35071000D01*
X130325881Y-35071000D01*
X130200110Y-35045983D01*
X130081638Y-34996910D01*
X130081637Y-34996910D01*
X130081636Y-34996909D01*
X129975012Y-34925665D01*
X129884335Y-34834988D01*
X129813091Y-34728364D01*
X129764017Y-34609890D01*
X129762597Y-34602751D01*
X129755484Y-34579302D01*
X129743933Y-34557691D01*
X129728388Y-34538749D01*
X129709446Y-34523203D01*
X129687836Y-34511652D01*
X129664387Y-34504539D01*
X129640001Y-34502137D01*
X129615615Y-34504539D01*
X129592166Y-34511652D01*
X129570555Y-34523203D01*
X129551613Y-34538748D01*
X129536067Y-34557690D01*
X129524516Y-34579300D01*
X129517403Y-34602751D01*
X129515983Y-34609890D01*
X129466909Y-34728364D01*
X129395665Y-34834988D01*
X129304988Y-34925665D01*
X129198364Y-34996909D01*
X129198363Y-34996910D01*
X129198362Y-34996910D01*
X129079890Y-35045983D01*
X128954119Y-35071000D01*
X128825881Y-35071000D01*
X128700110Y-35045983D01*
X128581638Y-34996910D01*
X128581637Y-34996910D01*
X128581636Y-34996909D01*
X128475012Y-34925665D01*
X128384335Y-34834988D01*
X128313091Y-34728364D01*
X128264017Y-34609890D01*
X128262597Y-34602751D01*
X128255484Y-34579302D01*
X128243933Y-34557691D01*
X128228388Y-34538749D01*
X128209446Y-34523203D01*
X128187836Y-34511652D01*
X128164387Y-34504539D01*
X128140001Y-34502137D01*
X128115615Y-34504539D01*
X128092166Y-34511652D01*
X128070555Y-34523203D01*
X128051613Y-34538748D01*
X128036067Y-34557690D01*
X128024516Y-34579300D01*
X128017403Y-34602751D01*
X128015983Y-34609890D01*
X127966909Y-34728364D01*
X127895665Y-34834988D01*
X127804988Y-34925665D01*
X127698364Y-34996909D01*
X127698363Y-34996910D01*
X127698362Y-34996910D01*
X127579890Y-35045983D01*
X127454119Y-35071000D01*
X127325881Y-35071000D01*
X127200110Y-35045983D01*
X127081638Y-34996910D01*
X127081637Y-34996910D01*
X127081636Y-34996909D01*
X126975012Y-34925665D01*
X126884335Y-34834988D01*
X126813091Y-34728364D01*
X126764017Y-34609890D01*
X126762597Y-34602751D01*
X126755484Y-34579302D01*
X126743933Y-34557691D01*
X126728388Y-34538749D01*
X126709446Y-34523203D01*
X126687836Y-34511652D01*
X126664387Y-34504539D01*
X126640001Y-34502137D01*
X126615615Y-34504539D01*
X126592166Y-34511652D01*
X126570555Y-34523203D01*
X126551613Y-34538748D01*
X126536067Y-34557690D01*
X126524516Y-34579300D01*
X126517403Y-34602751D01*
X126515983Y-34609890D01*
X126466909Y-34728364D01*
X126395665Y-34834988D01*
X126304988Y-34925665D01*
X126198364Y-34996909D01*
X126198363Y-34996910D01*
X126198362Y-34996910D01*
X126079890Y-35045983D01*
X125954119Y-35071000D01*
X125825881Y-35071000D01*
X125700110Y-35045983D01*
X125581638Y-34996910D01*
X125581637Y-34996910D01*
X125581636Y-34996909D01*
X125475012Y-34925665D01*
X125384335Y-34834988D01*
X125313091Y-34728364D01*
X125264017Y-34609890D01*
X125262597Y-34602751D01*
X125255484Y-34579302D01*
X125243933Y-34557691D01*
X125228388Y-34538749D01*
X125209446Y-34523203D01*
X125187836Y-34511652D01*
X125164387Y-34504539D01*
X125140001Y-34502137D01*
X125115615Y-34504539D01*
X125092166Y-34511652D01*
X125070555Y-34523203D01*
X125051613Y-34538748D01*
X125036067Y-34557690D01*
X125024516Y-34579300D01*
X125017403Y-34602751D01*
X125015983Y-34609890D01*
X124966909Y-34728364D01*
X124895665Y-34834988D01*
X124804988Y-34925665D01*
X124698364Y-34996909D01*
X124698363Y-34996910D01*
X124698362Y-34996910D01*
X124579890Y-35045983D01*
X124454119Y-35071000D01*
X124325881Y-35071000D01*
X124200110Y-35045983D01*
X124081638Y-34996910D01*
X124081637Y-34996910D01*
X124081636Y-34996909D01*
X123975012Y-34925665D01*
X123884335Y-34834988D01*
X123813091Y-34728364D01*
X123764017Y-34609890D01*
X123762597Y-34602751D01*
X123755484Y-34579302D01*
X123743933Y-34557691D01*
X123728388Y-34538749D01*
X123709446Y-34523203D01*
X123687836Y-34511652D01*
X123664387Y-34504539D01*
X123640001Y-34502137D01*
X123615615Y-34504539D01*
X123592166Y-34511652D01*
X123570555Y-34523203D01*
X123551613Y-34538748D01*
X123536067Y-34557690D01*
X123524516Y-34579300D01*
X123517403Y-34602751D01*
X123515983Y-34609890D01*
X123466909Y-34728364D01*
X123395665Y-34834988D01*
X123304988Y-34925665D01*
X123198364Y-34996909D01*
X123198363Y-34996910D01*
X123198362Y-34996910D01*
X123079890Y-35045983D01*
X122954119Y-35071000D01*
X122825881Y-35071000D01*
X122700110Y-35045983D01*
X122581638Y-34996910D01*
X122581637Y-34996910D01*
X122581636Y-34996909D01*
X122475012Y-34925665D01*
X122384335Y-34834988D01*
X122313091Y-34728364D01*
X122286845Y-34665000D01*
X122264017Y-34609890D01*
X122239000Y-34484119D01*
X122239000Y-34355881D01*
X122264017Y-34230110D01*
X122313090Y-34111638D01*
X122384335Y-34005012D01*
X122475012Y-33914335D01*
X122581636Y-33843091D01*
X122700110Y-33794017D01*
X122772319Y-33779654D01*
X122825881Y-33769000D01*
X122954119Y-33769000D01*
X123007681Y-33779654D01*
X123007681Y-33779654D01*
G37*
G36*
X156274499Y-33495445D02*
G01*
X156311995Y-33506820D01*
X156346554Y-33525292D01*
X156376847Y-33550153D01*
X156401708Y-33580446D01*
X156420180Y-33615005D01*
X156431555Y-33652501D01*
X156436000Y-33697638D01*
X156436000Y-34436362D01*
X156431555Y-34481499D01*
X156420180Y-34518995D01*
X156401708Y-34553554D01*
X156376847Y-34583847D01*
X156346554Y-34608708D01*
X156311995Y-34627180D01*
X156274499Y-34638555D01*
X156229362Y-34643000D01*
X155590638Y-34643000D01*
X155545501Y-34638555D01*
X155508005Y-34627180D01*
X155473446Y-34608708D01*
X155443153Y-34583847D01*
X155418292Y-34553554D01*
X155399820Y-34518995D01*
X155388445Y-34481499D01*
X155384000Y-34436362D01*
X155384000Y-33697638D01*
X155388445Y-33652501D01*
X155399820Y-33615005D01*
X155418292Y-33580446D01*
X155443153Y-33550153D01*
X155473446Y-33525292D01*
X155508005Y-33506820D01*
X155545501Y-33495445D01*
X155590638Y-33491000D01*
X156229362Y-33491000D01*
X156274499Y-33495445D01*
X156274499Y-33495445D01*
G37*
G36*
X157798499Y-33495445D02*
G01*
X157835995Y-33506820D01*
X157870554Y-33525292D01*
X157900847Y-33550153D01*
X157925708Y-33580446D01*
X157944180Y-33615005D01*
X157955555Y-33652501D01*
X157960000Y-33697638D01*
X157960000Y-34436362D01*
X157955555Y-34481499D01*
X157944180Y-34518995D01*
X157925708Y-34553554D01*
X157900847Y-34583847D01*
X157870554Y-34608708D01*
X157835995Y-34627180D01*
X157798499Y-34638555D01*
X157753362Y-34643000D01*
X157114638Y-34643000D01*
X157069501Y-34638555D01*
X157032005Y-34627180D01*
X156997446Y-34608708D01*
X156967153Y-34583847D01*
X156942292Y-34553554D01*
X156923820Y-34518995D01*
X156912445Y-34481499D01*
X156908000Y-34436362D01*
X156908000Y-33697638D01*
X156912445Y-33652501D01*
X156923820Y-33615005D01*
X156942292Y-33580446D01*
X156967153Y-33550153D01*
X156997446Y-33525292D01*
X157032005Y-33506820D01*
X157069501Y-33495445D01*
X157114638Y-33491000D01*
X157753362Y-33491000D01*
X157798499Y-33495445D01*
X157798499Y-33495445D01*
G37*
G36*
X159830499Y-33495445D02*
G01*
X159867995Y-33506820D01*
X159902554Y-33525292D01*
X159932847Y-33550153D01*
X159957708Y-33580446D01*
X159976180Y-33615005D01*
X159987555Y-33652501D01*
X159992000Y-33697638D01*
X159992000Y-34436362D01*
X159987555Y-34481499D01*
X159976180Y-34518995D01*
X159957708Y-34553554D01*
X159932847Y-34583847D01*
X159902554Y-34608708D01*
X159867995Y-34627180D01*
X159830499Y-34638555D01*
X159785362Y-34643000D01*
X159146638Y-34643000D01*
X159101501Y-34638555D01*
X159064005Y-34627180D01*
X159029446Y-34608708D01*
X158999153Y-34583847D01*
X158974292Y-34553554D01*
X158955820Y-34518995D01*
X158944445Y-34481499D01*
X158940000Y-34436362D01*
X158940000Y-33697638D01*
X158944445Y-33652501D01*
X158955820Y-33615005D01*
X158974292Y-33580446D01*
X158999153Y-33550153D01*
X159029446Y-33525292D01*
X159064005Y-33506820D01*
X159101501Y-33495445D01*
X159146638Y-33491000D01*
X159785362Y-33491000D01*
X159830499Y-33495445D01*
X159830499Y-33495445D01*
G37*
G36*
X161354499Y-33495445D02*
G01*
X161391995Y-33506820D01*
X161426554Y-33525292D01*
X161456847Y-33550153D01*
X161481708Y-33580446D01*
X161500180Y-33615005D01*
X161511555Y-33652501D01*
X161516000Y-33697638D01*
X161516000Y-34436362D01*
X161511555Y-34481499D01*
X161500180Y-34518995D01*
X161481708Y-34553554D01*
X161456847Y-34583847D01*
X161426554Y-34608708D01*
X161391995Y-34627180D01*
X161354499Y-34638555D01*
X161309362Y-34643000D01*
X160670638Y-34643000D01*
X160625501Y-34638555D01*
X160588005Y-34627180D01*
X160553446Y-34608708D01*
X160523153Y-34583847D01*
X160498292Y-34553554D01*
X160479820Y-34518995D01*
X160468445Y-34481499D01*
X160464000Y-34436362D01*
X160464000Y-33697638D01*
X160468445Y-33652501D01*
X160479820Y-33615005D01*
X160498292Y-33580446D01*
X160523153Y-33550153D01*
X160553446Y-33525292D01*
X160588005Y-33506820D01*
X160625501Y-33495445D01*
X160670638Y-33491000D01*
X161309362Y-33491000D01*
X161354499Y-33495445D01*
X161354499Y-33495445D01*
G37*
G36*
X117825279Y-31437173D02*
G01*
X117941777Y-31460346D01*
X118161255Y-31551257D01*
X118358780Y-31683239D01*
X118526761Y-31851220D01*
X118658743Y-32048745D01*
X118749654Y-32268223D01*
X118796000Y-32501219D01*
X118796000Y-32738781D01*
X118749654Y-32971777D01*
X118658743Y-33191255D01*
X118526761Y-33388780D01*
X118358780Y-33556761D01*
X118161255Y-33688743D01*
X117941777Y-33779654D01*
X117825279Y-33802827D01*
X117708782Y-33826000D01*
X117471218Y-33826000D01*
X117354721Y-33802827D01*
X117238223Y-33779654D01*
X117018745Y-33688743D01*
X116821220Y-33556761D01*
X116653239Y-33388780D01*
X116521257Y-33191255D01*
X116430346Y-32971777D01*
X116384000Y-32738781D01*
X116384000Y-32501219D01*
X116430346Y-32268223D01*
X116521257Y-32048745D01*
X116653239Y-31851220D01*
X116821220Y-31683239D01*
X117018745Y-31551257D01*
X117238223Y-31460346D01*
X117354721Y-31437173D01*
X117471218Y-31414000D01*
X117708782Y-31414000D01*
X117825279Y-31437173D01*
X117825279Y-31437173D01*
G37*
G36*
X152425279Y-31437173D02*
G01*
X152541777Y-31460346D01*
X152761255Y-31551257D01*
X152958780Y-31683239D01*
X153126761Y-31851220D01*
X153258743Y-32048745D01*
X153349654Y-32268223D01*
X153396000Y-32501219D01*
X153396000Y-32738781D01*
X153349654Y-32971777D01*
X153258743Y-33191255D01*
X153126761Y-33388780D01*
X152958780Y-33556761D01*
X152761255Y-33688743D01*
X152541777Y-33779654D01*
X152425279Y-33802827D01*
X152308782Y-33826000D01*
X152071218Y-33826000D01*
X151954721Y-33802827D01*
X151838223Y-33779654D01*
X151618745Y-33688743D01*
X151421220Y-33556761D01*
X151253239Y-33388780D01*
X151121257Y-33191255D01*
X151030346Y-32971777D01*
X150984000Y-32738781D01*
X150984000Y-32501219D01*
X151030346Y-32268223D01*
X151121257Y-32048745D01*
X151253239Y-31851220D01*
X151421220Y-31683239D01*
X151618745Y-31551257D01*
X151838223Y-31460346D01*
X151954721Y-31437173D01*
X152071218Y-31414000D01*
X152308782Y-31414000D01*
X152425279Y-31437173D01*
X152425279Y-31437173D01*
G37*
G36*
X129350499Y-31929445D02*
G01*
X129387995Y-31940820D01*
X129422554Y-31959292D01*
X129452847Y-31984153D01*
X129477708Y-32014446D01*
X129496180Y-32049005D01*
X129507555Y-32086501D01*
X129512000Y-32131638D01*
X129512000Y-32870362D01*
X129507555Y-32915499D01*
X129496180Y-32952995D01*
X129477708Y-32987554D01*
X129452847Y-33017847D01*
X129422554Y-33042708D01*
X129387995Y-33061180D01*
X129350499Y-33072555D01*
X129305362Y-33077000D01*
X128666638Y-33077000D01*
X128621501Y-33072555D01*
X128584005Y-33061180D01*
X128549446Y-33042708D01*
X128519153Y-33017847D01*
X128494292Y-32987554D01*
X128475820Y-32952995D01*
X128464445Y-32915499D01*
X128460000Y-32870362D01*
X128460000Y-32131638D01*
X128464445Y-32086501D01*
X128475820Y-32049005D01*
X128494292Y-32014446D01*
X128519153Y-31984153D01*
X128549446Y-31959292D01*
X128584005Y-31940820D01*
X128621501Y-31929445D01*
X128666638Y-31925000D01*
X129305362Y-31925000D01*
X129350499Y-31929445D01*
X129350499Y-31929445D01*
G37*
G36*
X136716499Y-31929445D02*
G01*
X136753995Y-31940820D01*
X136788554Y-31959292D01*
X136818847Y-31984153D01*
X136843708Y-32014446D01*
X136862180Y-32049005D01*
X136873555Y-32086501D01*
X136878000Y-32131638D01*
X136878000Y-32870362D01*
X136873555Y-32915499D01*
X136862180Y-32952995D01*
X136843708Y-32987554D01*
X136818847Y-33017847D01*
X136788554Y-33042708D01*
X136753995Y-33061180D01*
X136716499Y-33072555D01*
X136671362Y-33077000D01*
X136032638Y-33077000D01*
X135987501Y-33072555D01*
X135950005Y-33061180D01*
X135915446Y-33042708D01*
X135885153Y-33017847D01*
X135860292Y-32987554D01*
X135841820Y-32952995D01*
X135830445Y-32915499D01*
X135826000Y-32870362D01*
X135826000Y-32131638D01*
X135830445Y-32086501D01*
X135841820Y-32049005D01*
X135860292Y-32014446D01*
X135885153Y-31984153D01*
X135915446Y-31959292D01*
X135950005Y-31940820D01*
X135987501Y-31929445D01*
X136032638Y-31925000D01*
X136671362Y-31925000D01*
X136716499Y-31929445D01*
X136716499Y-31929445D01*
G37*
G36*
X127826499Y-31929445D02*
G01*
X127863995Y-31940820D01*
X127898554Y-31959292D01*
X127928847Y-31984153D01*
X127953708Y-32014446D01*
X127972180Y-32049005D01*
X127983555Y-32086501D01*
X127988000Y-32131638D01*
X127988000Y-32870362D01*
X127983555Y-32915499D01*
X127972180Y-32952995D01*
X127953708Y-32987554D01*
X127928847Y-33017847D01*
X127898554Y-33042708D01*
X127863995Y-33061180D01*
X127826499Y-33072555D01*
X127781362Y-33077000D01*
X127142638Y-33077000D01*
X127097501Y-33072555D01*
X127060005Y-33061180D01*
X127025446Y-33042708D01*
X126995153Y-33017847D01*
X126970292Y-32987554D01*
X126951820Y-32952995D01*
X126940445Y-32915499D01*
X126936000Y-32870362D01*
X126936000Y-32131638D01*
X126940445Y-32086501D01*
X126951820Y-32049005D01*
X126970292Y-32014446D01*
X126995153Y-31984153D01*
X127025446Y-31959292D01*
X127060005Y-31940820D01*
X127097501Y-31929445D01*
X127142638Y-31925000D01*
X127781362Y-31925000D01*
X127826499Y-31929445D01*
X127826499Y-31929445D01*
G37*
G36*
X126302499Y-31929445D02*
G01*
X126339995Y-31940820D01*
X126374554Y-31959292D01*
X126404847Y-31984153D01*
X126429708Y-32014446D01*
X126448180Y-32049005D01*
X126459555Y-32086501D01*
X126464000Y-32131638D01*
X126464000Y-32870362D01*
X126459555Y-32915499D01*
X126448180Y-32952995D01*
X126429708Y-32987554D01*
X126404847Y-33017847D01*
X126374554Y-33042708D01*
X126339995Y-33061180D01*
X126302499Y-33072555D01*
X126257362Y-33077000D01*
X125618638Y-33077000D01*
X125573501Y-33072555D01*
X125536005Y-33061180D01*
X125501446Y-33042708D01*
X125471153Y-33017847D01*
X125446292Y-32987554D01*
X125427820Y-32952995D01*
X125416445Y-32915499D01*
X125412000Y-32870362D01*
X125412000Y-32131638D01*
X125416445Y-32086501D01*
X125427820Y-32049005D01*
X125446292Y-32014446D01*
X125471153Y-31984153D01*
X125501446Y-31959292D01*
X125536005Y-31940820D01*
X125573501Y-31929445D01*
X125618638Y-31925000D01*
X126257362Y-31925000D01*
X126302499Y-31929445D01*
X126302499Y-31929445D01*
G37*
G36*
X130874499Y-31929445D02*
G01*
X130911995Y-31940820D01*
X130946554Y-31959292D01*
X130976847Y-31984153D01*
X131001708Y-32014446D01*
X131020180Y-32049005D01*
X131031555Y-32086501D01*
X131036000Y-32131638D01*
X131036000Y-32870362D01*
X131031555Y-32915499D01*
X131020180Y-32952995D01*
X131001708Y-32987554D01*
X130976847Y-33017847D01*
X130946554Y-33042708D01*
X130911995Y-33061180D01*
X130874499Y-33072555D01*
X130829362Y-33077000D01*
X130190638Y-33077000D01*
X130145501Y-33072555D01*
X130108005Y-33061180D01*
X130073446Y-33042708D01*
X130043153Y-33017847D01*
X130018292Y-32987554D01*
X129999820Y-32952995D01*
X129988445Y-32915499D01*
X129984000Y-32870362D01*
X129984000Y-32131638D01*
X129988445Y-32086501D01*
X129999820Y-32049005D01*
X130018292Y-32014446D01*
X130043153Y-31984153D01*
X130073446Y-31959292D01*
X130108005Y-31940820D01*
X130145501Y-31929445D01*
X130190638Y-31925000D01*
X130829362Y-31925000D01*
X130874499Y-31929445D01*
X130874499Y-31929445D01*
G37*
G36*
X133668499Y-31929445D02*
G01*
X133705995Y-31940820D01*
X133740554Y-31959292D01*
X133770847Y-31984153D01*
X133795708Y-32014446D01*
X133814180Y-32049005D01*
X133825555Y-32086501D01*
X133830000Y-32131638D01*
X133830000Y-32870362D01*
X133825555Y-32915499D01*
X133814180Y-32952995D01*
X133795708Y-32987554D01*
X133770847Y-33017847D01*
X133740554Y-33042708D01*
X133705995Y-33061180D01*
X133668499Y-33072555D01*
X133623362Y-33077000D01*
X132984638Y-33077000D01*
X132939501Y-33072555D01*
X132902005Y-33061180D01*
X132867446Y-33042708D01*
X132837153Y-33017847D01*
X132812292Y-32987554D01*
X132793820Y-32952995D01*
X132782445Y-32915499D01*
X132778000Y-32870362D01*
X132778000Y-32131638D01*
X132782445Y-32086501D01*
X132793820Y-32049005D01*
X132812292Y-32014446D01*
X132837153Y-31984153D01*
X132867446Y-31959292D01*
X132902005Y-31940820D01*
X132939501Y-31929445D01*
X132984638Y-31925000D01*
X133623362Y-31925000D01*
X133668499Y-31929445D01*
X133668499Y-31929445D01*
G37*
G36*
X123254499Y-31929445D02*
G01*
X123291995Y-31940820D01*
X123326554Y-31959292D01*
X123356847Y-31984153D01*
X123381708Y-32014446D01*
X123400180Y-32049005D01*
X123411555Y-32086501D01*
X123416000Y-32131638D01*
X123416000Y-32870362D01*
X123411555Y-32915499D01*
X123400180Y-32952995D01*
X123381708Y-32987554D01*
X123356847Y-33017847D01*
X123326554Y-33042708D01*
X123291995Y-33061180D01*
X123254499Y-33072555D01*
X123209362Y-33077000D01*
X122570638Y-33077000D01*
X122525501Y-33072555D01*
X122488005Y-33061180D01*
X122453446Y-33042708D01*
X122423153Y-33017847D01*
X122398292Y-32987554D01*
X122379820Y-32952995D01*
X122368445Y-32915499D01*
X122364000Y-32870362D01*
X122364000Y-32131638D01*
X122368445Y-32086501D01*
X122379820Y-32049005D01*
X122398292Y-32014446D01*
X122423153Y-31984153D01*
X122453446Y-31959292D01*
X122488005Y-31940820D01*
X122525501Y-31929445D01*
X122570638Y-31925000D01*
X123209362Y-31925000D01*
X123254499Y-31929445D01*
X123254499Y-31929445D01*
G37*
G36*
X124778499Y-31929445D02*
G01*
X124815995Y-31940820D01*
X124850554Y-31959292D01*
X124880847Y-31984153D01*
X124905708Y-32014446D01*
X124924180Y-32049005D01*
X124935555Y-32086501D01*
X124940000Y-32131638D01*
X124940000Y-32870362D01*
X124935555Y-32915499D01*
X124924180Y-32952995D01*
X124905708Y-32987554D01*
X124880847Y-33017847D01*
X124850554Y-33042708D01*
X124815995Y-33061180D01*
X124778499Y-33072555D01*
X124733362Y-33077000D01*
X124094638Y-33077000D01*
X124049501Y-33072555D01*
X124012005Y-33061180D01*
X123977446Y-33042708D01*
X123947153Y-33017847D01*
X123922292Y-32987554D01*
X123903820Y-32952995D01*
X123892445Y-32915499D01*
X123888000Y-32870362D01*
X123888000Y-32131638D01*
X123892445Y-32086501D01*
X123903820Y-32049005D01*
X123922292Y-32014446D01*
X123947153Y-31984153D01*
X123977446Y-31959292D01*
X124012005Y-31940820D01*
X124049501Y-31929445D01*
X124094638Y-31925000D01*
X124733362Y-31925000D01*
X124778499Y-31929445D01*
X124778499Y-31929445D01*
G37*
G36*
X167945740Y-31740626D02*
G01*
X167994136Y-31750253D01*
X168031902Y-31765896D01*
X168085311Y-31788019D01*
X168085312Y-31788020D01*
X168167369Y-31842848D01*
X168237152Y-31912631D01*
X168248793Y-31930053D01*
X168291981Y-31994689D01*
X168329747Y-32085865D01*
X168349000Y-32182655D01*
X168349000Y-32281345D01*
X168329747Y-32378135D01*
X168291981Y-32469311D01*
X168291980Y-32469312D01*
X168237152Y-32551369D01*
X168167369Y-32621152D01*
X168126062Y-32648752D01*
X168085311Y-32675981D01*
X168031902Y-32698104D01*
X167994136Y-32713747D01*
X167945740Y-32723374D01*
X167897345Y-32733000D01*
X167798655Y-32733000D01*
X167750260Y-32723373D01*
X167701864Y-32713747D01*
X167664098Y-32698104D01*
X167610689Y-32675981D01*
X167569938Y-32648752D01*
X167528631Y-32621152D01*
X167458848Y-32551369D01*
X167404020Y-32469312D01*
X167404019Y-32469311D01*
X167366253Y-32378135D01*
X167347000Y-32281345D01*
X167347000Y-32182655D01*
X167366253Y-32085865D01*
X167404019Y-31994689D01*
X167447207Y-31930053D01*
X167458848Y-31912631D01*
X167528631Y-31842848D01*
X167610688Y-31788020D01*
X167610689Y-31788019D01*
X167664098Y-31765896D01*
X167701864Y-31750253D01*
X167750260Y-31740627D01*
X167798655Y-31731000D01*
X167897345Y-31731000D01*
X167945740Y-31740626D01*
X167945740Y-31740626D01*
G37*
G36*
X166399000Y-32008000D02*
G01*
X163797000Y-32008000D01*
X163797000Y-30656000D01*
X166399000Y-30656000D01*
X166399000Y-32008000D01*
X166399000Y-32008000D01*
G37*
G36*
X123254499Y-30179445D02*
G01*
X123291995Y-30190820D01*
X123326554Y-30209292D01*
X123356847Y-30234153D01*
X123381708Y-30264446D01*
X123400180Y-30299005D01*
X123411555Y-30336501D01*
X123416000Y-30381638D01*
X123416000Y-31120362D01*
X123411555Y-31165499D01*
X123400180Y-31202995D01*
X123381708Y-31237554D01*
X123356847Y-31267847D01*
X123326554Y-31292708D01*
X123291995Y-31311180D01*
X123254499Y-31322555D01*
X123209362Y-31327000D01*
X122570638Y-31327000D01*
X122525501Y-31322555D01*
X122488005Y-31311180D01*
X122453446Y-31292708D01*
X122423153Y-31267847D01*
X122398292Y-31237554D01*
X122379820Y-31202995D01*
X122368445Y-31165499D01*
X122364000Y-31120362D01*
X122364000Y-30381638D01*
X122368445Y-30336501D01*
X122379820Y-30299005D01*
X122398292Y-30264446D01*
X122423153Y-30234153D01*
X122453446Y-30209292D01*
X122488005Y-30190820D01*
X122525501Y-30179445D01*
X122570638Y-30175000D01*
X123209362Y-30175000D01*
X123254499Y-30179445D01*
X123254499Y-30179445D01*
G37*
G36*
X124778499Y-30179445D02*
G01*
X124815995Y-30190820D01*
X124850554Y-30209292D01*
X124880847Y-30234153D01*
X124905708Y-30264446D01*
X124924180Y-30299005D01*
X124935555Y-30336501D01*
X124940000Y-30381638D01*
X124940000Y-31120362D01*
X124935555Y-31165499D01*
X124924180Y-31202995D01*
X124905708Y-31237554D01*
X124880847Y-31267847D01*
X124850554Y-31292708D01*
X124815995Y-31311180D01*
X124778499Y-31322555D01*
X124733362Y-31327000D01*
X124094638Y-31327000D01*
X124049501Y-31322555D01*
X124012005Y-31311180D01*
X123977446Y-31292708D01*
X123947153Y-31267847D01*
X123922292Y-31237554D01*
X123903820Y-31202995D01*
X123892445Y-31165499D01*
X123888000Y-31120362D01*
X123888000Y-30381638D01*
X123892445Y-30336501D01*
X123903820Y-30299005D01*
X123922292Y-30264446D01*
X123947153Y-30234153D01*
X123977446Y-30209292D01*
X124012005Y-30190820D01*
X124049501Y-30179445D01*
X124094638Y-30175000D01*
X124733362Y-30175000D01*
X124778499Y-30179445D01*
X124778499Y-30179445D01*
G37*
G36*
X127826499Y-30179445D02*
G01*
X127863995Y-30190820D01*
X127898554Y-30209292D01*
X127928847Y-30234153D01*
X127953708Y-30264446D01*
X127972180Y-30299005D01*
X127983555Y-30336501D01*
X127988000Y-30381638D01*
X127988000Y-31120362D01*
X127983555Y-31165499D01*
X127972180Y-31202995D01*
X127953708Y-31237554D01*
X127928847Y-31267847D01*
X127898554Y-31292708D01*
X127863995Y-31311180D01*
X127826499Y-31322555D01*
X127781362Y-31327000D01*
X127142638Y-31327000D01*
X127097501Y-31322555D01*
X127060005Y-31311180D01*
X127025446Y-31292708D01*
X126995153Y-31267847D01*
X126970292Y-31237554D01*
X126951820Y-31202995D01*
X126940445Y-31165499D01*
X126936000Y-31120362D01*
X126936000Y-30381638D01*
X126940445Y-30336501D01*
X126951820Y-30299005D01*
X126970292Y-30264446D01*
X126995153Y-30234153D01*
X127025446Y-30209292D01*
X127060005Y-30190820D01*
X127097501Y-30179445D01*
X127142638Y-30175000D01*
X127781362Y-30175000D01*
X127826499Y-30179445D01*
X127826499Y-30179445D01*
G37*
G36*
X136716499Y-30179445D02*
G01*
X136753995Y-30190820D01*
X136788554Y-30209292D01*
X136818847Y-30234153D01*
X136843708Y-30264446D01*
X136862180Y-30299005D01*
X136873555Y-30336501D01*
X136878000Y-30381638D01*
X136878000Y-31120362D01*
X136873555Y-31165499D01*
X136862180Y-31202995D01*
X136843708Y-31237554D01*
X136818847Y-31267847D01*
X136788554Y-31292708D01*
X136753995Y-31311180D01*
X136716499Y-31322555D01*
X136671362Y-31327000D01*
X136032638Y-31327000D01*
X135987501Y-31322555D01*
X135950005Y-31311180D01*
X135915446Y-31292708D01*
X135885153Y-31267847D01*
X135860292Y-31237554D01*
X135841820Y-31202995D01*
X135830445Y-31165499D01*
X135826000Y-31120362D01*
X135826000Y-30381638D01*
X135830445Y-30336501D01*
X135841820Y-30299005D01*
X135860292Y-30264446D01*
X135885153Y-30234153D01*
X135915446Y-30209292D01*
X135950005Y-30190820D01*
X135987501Y-30179445D01*
X136032638Y-30175000D01*
X136671362Y-30175000D01*
X136716499Y-30179445D01*
X136716499Y-30179445D01*
G37*
G36*
X126302499Y-30179445D02*
G01*
X126339995Y-30190820D01*
X126374554Y-30209292D01*
X126404847Y-30234153D01*
X126429708Y-30264446D01*
X126448180Y-30299005D01*
X126459555Y-30336501D01*
X126464000Y-30381638D01*
X126464000Y-31120362D01*
X126459555Y-31165499D01*
X126448180Y-31202995D01*
X126429708Y-31237554D01*
X126404847Y-31267847D01*
X126374554Y-31292708D01*
X126339995Y-31311180D01*
X126302499Y-31322555D01*
X126257362Y-31327000D01*
X125618638Y-31327000D01*
X125573501Y-31322555D01*
X125536005Y-31311180D01*
X125501446Y-31292708D01*
X125471153Y-31267847D01*
X125446292Y-31237554D01*
X125427820Y-31202995D01*
X125416445Y-31165499D01*
X125412000Y-31120362D01*
X125412000Y-30381638D01*
X125416445Y-30336501D01*
X125427820Y-30299005D01*
X125446292Y-30264446D01*
X125471153Y-30234153D01*
X125501446Y-30209292D01*
X125536005Y-30190820D01*
X125573501Y-30179445D01*
X125618638Y-30175000D01*
X126257362Y-30175000D01*
X126302499Y-30179445D01*
X126302499Y-30179445D01*
G37*
G36*
X133668499Y-30179445D02*
G01*
X133705995Y-30190820D01*
X133740554Y-30209292D01*
X133770847Y-30234153D01*
X133795708Y-30264446D01*
X133814180Y-30299005D01*
X133825555Y-30336501D01*
X133830000Y-30381638D01*
X133830000Y-31120362D01*
X133825555Y-31165499D01*
X133814180Y-31202995D01*
X133795708Y-31237554D01*
X133770847Y-31267847D01*
X133740554Y-31292708D01*
X133705995Y-31311180D01*
X133668499Y-31322555D01*
X133623362Y-31327000D01*
X132984638Y-31327000D01*
X132939501Y-31322555D01*
X132902005Y-31311180D01*
X132867446Y-31292708D01*
X132837153Y-31267847D01*
X132812292Y-31237554D01*
X132793820Y-31202995D01*
X132782445Y-31165499D01*
X132778000Y-31120362D01*
X132778000Y-30381638D01*
X132782445Y-30336501D01*
X132793820Y-30299005D01*
X132812292Y-30264446D01*
X132837153Y-30234153D01*
X132867446Y-30209292D01*
X132902005Y-30190820D01*
X132939501Y-30179445D01*
X132984638Y-30175000D01*
X133623362Y-30175000D01*
X133668499Y-30179445D01*
X133668499Y-30179445D01*
G37*
G36*
X129350499Y-30179445D02*
G01*
X129387995Y-30190820D01*
X129422554Y-30209292D01*
X129452847Y-30234153D01*
X129477708Y-30264446D01*
X129496180Y-30299005D01*
X129507555Y-30336501D01*
X129512000Y-30381638D01*
X129512000Y-31120362D01*
X129507555Y-31165499D01*
X129496180Y-31202995D01*
X129477708Y-31237554D01*
X129452847Y-31267847D01*
X129422554Y-31292708D01*
X129387995Y-31311180D01*
X129350499Y-31322555D01*
X129305362Y-31327000D01*
X128666638Y-31327000D01*
X128621501Y-31322555D01*
X128584005Y-31311180D01*
X128549446Y-31292708D01*
X128519153Y-31267847D01*
X128494292Y-31237554D01*
X128475820Y-31202995D01*
X128464445Y-31165499D01*
X128460000Y-31120362D01*
X128460000Y-30381638D01*
X128464445Y-30336501D01*
X128475820Y-30299005D01*
X128494292Y-30264446D01*
X128519153Y-30234153D01*
X128549446Y-30209292D01*
X128584005Y-30190820D01*
X128621501Y-30179445D01*
X128666638Y-30175000D01*
X129305362Y-30175000D01*
X129350499Y-30179445D01*
X129350499Y-30179445D01*
G37*
G36*
X130874499Y-30179445D02*
G01*
X130911995Y-30190820D01*
X130946554Y-30209292D01*
X130976847Y-30234153D01*
X131001708Y-30264446D01*
X131020180Y-30299005D01*
X131031555Y-30336501D01*
X131036000Y-30381638D01*
X131036000Y-31120362D01*
X131031555Y-31165499D01*
X131020180Y-31202995D01*
X131001708Y-31237554D01*
X130976847Y-31267847D01*
X130946554Y-31292708D01*
X130911995Y-31311180D01*
X130874499Y-31322555D01*
X130829362Y-31327000D01*
X130190638Y-31327000D01*
X130145501Y-31322555D01*
X130108005Y-31311180D01*
X130073446Y-31292708D01*
X130043153Y-31267847D01*
X130018292Y-31237554D01*
X129999820Y-31202995D01*
X129988445Y-31165499D01*
X129984000Y-31120362D01*
X129984000Y-30381638D01*
X129988445Y-30336501D01*
X129999820Y-30299005D01*
X130018292Y-30264446D01*
X130043153Y-30234153D01*
X130073446Y-30209292D01*
X130108005Y-30190820D01*
X130145501Y-30179445D01*
X130190638Y-30175000D01*
X130829362Y-30175000D01*
X130874499Y-30179445D01*
X130874499Y-30179445D01*
G37*
G36*
X157347997Y-28493051D02*
G01*
X157381652Y-28503261D01*
X157412665Y-28519838D01*
X157439851Y-28542149D01*
X157462162Y-28569335D01*
X157478739Y-28600348D01*
X157488949Y-28634003D01*
X157493000Y-28675138D01*
X157493000Y-30004862D01*
X157488949Y-30045997D01*
X157478739Y-30079652D01*
X157462162Y-30110665D01*
X157439851Y-30137851D01*
X157412665Y-30160162D01*
X157381652Y-30176739D01*
X157347997Y-30186949D01*
X157306862Y-30191000D01*
X154977138Y-30191000D01*
X154936003Y-30186949D01*
X154902348Y-30176739D01*
X154871335Y-30160162D01*
X154844149Y-30137851D01*
X154821838Y-30110665D01*
X154805261Y-30079652D01*
X154795051Y-30045997D01*
X154791000Y-30004862D01*
X154791000Y-28675138D01*
X154795051Y-28634003D01*
X154805261Y-28600348D01*
X154821838Y-28569335D01*
X154844149Y-28542149D01*
X154871335Y-28519838D01*
X154902348Y-28503261D01*
X154936003Y-28493051D01*
X154977138Y-28489000D01*
X157306862Y-28489000D01*
X157347997Y-28493051D01*
X157347997Y-28493051D01*
G37*
G36*
X160947997Y-28493051D02*
G01*
X160981652Y-28503261D01*
X161012665Y-28519838D01*
X161039851Y-28542149D01*
X161062162Y-28569335D01*
X161078739Y-28600348D01*
X161088949Y-28634003D01*
X161093000Y-28675138D01*
X161093000Y-30004862D01*
X161088949Y-30045997D01*
X161078739Y-30079652D01*
X161062162Y-30110665D01*
X161039851Y-30137851D01*
X161012665Y-30160162D01*
X160981652Y-30176739D01*
X160947997Y-30186949D01*
X160906862Y-30191000D01*
X158577138Y-30191000D01*
X158536003Y-30186949D01*
X158502348Y-30176739D01*
X158471335Y-30160162D01*
X158444149Y-30137851D01*
X158421838Y-30110665D01*
X158405261Y-30079652D01*
X158395051Y-30045997D01*
X158391000Y-30004862D01*
X158391000Y-28675138D01*
X158395051Y-28634003D01*
X158405261Y-28600348D01*
X158421838Y-28569335D01*
X158444149Y-28542149D01*
X158471335Y-28519838D01*
X158502348Y-28503261D01*
X158536003Y-28493051D01*
X158577138Y-28489000D01*
X160906862Y-28489000D01*
X160947997Y-28493051D01*
X160947997Y-28493051D01*
G37*
G36*
X166399000Y-29508000D02*
G01*
X163797000Y-29508000D01*
X163797000Y-28156000D01*
X166399000Y-28156000D01*
X166399000Y-29508000D01*
X166399000Y-29508000D01*
G37*
G36*
X166399000Y-27008000D02*
G01*
X163797000Y-27008000D01*
X163797000Y-25656000D01*
X166399000Y-25656000D01*
X166399000Y-27008000D01*
X166399000Y-27008000D01*
G37*
G36*
X167945740Y-24940627D02*
G01*
X167994136Y-24950253D01*
X168031902Y-24965896D01*
X168085311Y-24988019D01*
X168085312Y-24988020D01*
X168167369Y-25042848D01*
X168237152Y-25112631D01*
X168237153Y-25112633D01*
X168291981Y-25194689D01*
X168329747Y-25285865D01*
X168349000Y-25382655D01*
X168349000Y-25481345D01*
X168329747Y-25578135D01*
X168291981Y-25669311D01*
X168291980Y-25669312D01*
X168237152Y-25751369D01*
X168167369Y-25821152D01*
X168126062Y-25848752D01*
X168085311Y-25875981D01*
X168031902Y-25898104D01*
X167994136Y-25913747D01*
X167945740Y-25923374D01*
X167897345Y-25933000D01*
X167798655Y-25933000D01*
X167750260Y-25923373D01*
X167701864Y-25913747D01*
X167664098Y-25898104D01*
X167610689Y-25875981D01*
X167569938Y-25848752D01*
X167528631Y-25821152D01*
X167458848Y-25751369D01*
X167404020Y-25669312D01*
X167404019Y-25669311D01*
X167366253Y-25578135D01*
X167347000Y-25481345D01*
X167347000Y-25382655D01*
X167366253Y-25285865D01*
X167404019Y-25194689D01*
X167458847Y-25112633D01*
X167458848Y-25112631D01*
X167528631Y-25042848D01*
X167610688Y-24988020D01*
X167610689Y-24988019D01*
X167664098Y-24965896D01*
X167701864Y-24950253D01*
X167750260Y-24940626D01*
X167798655Y-24931000D01*
X167897345Y-24931000D01*
X167945740Y-24940627D01*
X167945740Y-24940627D01*
G37*
G36*
X164335000Y-23795000D02*
G01*
X163233000Y-23795000D01*
X163233000Y-22693000D01*
X164335000Y-22693000D01*
X164335000Y-23795000D01*
X164335000Y-23795000D01*
G37*
M02*
