M48
; DRILL file {KiCad 5.1.2} date Thu 27 Jun 2019 09:04:54 AM EDT
; FORMAT={-:-/ absolute / inch / decimal}
; #@! TF.CreationDate,2019-06-27T09:04:54-04:00
; #@! TF.GenerationSoftware,Kicad,Pcbnew,5.1.2
; #@! TF.FileFunction,Plated,1,2,PTH
FMAT,2
INCH
T1C0.0157
T2C0.0256
T3C0.0276
T4C0.0606
%
G90
G05
T1
X4.0782Y-2.8151
X4.0882Y-3.7151
X4.1139Y-3.3251
X4.1282Y-2.7651
X4.1582Y-4.5151
X4.1582Y-5.3451
X4.1982Y-2.8851
X4.1982Y-2.4951
X4.2482Y-5.4051
X4.2782Y-1.6751
X4.3982Y-4.4751
X4.4282Y-1.6051
X4.4782Y-4.0751
X4.5082Y-2.9151
X4.5282Y-3.6651
X4.5482Y-1.9251
X4.5482Y-3.3151
X4.5482Y-4.8251
X4.5582Y-2.4451
X4.5882Y-4.4851
X4.6182Y-5.2351
X4.6282Y-4.3551
X4.6582Y-2.5451
X4.6782Y-2.0851
X4.8082Y-1.6251
X4.8128Y-2.6334
X4.8282Y-3.6651
X4.8482Y-2.8951
X4.8682Y-1.9251
X4.8682Y-2.6451
X4.8682Y-3.3151
X4.9082Y-1.5851
X4.9282Y-2.9151
X4.9282Y-3.0751
X4.9582Y-3.2151
X4.9582Y-3.5851
X4.9882Y-1.5951
X5.0182Y-4.0751
X5.0682Y-1.9751
X5.0982Y-5.3851
X5.1082Y-4.6251
X5.1582Y-2.0051
X5.1582Y-4.7451
X5.1782Y-4.9751
X5.1782Y-5.2851
X5.198Y-3.2952
X5.2164Y-2.7916
X5.2182Y-4.4351
X5.2282Y-4.8451
X5.2482Y-3.6451
X5.2482Y-3.7051
X5.2782Y-2.2851
X5.2782Y-2.4151
X5.3182Y-2.7451
X5.334Y-3.7093
X5.3382Y-3.2251
X5.3582Y-3.5951
X5.3782Y-3.9551
X5.3982Y-2.4151
X5.3982Y-3.2251
X5.3982Y-2.2851
X5.4082Y-2.0051
X5.5182Y-2.2851
X5.5482Y-1.5951
X5.5582Y-4.4351
X5.5582Y-4.9151
X5.5982Y-2.7151
X5.5982Y-5.2951
X5.6282Y-1.9251
X5.6482Y-2.7451
X5.6482Y-4.9351
X5.6582Y-4.4751
X5.6582Y-4.7351
X5.6682Y-2.3451
X5.6682Y-2.3951
X5.6682Y-4.0651
X5.6682Y-5.4951
X5.6982Y-2.1851
X5.6982Y-4.9051
X5.7082Y-4.4851
X5.7382Y-3.7051
X5.7482Y-4.3751
X5.7482Y-4.4451
X5.7482Y-4.8851
X5.7782Y-3.3651
X5.7782Y-3.6051
X5.7782Y-3.8351
X5.7782Y-3.9251
X5.7782Y-2.7251
X5.7882Y-2.0051
X5.7968Y-3.0538
X5.8182Y-2.0551
X5.8193Y-2.6869
X5.8282Y-4.5651
X5.8382Y-1.0951
X5.8382Y-1.2651
X5.8384Y-2.6548
X5.8539Y-2.7594
X5.8882Y-1.9351
X5.9082Y-1.0951
X5.9082Y-1.2651
X5.9213Y-2.012
X5.9382Y-1.9351
X5.9882Y-4.4851
X5.9925Y-2.4751
X5.9982Y-1.8851
X6.03Y-2.1933
X6.0482Y-2.3051
X6.0682Y-2.4751
X6.0982Y-2.1351
X6.1132Y-1.5351
X6.1282Y-4.3851
X6.1382Y-2.5151
X6.1382Y-3.7051
X6.1482Y-2.7951
X6.1482Y-2.2251
X6.1582Y-5.4951
X6.1682Y-4.1751
X6.1913Y-4.5383
X6.2082Y-3.3351
X6.2082Y-3.5651
X6.2082Y-3.9051
X6.2182Y-1.6751
X6.2182Y-2.8051
X6.2182Y-4.3951
X6.2182Y-5.3451
X6.2282Y-1.4551
X6.2382Y-3.7651
X6.2382Y-4.0651
X6.2582Y-4.4751
X6.2682Y-3.3051
X6.2682Y-3.7051
X6.2782Y-2.8151
X6.3782Y-2.4851
X6.4082Y-4.0751
X6.4382Y-2.5551
X6.4482Y-4.0851
X6.4982Y-2.5651
X6.5182Y-4.1151
X6.6182Y-2.9851
X6.6225Y-3.0451
X6.6282Y-4.6451
T3
X4.8382Y-1.3551
X4.8972Y-1.3551
X4.9563Y-1.3551
X5.0154Y-1.3551
X5.0744Y-1.3551
X5.1335Y-1.3551
X5.1925Y-1.3551
X5.2516Y-1.3551
X5.3106Y-1.3551
X5.3697Y-1.3551
X5.4287Y-1.3551
X5.4878Y-1.3551
X5.5469Y-1.3551
X5.6059Y-1.3551
X5.665Y-1.3551
X5.724Y-1.3551
X5.7831Y-1.3551
T4
X4.6295Y-1.2843
X5.9917Y-1.2843
T2
G00X4.1691Y-1.4608
M15
G01X4.1848Y-1.4608
M16
G05
G00X4.1691Y-1.6514
M15
G01X4.1848Y-1.6514
M16
G05
T3
G00X4.049Y-1.4486
M15
G01X4.0687Y-1.4486
M16
G05
G00X4.049Y-1.6636
M15
G01X4.0687Y-1.6636
M16
G05
T0
M30
