G04 #@! TF.GenerationSoftware,KiCad,Pcbnew,5.1.2*
G04 #@! TF.CreationDate,2019-06-27T09:05:00-04:00*
G04 #@! TF.ProjectId,repl_sharp_el-w516x,7265706c-5f73-4686-9172-705f656c2d77,rev?*
G04 #@! TF.SameCoordinates,Original*
G04 #@! TF.FileFunction,Legend,Bot*
G04 #@! TF.FilePolarity,Positive*
%FSLAX46Y46*%
G04 Gerber Fmt 4.6, Leading zero omitted, Abs format (unit mm)*
G04 Created by KiCad (PCBNEW 5.1.2) date 2019-06-27 09:05:00*
%MOMM*%
%LPD*%
G04 APERTURE LIST*
%ADD10C,0.500000*%
%ADD11C,0.120000*%
%ADD12C,0.152400*%
%ADD13C,0.150000*%
%ADD14C,0.050000*%
G04 APERTURE END LIST*
D10*
X106761000Y-145545000D02*
X106761000Y-82680000D01*
X163911000Y-145545000D02*
X106761000Y-145545000D01*
X163911000Y-82680000D02*
X163911000Y-145545000D01*
X106761000Y-82680000D02*
X163911000Y-82680000D01*
D11*
X125174000Y-64817267D02*
X125174000Y-64474733D01*
X126194000Y-64817267D02*
X126194000Y-64474733D01*
X155682000Y-31600000D02*
X155682000Y-30400000D01*
X155682000Y-27080000D02*
X155682000Y-28280000D01*
X159137563Y-27080000D02*
X155682000Y-27080000D01*
X159137563Y-31600000D02*
X155682000Y-31600000D01*
X160202000Y-30535563D02*
X160202000Y-30400000D01*
X160202000Y-28144437D02*
X160202000Y-28280000D01*
X160202000Y-28144437D02*
X159137563Y-27080000D01*
X160202000Y-30535563D02*
X159137563Y-31600000D01*
X160942000Y-27780000D02*
X160442000Y-27780000D01*
X160692000Y-27530000D02*
X160692000Y-28030000D01*
X151590000Y-38185733D02*
X151590000Y-38528267D01*
X152610000Y-38185733D02*
X152610000Y-38528267D01*
X162754000Y-39302000D02*
X164214000Y-39302000D01*
X162754000Y-36142000D02*
X164914000Y-36142000D01*
X162754000Y-36142000D02*
X162754000Y-37072000D01*
X162754000Y-39302000D02*
X162754000Y-38372000D01*
X171648000Y-28432000D02*
X171648000Y-28432000D01*
X171648000Y-29232000D02*
X171648000Y-28432000D01*
X171648000Y-29532000D02*
X171648000Y-29532000D01*
X171648000Y-30032000D02*
X171648000Y-29532000D01*
X171648000Y-28132000D02*
X171648000Y-28132000D01*
X171648000Y-27632000D02*
X171648000Y-28132000D01*
X170348000Y-26832000D02*
X170348000Y-26832000D01*
X170848000Y-26832000D02*
X170348000Y-26832000D01*
X170348000Y-30832000D02*
X170348000Y-30832000D01*
X170848000Y-30832000D02*
X170348000Y-30832000D01*
X171148000Y-30832000D02*
X171148000Y-30832000D01*
X171648000Y-30832000D02*
X171148000Y-30832000D01*
X171648000Y-30332000D02*
X171648000Y-30332000D01*
X171648000Y-30832000D02*
X171648000Y-30332000D01*
X171648000Y-27332000D02*
X171648000Y-27332000D01*
X171648000Y-26832000D02*
X171648000Y-27332000D01*
X171148000Y-26832000D02*
X171148000Y-26832000D01*
X171648000Y-26832000D02*
X171148000Y-26832000D01*
X169748000Y-24232000D02*
X169748000Y-24232000D01*
X169748000Y-25932000D02*
X169748000Y-24232000D01*
X170048000Y-25932000D02*
X169748000Y-25932000D01*
X170048000Y-26732000D02*
X170048000Y-25932000D01*
X169748000Y-26732000D02*
X170048000Y-26732000D01*
X169748000Y-28432000D02*
X169748000Y-26732000D01*
X170048000Y-28432000D02*
X169748000Y-28432000D01*
X170048000Y-29232000D02*
X170048000Y-28432000D01*
X169748000Y-29232000D02*
X170048000Y-29232000D01*
X169748000Y-30932000D02*
X169748000Y-29232000D01*
X170048000Y-30932000D02*
X169748000Y-30932000D01*
X170048000Y-31732000D02*
X170048000Y-30932000D01*
X169748000Y-31732000D02*
X170048000Y-31732000D01*
X169748000Y-33432000D02*
X169748000Y-31732000D01*
X165948000Y-27032000D02*
X165948000Y-27032000D01*
X165948000Y-28132000D02*
X165948000Y-27032000D01*
X165948000Y-29532000D02*
X165948000Y-29532000D01*
X165948000Y-30632000D02*
X165948000Y-29532000D01*
X165948000Y-24232000D02*
X165948000Y-25632000D01*
X169748000Y-24232000D02*
X165948000Y-24232000D01*
X165948000Y-33432000D02*
X169748000Y-33432000D01*
X165948000Y-32032000D02*
X165948000Y-33432000D01*
X165136733Y-34418000D02*
X165479267Y-34418000D01*
X165136733Y-35438000D02*
X165479267Y-35438000D01*
X161754000Y-43138733D02*
X161754000Y-43481267D01*
X160734000Y-43138733D02*
X160734000Y-43481267D01*
X132794000Y-31797267D02*
X132794000Y-31454733D01*
X133814000Y-31797267D02*
X133814000Y-31454733D01*
X130000000Y-31797267D02*
X130000000Y-31454733D01*
X131020000Y-31797267D02*
X131020000Y-31454733D01*
X129496000Y-31454733D02*
X129496000Y-31797267D01*
X128476000Y-31454733D02*
X128476000Y-31797267D01*
X126448000Y-31454733D02*
X126448000Y-31797267D01*
X125428000Y-31454733D02*
X125428000Y-31797267D01*
X123400000Y-31454733D02*
X123400000Y-31797267D01*
X122380000Y-31454733D02*
X122380000Y-31797267D01*
X136862000Y-31454733D02*
X136862000Y-31797267D01*
X135842000Y-31454733D02*
X135842000Y-31797267D01*
X127972000Y-31454733D02*
X127972000Y-31797267D01*
X126952000Y-31454733D02*
X126952000Y-31797267D01*
X124924000Y-31454733D02*
X124924000Y-31797267D01*
X123904000Y-31454733D02*
X123904000Y-31797267D01*
X159210000Y-43455767D02*
X159210000Y-43113233D01*
X160230000Y-43455767D02*
X160230000Y-43113233D01*
X158448000Y-61261267D02*
X158448000Y-60918733D01*
X159468000Y-61261267D02*
X159468000Y-60918733D01*
X121434733Y-72522000D02*
X121777267Y-72522000D01*
X121434733Y-71502000D02*
X121777267Y-71502000D01*
X127718000Y-64474733D02*
X127718000Y-64817267D01*
X126698000Y-64474733D02*
X126698000Y-64817267D01*
X141921233Y-65914000D02*
X142263767Y-65914000D01*
X141921233Y-66934000D02*
X142263767Y-66934000D01*
X130833767Y-67950000D02*
X130491233Y-67950000D01*
X130833767Y-66930000D02*
X130491233Y-66930000D01*
X133729267Y-49662000D02*
X133386733Y-49662000D01*
X133729267Y-48642000D02*
X133386733Y-48642000D01*
X144605000Y-53158767D02*
X144605000Y-52816233D01*
X145625000Y-53158767D02*
X145625000Y-52816233D01*
X137958733Y-48642000D02*
X138301267Y-48642000D01*
X137958733Y-49662000D02*
X138301267Y-49662000D01*
X130508000Y-48307267D02*
X130508000Y-47964733D01*
X131528000Y-48307267D02*
X131528000Y-47964733D01*
X138894000Y-48158000D02*
X133144000Y-48158000D01*
X138894000Y-44558000D02*
X138894000Y-48158000D01*
X133144000Y-44558000D02*
X138894000Y-44558000D01*
X153940000Y-43372000D02*
X153940000Y-44772000D01*
X155340000Y-43372000D02*
X153940000Y-43372000D01*
X155340000Y-44772000D02*
X155340000Y-43372000D01*
X153940000Y-44772000D02*
X155340000Y-44772000D01*
X159528000Y-76138000D02*
X159528000Y-77538000D01*
X160928000Y-76138000D02*
X159528000Y-76138000D01*
X160928000Y-77538000D02*
X160928000Y-76138000D01*
X159528000Y-77538000D02*
X160928000Y-77538000D01*
X161306000Y-71820000D02*
X161306000Y-73220000D01*
X162706000Y-71820000D02*
X161306000Y-71820000D01*
X162706000Y-73220000D02*
X162706000Y-71820000D01*
X161306000Y-73220000D02*
X162706000Y-73220000D01*
X163084000Y-22544000D02*
X163084000Y-23944000D01*
X164484000Y-22544000D02*
X163084000Y-22544000D01*
X164484000Y-23944000D02*
X164484000Y-22544000D01*
X163084000Y-23944000D02*
X164484000Y-23944000D01*
X159976000Y-34770733D02*
X159976000Y-35113267D01*
X158956000Y-34770733D02*
X158956000Y-35113267D01*
X156420000Y-34770733D02*
X156420000Y-35113267D01*
X155400000Y-34770733D02*
X155400000Y-35113267D01*
X151594000Y-43213267D02*
X151594000Y-42870733D01*
X150574000Y-43213267D02*
X150574000Y-42870733D01*
X159153733Y-39117000D02*
X159496267Y-39117000D01*
X159153733Y-40137000D02*
X159496267Y-40137000D01*
X153245000Y-42870733D02*
X153245000Y-43213267D01*
X152225000Y-42870733D02*
X152225000Y-43213267D01*
X108748733Y-79630000D02*
X109091267Y-79630000D01*
X108748733Y-80650000D02*
X109091267Y-80650000D01*
X114679267Y-80650000D02*
X114336733Y-80650000D01*
X114679267Y-79630000D02*
X114336733Y-79630000D01*
X120521267Y-80650000D02*
X120178733Y-80650000D01*
X120521267Y-79630000D02*
X120178733Y-79630000D01*
X120013267Y-69220000D02*
X119670733Y-69220000D01*
X120013267Y-68200000D02*
X119670733Y-68200000D01*
X114679267Y-66426000D02*
X114336733Y-66426000D01*
X114679267Y-65406000D02*
X114336733Y-65406000D01*
X114679267Y-69220000D02*
X114336733Y-69220000D01*
X114679267Y-68200000D02*
X114336733Y-68200000D01*
X108748733Y-68200000D02*
X109091267Y-68200000D01*
X108748733Y-69220000D02*
X109091267Y-69220000D01*
X144478000Y-65071267D02*
X144478000Y-64728733D01*
X145498000Y-65071267D02*
X145498000Y-64728733D01*
X115187267Y-40264000D02*
X114844733Y-40264000D01*
X115187267Y-39244000D02*
X114844733Y-39244000D01*
X115187267Y-38740000D02*
X114844733Y-38740000D01*
X115187267Y-37720000D02*
X114844733Y-37720000D01*
X107986733Y-57278000D02*
X108329267Y-57278000D01*
X107986733Y-58298000D02*
X108329267Y-58298000D01*
X161725000Y-33282000D02*
X161725000Y-35742000D01*
X160255000Y-33282000D02*
X161725000Y-33282000D01*
X160255000Y-35742000D02*
X160255000Y-33282000D01*
X130483000Y-77703000D02*
X130483000Y-80163000D01*
X130483000Y-80163000D02*
X129013000Y-80163000D01*
X129013000Y-80163000D02*
X129013000Y-77703000D01*
X132261000Y-77675000D02*
X132261000Y-80135000D01*
X132261000Y-80135000D02*
X130791000Y-80135000D01*
X130791000Y-80135000D02*
X130791000Y-77675000D01*
X134039000Y-77675000D02*
X134039000Y-80135000D01*
X134039000Y-80135000D02*
X132569000Y-80135000D01*
X132569000Y-80135000D02*
X132569000Y-77675000D01*
X135817000Y-77675000D02*
X135817000Y-80135000D01*
X135817000Y-80135000D02*
X134347000Y-80135000D01*
X134347000Y-80135000D02*
X134347000Y-77675000D01*
X137595000Y-77675000D02*
X137595000Y-80135000D01*
X137595000Y-80135000D02*
X136125000Y-80135000D01*
X136125000Y-80135000D02*
X136125000Y-77675000D01*
X139373000Y-77675000D02*
X139373000Y-80135000D01*
X139373000Y-80135000D02*
X137903000Y-80135000D01*
X137903000Y-80135000D02*
X137903000Y-77675000D01*
X141151000Y-77675000D02*
X141151000Y-80135000D01*
X141151000Y-80135000D02*
X139681000Y-80135000D01*
X139681000Y-80135000D02*
X139681000Y-77675000D01*
X142929000Y-77675000D02*
X142929000Y-80135000D01*
X142929000Y-80135000D02*
X141459000Y-80135000D01*
X141459000Y-80135000D02*
X141459000Y-77675000D01*
X158169000Y-33282000D02*
X158169000Y-35742000D01*
X156699000Y-33282000D02*
X158169000Y-33282000D01*
X156699000Y-35742000D02*
X156699000Y-33282000D01*
X124546000Y-43577000D02*
X124481000Y-43577000D01*
X124546000Y-47107000D02*
X124481000Y-47107000D01*
X128411000Y-43577000D02*
X128346000Y-43577000D01*
X128411000Y-47107000D02*
X128346000Y-47107000D01*
X128346000Y-48432000D02*
X128346000Y-47107000D01*
X124481000Y-47107000D02*
X124481000Y-43577000D01*
X128411000Y-47107000D02*
X128411000Y-43577000D01*
X107074000Y-40825000D02*
X107524000Y-41225000D01*
X107524000Y-41225000D02*
X107524000Y-40425000D01*
X107524000Y-40425000D02*
X107074000Y-40825000D01*
X101474000Y-35675000D02*
X104274000Y-35675000D01*
X104274000Y-35675000D02*
X104274000Y-35375000D01*
X104274000Y-35375000D02*
X105824000Y-35375000D01*
X101474000Y-43375000D02*
X104274000Y-43375000D01*
X104274000Y-43675000D02*
X104274000Y-43375000D01*
X104274000Y-43675000D02*
X105824000Y-43675000D01*
D12*
X109250200Y-76545900D02*
X109250200Y-72304100D01*
X119511800Y-72304100D02*
X119511800Y-76545900D01*
X111396500Y-70462600D02*
X111015500Y-70462600D01*
X111015500Y-70462600D02*
X111015500Y-70716600D01*
X111015500Y-70716600D02*
X111396500Y-70716600D01*
X111396500Y-70716600D02*
X111396500Y-70462600D01*
D13*
X131050000Y-63725000D02*
X131050000Y-63150000D01*
X141400000Y-63725000D02*
X141400000Y-63050000D01*
X141400000Y-53375000D02*
X141400000Y-54050000D01*
X131050000Y-53375000D02*
X131050000Y-54050000D01*
X131050000Y-63725000D02*
X131725000Y-63725000D01*
X131050000Y-53375000D02*
X131725000Y-53375000D01*
X141400000Y-53375000D02*
X140725000Y-53375000D01*
X141400000Y-63725000D02*
X140725000Y-63725000D01*
X131050000Y-63150000D02*
X129775000Y-63150000D01*
D11*
X157668000Y-63122000D02*
X157668000Y-66572000D01*
X157668000Y-63122000D02*
X157668000Y-61172000D01*
X147548000Y-63122000D02*
X147548000Y-65072000D01*
X147548000Y-63122000D02*
X147548000Y-61172000D01*
D12*
X153319001Y-37036001D02*
X154056817Y-37036001D01*
X157230999Y-37036001D02*
X157230999Y-37774005D01*
X157230999Y-40947999D02*
X156493183Y-40947999D01*
X153319001Y-40947999D02*
X153319001Y-40209995D01*
X153319001Y-37774005D02*
X153319001Y-37036001D01*
X156493183Y-37036001D02*
X157230999Y-37036001D01*
X157230999Y-40209995D02*
X157230999Y-40947999D01*
X154056817Y-40947999D02*
X153319001Y-40947999D01*
X157682999Y-38932501D02*
X157682999Y-38551500D01*
X157682999Y-38551500D02*
X157428999Y-38551500D01*
X157428999Y-38551500D02*
X157428999Y-38932501D01*
X157428999Y-38932501D02*
X157682999Y-38932501D01*
D11*
X106325000Y-54795000D02*
X106325000Y-48335000D01*
X110855000Y-54795000D02*
X108255000Y-54795000D01*
X112785000Y-54795000D02*
X112785000Y-48335000D01*
X110855000Y-48335000D02*
X108255000Y-48335000D01*
X112755000Y-54795000D02*
X112785000Y-54795000D01*
X106325000Y-54795000D02*
X106355000Y-54795000D01*
X106325000Y-48335000D02*
X106355000Y-48335000D01*
X112785000Y-48335000D02*
X112755000Y-48335000D01*
D13*
X126041142Y-67051142D02*
X126088761Y-67003523D01*
X126136380Y-66860666D01*
X126136380Y-66765428D01*
X126088761Y-66622571D01*
X125993523Y-66527333D01*
X125898285Y-66479714D01*
X125707809Y-66432095D01*
X125564952Y-66432095D01*
X125374476Y-66479714D01*
X125279238Y-66527333D01*
X125184000Y-66622571D01*
X125136380Y-66765428D01*
X125136380Y-66860666D01*
X125184000Y-67003523D01*
X125231619Y-67051142D01*
X126136380Y-68003523D02*
X126136380Y-67432095D01*
X126136380Y-67717809D02*
X125136380Y-67717809D01*
X125279238Y-67622571D01*
X125374476Y-67527333D01*
X125422095Y-67432095D01*
X125231619Y-68384476D02*
X125184000Y-68432095D01*
X125136380Y-68527333D01*
X125136380Y-68765428D01*
X125184000Y-68860666D01*
X125231619Y-68908285D01*
X125326857Y-68955904D01*
X125422095Y-68955904D01*
X125564952Y-68908285D01*
X126136380Y-68336857D01*
X126136380Y-68955904D01*
D14*
X157385366Y-75957615D02*
X156718133Y-76958465D01*
X156718133Y-75957615D02*
X157385366Y-76958465D01*
X156003240Y-76434210D02*
X155860262Y-76481870D01*
X155812602Y-76529529D01*
X155764943Y-76624848D01*
X155764943Y-76767827D01*
X155812602Y-76863146D01*
X155860262Y-76910805D01*
X155955581Y-76958465D01*
X156336857Y-76958465D01*
X156336857Y-75957615D01*
X156003240Y-75957615D01*
X155907921Y-76005275D01*
X155860262Y-76052934D01*
X155812602Y-76148253D01*
X155812602Y-76243572D01*
X155860262Y-76338891D01*
X155907921Y-76386551D01*
X156003240Y-76434210D01*
X156336857Y-76434210D01*
X154811752Y-76958465D02*
X155383666Y-76958465D01*
X155097709Y-76958465D02*
X155097709Y-75957615D01*
X155193028Y-76100594D01*
X155288347Y-76195913D01*
X155383666Y-76243572D01*
X156436678Y-80576506D02*
X156293691Y-80624168D01*
X156246029Y-80671831D01*
X156198366Y-80767155D01*
X156198366Y-80910143D01*
X156246029Y-81005467D01*
X156293691Y-81053130D01*
X156389016Y-81100792D01*
X156770315Y-81100792D01*
X156770315Y-80099882D01*
X156436678Y-80099882D01*
X156341353Y-80147545D01*
X156293691Y-80195207D01*
X156246029Y-80290532D01*
X156246029Y-80385856D01*
X156293691Y-80481181D01*
X156341353Y-80528844D01*
X156436678Y-80576506D01*
X156770315Y-80576506D01*
X155817067Y-80814818D02*
X155340443Y-80814818D01*
X155912392Y-81100792D02*
X155578755Y-80099882D01*
X155245119Y-81100792D01*
X155054469Y-80099882D02*
X154482520Y-80099882D01*
X154768495Y-81100792D02*
X154768495Y-80099882D01*
X154291871Y-80099882D02*
X153719922Y-80099882D01*
X154005897Y-81100792D02*
X154005897Y-80099882D01*
X153624598Y-81196117D02*
X152862000Y-81196117D01*
X152051739Y-81005467D02*
X152099401Y-81053130D01*
X152242389Y-81100792D01*
X152337713Y-81100792D01*
X152480700Y-81053130D01*
X152576025Y-80957805D01*
X152623688Y-80862480D01*
X152671350Y-80671831D01*
X152671350Y-80528844D01*
X152623688Y-80338194D01*
X152576025Y-80242869D01*
X152480700Y-80147545D01*
X152337713Y-80099882D01*
X152242389Y-80099882D01*
X152099401Y-80147545D01*
X152051739Y-80195207D01*
X151432128Y-80099882D02*
X151241479Y-80099882D01*
X151146154Y-80147545D01*
X151050829Y-80242869D01*
X151003167Y-80433519D01*
X151003167Y-80767155D01*
X151050829Y-80957805D01*
X151146154Y-81053130D01*
X151241479Y-81100792D01*
X151432128Y-81100792D01*
X151527453Y-81053130D01*
X151622778Y-80957805D01*
X151670440Y-80767155D01*
X151670440Y-80433519D01*
X151622778Y-80242869D01*
X151527453Y-80147545D01*
X151432128Y-80099882D01*
X150574205Y-81100792D02*
X150574205Y-80099882D01*
X150002257Y-81100792D01*
X150002257Y-80099882D01*
X149525633Y-81100792D02*
X149525633Y-80099882D01*
X148953684Y-81100792D01*
X148953684Y-80099882D01*
D13*
X154520857Y-27919142D02*
X154568476Y-27966761D01*
X154711333Y-28014380D01*
X154806571Y-28014380D01*
X154949428Y-27966761D01*
X155044666Y-27871523D01*
X155092285Y-27776285D01*
X155139904Y-27585809D01*
X155139904Y-27442952D01*
X155092285Y-27252476D01*
X155044666Y-27157238D01*
X154949428Y-27062000D01*
X154806571Y-27014380D01*
X154711333Y-27014380D01*
X154568476Y-27062000D01*
X154520857Y-27109619D01*
X154139904Y-27109619D02*
X154092285Y-27062000D01*
X153997047Y-27014380D01*
X153758952Y-27014380D01*
X153663714Y-27062000D01*
X153616095Y-27109619D01*
X153568476Y-27204857D01*
X153568476Y-27300095D01*
X153616095Y-27442952D01*
X154187523Y-28014380D01*
X153568476Y-28014380D01*
X153187523Y-27109619D02*
X153139904Y-27062000D01*
X153044666Y-27014380D01*
X152806571Y-27014380D01*
X152711333Y-27062000D01*
X152663714Y-27109619D01*
X152616095Y-27204857D01*
X152616095Y-27300095D01*
X152663714Y-27442952D01*
X153235142Y-28014380D01*
X152616095Y-28014380D01*
X151187142Y-37841142D02*
X151234761Y-37793523D01*
X151282380Y-37650666D01*
X151282380Y-37555428D01*
X151234761Y-37412571D01*
X151139523Y-37317333D01*
X151044285Y-37269714D01*
X150853809Y-37222095D01*
X150710952Y-37222095D01*
X150520476Y-37269714D01*
X150425238Y-37317333D01*
X150330000Y-37412571D01*
X150282380Y-37555428D01*
X150282380Y-37650666D01*
X150330000Y-37793523D01*
X150377619Y-37841142D01*
X151282380Y-38793523D02*
X151282380Y-38222095D01*
X151282380Y-38507809D02*
X150282380Y-38507809D01*
X150425238Y-38412571D01*
X150520476Y-38317333D01*
X150568095Y-38222095D01*
X150282380Y-39126857D02*
X150282380Y-39745904D01*
X150663333Y-39412571D01*
X150663333Y-39555428D01*
X150710952Y-39650666D01*
X150758571Y-39698285D01*
X150853809Y-39745904D01*
X151091904Y-39745904D01*
X151187142Y-39698285D01*
X151234761Y-39650666D01*
X151282380Y-39555428D01*
X151282380Y-39269714D01*
X151234761Y-39174476D01*
X151187142Y-39126857D01*
X167339904Y-37174380D02*
X167339904Y-37983904D01*
X167292285Y-38079142D01*
X167244666Y-38126761D01*
X167149428Y-38174380D01*
X166958952Y-38174380D01*
X166863714Y-38126761D01*
X166816095Y-38079142D01*
X166768476Y-37983904D01*
X166768476Y-37174380D01*
X165816095Y-37174380D02*
X166292285Y-37174380D01*
X166339904Y-37650571D01*
X166292285Y-37602952D01*
X166197047Y-37555333D01*
X165958952Y-37555333D01*
X165863714Y-37602952D01*
X165816095Y-37650571D01*
X165768476Y-37745809D01*
X165768476Y-37983904D01*
X165816095Y-38079142D01*
X165863714Y-38126761D01*
X165958952Y-38174380D01*
X166197047Y-38174380D01*
X166292285Y-38126761D01*
X166339904Y-38079142D01*
X163452761Y-27022476D02*
X163500380Y-27165333D01*
X163500380Y-27403428D01*
X163452761Y-27498666D01*
X163405142Y-27546285D01*
X163309904Y-27593904D01*
X163214666Y-27593904D01*
X163119428Y-27546285D01*
X163071809Y-27498666D01*
X163024190Y-27403428D01*
X162976571Y-27212952D01*
X162928952Y-27117714D01*
X162881333Y-27070095D01*
X162786095Y-27022476D01*
X162690857Y-27022476D01*
X162595619Y-27070095D01*
X162548000Y-27117714D01*
X162500380Y-27212952D01*
X162500380Y-27451047D01*
X162548000Y-27593904D01*
X162500380Y-27927238D02*
X163500380Y-28165333D01*
X162786095Y-28355809D01*
X163500380Y-28546285D01*
X162500380Y-28784380D01*
X162500380Y-29641523D02*
X162500380Y-29165333D01*
X162976571Y-29117714D01*
X162928952Y-29165333D01*
X162881333Y-29260571D01*
X162881333Y-29498666D01*
X162928952Y-29593904D01*
X162976571Y-29641523D01*
X163071809Y-29689142D01*
X163309904Y-29689142D01*
X163405142Y-29641523D01*
X163452761Y-29593904D01*
X163500380Y-29498666D01*
X163500380Y-29260571D01*
X163452761Y-29165333D01*
X163405142Y-29117714D01*
X162928952Y-30260571D02*
X162881333Y-30165333D01*
X162833714Y-30117714D01*
X162738476Y-30070095D01*
X162690857Y-30070095D01*
X162595619Y-30117714D01*
X162548000Y-30165333D01*
X162500380Y-30260571D01*
X162500380Y-30451047D01*
X162548000Y-30546285D01*
X162595619Y-30593904D01*
X162690857Y-30641523D01*
X162738476Y-30641523D01*
X162833714Y-30593904D01*
X162881333Y-30546285D01*
X162928952Y-30451047D01*
X162928952Y-30260571D01*
X162976571Y-30165333D01*
X163024190Y-30117714D01*
X163119428Y-30070095D01*
X163309904Y-30070095D01*
X163405142Y-30117714D01*
X163452761Y-30165333D01*
X163500380Y-30260571D01*
X163500380Y-30451047D01*
X163452761Y-30546285D01*
X163405142Y-30593904D01*
X163309904Y-30641523D01*
X163119428Y-30641523D01*
X163024190Y-30593904D01*
X162976571Y-30546285D01*
X162928952Y-30451047D01*
X168998857Y-35285142D02*
X169046476Y-35332761D01*
X169189333Y-35380380D01*
X169284571Y-35380380D01*
X169427428Y-35332761D01*
X169522666Y-35237523D01*
X169570285Y-35142285D01*
X169617904Y-34951809D01*
X169617904Y-34808952D01*
X169570285Y-34618476D01*
X169522666Y-34523238D01*
X169427428Y-34428000D01*
X169284571Y-34380380D01*
X169189333Y-34380380D01*
X169046476Y-34428000D01*
X168998857Y-34475619D01*
X168617904Y-34475619D02*
X168570285Y-34428000D01*
X168475047Y-34380380D01*
X168236952Y-34380380D01*
X168141714Y-34428000D01*
X168094095Y-34475619D01*
X168046476Y-34570857D01*
X168046476Y-34666095D01*
X168094095Y-34808952D01*
X168665523Y-35380380D01*
X168046476Y-35380380D01*
X167189333Y-34713714D02*
X167189333Y-35380380D01*
X167427428Y-34332761D02*
X167665523Y-35047047D01*
X167046476Y-35047047D01*
X161601142Y-45715142D02*
X161648761Y-45667523D01*
X161696380Y-45524666D01*
X161696380Y-45429428D01*
X161648761Y-45286571D01*
X161553523Y-45191333D01*
X161458285Y-45143714D01*
X161267809Y-45096095D01*
X161124952Y-45096095D01*
X160934476Y-45143714D01*
X160839238Y-45191333D01*
X160744000Y-45286571D01*
X160696380Y-45429428D01*
X160696380Y-45524666D01*
X160744000Y-45667523D01*
X160791619Y-45715142D01*
X160791619Y-46096095D02*
X160744000Y-46143714D01*
X160696380Y-46238952D01*
X160696380Y-46477047D01*
X160744000Y-46572285D01*
X160791619Y-46619904D01*
X160886857Y-46667523D01*
X160982095Y-46667523D01*
X161124952Y-46619904D01*
X161696380Y-46048476D01*
X161696380Y-46667523D01*
X160696380Y-47000857D02*
X160696380Y-47619904D01*
X161077333Y-47286571D01*
X161077333Y-47429428D01*
X161124952Y-47524666D01*
X161172571Y-47572285D01*
X161267809Y-47619904D01*
X161505904Y-47619904D01*
X161601142Y-47572285D01*
X161648761Y-47524666D01*
X161696380Y-47429428D01*
X161696380Y-47143714D01*
X161648761Y-47048476D01*
X161601142Y-47000857D01*
X133661142Y-27935142D02*
X133708761Y-27887523D01*
X133756380Y-27744666D01*
X133756380Y-27649428D01*
X133708761Y-27506571D01*
X133613523Y-27411333D01*
X133518285Y-27363714D01*
X133327809Y-27316095D01*
X133184952Y-27316095D01*
X132994476Y-27363714D01*
X132899238Y-27411333D01*
X132804000Y-27506571D01*
X132756380Y-27649428D01*
X132756380Y-27744666D01*
X132804000Y-27887523D01*
X132851619Y-27935142D01*
X132851619Y-28316095D02*
X132804000Y-28363714D01*
X132756380Y-28458952D01*
X132756380Y-28697047D01*
X132804000Y-28792285D01*
X132851619Y-28839904D01*
X132946857Y-28887523D01*
X133042095Y-28887523D01*
X133184952Y-28839904D01*
X133756380Y-28268476D01*
X133756380Y-28887523D01*
X133756380Y-29839904D02*
X133756380Y-29268476D01*
X133756380Y-29554190D02*
X132756380Y-29554190D01*
X132899238Y-29458952D01*
X132994476Y-29363714D01*
X133042095Y-29268476D01*
X130867142Y-27935142D02*
X130914761Y-27887523D01*
X130962380Y-27744666D01*
X130962380Y-27649428D01*
X130914761Y-27506571D01*
X130819523Y-27411333D01*
X130724285Y-27363714D01*
X130533809Y-27316095D01*
X130390952Y-27316095D01*
X130200476Y-27363714D01*
X130105238Y-27411333D01*
X130010000Y-27506571D01*
X129962380Y-27649428D01*
X129962380Y-27744666D01*
X130010000Y-27887523D01*
X130057619Y-27935142D01*
X130057619Y-28316095D02*
X130010000Y-28363714D01*
X129962380Y-28458952D01*
X129962380Y-28697047D01*
X130010000Y-28792285D01*
X130057619Y-28839904D01*
X130152857Y-28887523D01*
X130248095Y-28887523D01*
X130390952Y-28839904D01*
X130962380Y-28268476D01*
X130962380Y-28887523D01*
X129962380Y-29506571D02*
X129962380Y-29601809D01*
X130010000Y-29697047D01*
X130057619Y-29744666D01*
X130152857Y-29792285D01*
X130343333Y-29839904D01*
X130581428Y-29839904D01*
X130771904Y-29792285D01*
X130867142Y-29744666D01*
X130914761Y-29697047D01*
X130962380Y-29601809D01*
X130962380Y-29506571D01*
X130914761Y-29411333D01*
X130867142Y-29363714D01*
X130771904Y-29316095D01*
X130581428Y-29268476D01*
X130343333Y-29268476D01*
X130152857Y-29316095D01*
X130057619Y-29363714D01*
X130010000Y-29411333D01*
X129962380Y-29506571D01*
X129343142Y-27935142D02*
X129390761Y-27887523D01*
X129438380Y-27744666D01*
X129438380Y-27649428D01*
X129390761Y-27506571D01*
X129295523Y-27411333D01*
X129200285Y-27363714D01*
X129009809Y-27316095D01*
X128866952Y-27316095D01*
X128676476Y-27363714D01*
X128581238Y-27411333D01*
X128486000Y-27506571D01*
X128438380Y-27649428D01*
X128438380Y-27744666D01*
X128486000Y-27887523D01*
X128533619Y-27935142D01*
X129438380Y-28887523D02*
X129438380Y-28316095D01*
X129438380Y-28601809D02*
X128438380Y-28601809D01*
X128581238Y-28506571D01*
X128676476Y-28411333D01*
X128724095Y-28316095D01*
X129438380Y-29363714D02*
X129438380Y-29554190D01*
X129390761Y-29649428D01*
X129343142Y-29697047D01*
X129200285Y-29792285D01*
X129009809Y-29839904D01*
X128628857Y-29839904D01*
X128533619Y-29792285D01*
X128486000Y-29744666D01*
X128438380Y-29649428D01*
X128438380Y-29458952D01*
X128486000Y-29363714D01*
X128533619Y-29316095D01*
X128628857Y-29268476D01*
X128866952Y-29268476D01*
X128962190Y-29316095D01*
X129009809Y-29363714D01*
X129057428Y-29458952D01*
X129057428Y-29649428D01*
X129009809Y-29744666D01*
X128962190Y-29792285D01*
X128866952Y-29839904D01*
X126295142Y-27935142D02*
X126342761Y-27887523D01*
X126390380Y-27744666D01*
X126390380Y-27649428D01*
X126342761Y-27506571D01*
X126247523Y-27411333D01*
X126152285Y-27363714D01*
X125961809Y-27316095D01*
X125818952Y-27316095D01*
X125628476Y-27363714D01*
X125533238Y-27411333D01*
X125438000Y-27506571D01*
X125390380Y-27649428D01*
X125390380Y-27744666D01*
X125438000Y-27887523D01*
X125485619Y-27935142D01*
X126390380Y-28887523D02*
X126390380Y-28316095D01*
X126390380Y-28601809D02*
X125390380Y-28601809D01*
X125533238Y-28506571D01*
X125628476Y-28411333D01*
X125676095Y-28316095D01*
X125818952Y-29458952D02*
X125771333Y-29363714D01*
X125723714Y-29316095D01*
X125628476Y-29268476D01*
X125580857Y-29268476D01*
X125485619Y-29316095D01*
X125438000Y-29363714D01*
X125390380Y-29458952D01*
X125390380Y-29649428D01*
X125438000Y-29744666D01*
X125485619Y-29792285D01*
X125580857Y-29839904D01*
X125628476Y-29839904D01*
X125723714Y-29792285D01*
X125771333Y-29744666D01*
X125818952Y-29649428D01*
X125818952Y-29458952D01*
X125866571Y-29363714D01*
X125914190Y-29316095D01*
X126009428Y-29268476D01*
X126199904Y-29268476D01*
X126295142Y-29316095D01*
X126342761Y-29363714D01*
X126390380Y-29458952D01*
X126390380Y-29649428D01*
X126342761Y-29744666D01*
X126295142Y-29792285D01*
X126199904Y-29839904D01*
X126009428Y-29839904D01*
X125914190Y-29792285D01*
X125866571Y-29744666D01*
X125818952Y-29649428D01*
X121817142Y-30983142D02*
X121864761Y-30935523D01*
X121912380Y-30792666D01*
X121912380Y-30697428D01*
X121864761Y-30554571D01*
X121769523Y-30459333D01*
X121674285Y-30411714D01*
X121483809Y-30364095D01*
X121340952Y-30364095D01*
X121150476Y-30411714D01*
X121055238Y-30459333D01*
X120960000Y-30554571D01*
X120912380Y-30697428D01*
X120912380Y-30792666D01*
X120960000Y-30935523D01*
X121007619Y-30983142D01*
X121912380Y-31935523D02*
X121912380Y-31364095D01*
X121912380Y-31649809D02*
X120912380Y-31649809D01*
X121055238Y-31554571D01*
X121150476Y-31459333D01*
X121198095Y-31364095D01*
X120912380Y-32268857D02*
X120912380Y-32935523D01*
X121912380Y-32506952D01*
X136709142Y-27935142D02*
X136756761Y-27887523D01*
X136804380Y-27744666D01*
X136804380Y-27649428D01*
X136756761Y-27506571D01*
X136661523Y-27411333D01*
X136566285Y-27363714D01*
X136375809Y-27316095D01*
X136232952Y-27316095D01*
X136042476Y-27363714D01*
X135947238Y-27411333D01*
X135852000Y-27506571D01*
X135804380Y-27649428D01*
X135804380Y-27744666D01*
X135852000Y-27887523D01*
X135899619Y-27935142D01*
X136804380Y-28887523D02*
X136804380Y-28316095D01*
X136804380Y-28601809D02*
X135804380Y-28601809D01*
X135947238Y-28506571D01*
X136042476Y-28411333D01*
X136090095Y-28316095D01*
X135804380Y-29744666D02*
X135804380Y-29554190D01*
X135852000Y-29458952D01*
X135899619Y-29411333D01*
X136042476Y-29316095D01*
X136232952Y-29268476D01*
X136613904Y-29268476D01*
X136709142Y-29316095D01*
X136756761Y-29363714D01*
X136804380Y-29458952D01*
X136804380Y-29649428D01*
X136756761Y-29744666D01*
X136709142Y-29792285D01*
X136613904Y-29839904D01*
X136375809Y-29839904D01*
X136280571Y-29792285D01*
X136232952Y-29744666D01*
X136185333Y-29649428D01*
X136185333Y-29458952D01*
X136232952Y-29363714D01*
X136280571Y-29316095D01*
X136375809Y-29268476D01*
X127819142Y-27935142D02*
X127866761Y-27887523D01*
X127914380Y-27744666D01*
X127914380Y-27649428D01*
X127866761Y-27506571D01*
X127771523Y-27411333D01*
X127676285Y-27363714D01*
X127485809Y-27316095D01*
X127342952Y-27316095D01*
X127152476Y-27363714D01*
X127057238Y-27411333D01*
X126962000Y-27506571D01*
X126914380Y-27649428D01*
X126914380Y-27744666D01*
X126962000Y-27887523D01*
X127009619Y-27935142D01*
X127914380Y-28887523D02*
X127914380Y-28316095D01*
X127914380Y-28601809D02*
X126914380Y-28601809D01*
X127057238Y-28506571D01*
X127152476Y-28411333D01*
X127200095Y-28316095D01*
X126914380Y-29792285D02*
X126914380Y-29316095D01*
X127390571Y-29268476D01*
X127342952Y-29316095D01*
X127295333Y-29411333D01*
X127295333Y-29649428D01*
X127342952Y-29744666D01*
X127390571Y-29792285D01*
X127485809Y-29839904D01*
X127723904Y-29839904D01*
X127819142Y-29792285D01*
X127866761Y-29744666D01*
X127914380Y-29649428D01*
X127914380Y-29411333D01*
X127866761Y-29316095D01*
X127819142Y-29268476D01*
X124771142Y-27935142D02*
X124818761Y-27887523D01*
X124866380Y-27744666D01*
X124866380Y-27649428D01*
X124818761Y-27506571D01*
X124723523Y-27411333D01*
X124628285Y-27363714D01*
X124437809Y-27316095D01*
X124294952Y-27316095D01*
X124104476Y-27363714D01*
X124009238Y-27411333D01*
X123914000Y-27506571D01*
X123866380Y-27649428D01*
X123866380Y-27744666D01*
X123914000Y-27887523D01*
X123961619Y-27935142D01*
X124866380Y-28887523D02*
X124866380Y-28316095D01*
X124866380Y-28601809D02*
X123866380Y-28601809D01*
X124009238Y-28506571D01*
X124104476Y-28411333D01*
X124152095Y-28316095D01*
X124199714Y-29744666D02*
X124866380Y-29744666D01*
X123818761Y-29506571D02*
X124533047Y-29268476D01*
X124533047Y-29887523D01*
X160077142Y-45715142D02*
X160124761Y-45667523D01*
X160172380Y-45524666D01*
X160172380Y-45429428D01*
X160124761Y-45286571D01*
X160029523Y-45191333D01*
X159934285Y-45143714D01*
X159743809Y-45096095D01*
X159600952Y-45096095D01*
X159410476Y-45143714D01*
X159315238Y-45191333D01*
X159220000Y-45286571D01*
X159172380Y-45429428D01*
X159172380Y-45524666D01*
X159220000Y-45667523D01*
X159267619Y-45715142D01*
X160172380Y-46667523D02*
X160172380Y-46096095D01*
X160172380Y-46381809D02*
X159172380Y-46381809D01*
X159315238Y-46286571D01*
X159410476Y-46191333D01*
X159458095Y-46096095D01*
X160172380Y-47619904D02*
X160172380Y-47048476D01*
X160172380Y-47334190D02*
X159172380Y-47334190D01*
X159315238Y-47238952D01*
X159410476Y-47143714D01*
X159458095Y-47048476D01*
X160745142Y-60447142D02*
X160792761Y-60399523D01*
X160840380Y-60256666D01*
X160840380Y-60161428D01*
X160792761Y-60018571D01*
X160697523Y-59923333D01*
X160602285Y-59875714D01*
X160411809Y-59828095D01*
X160268952Y-59828095D01*
X160078476Y-59875714D01*
X159983238Y-59923333D01*
X159888000Y-60018571D01*
X159840380Y-60161428D01*
X159840380Y-60256666D01*
X159888000Y-60399523D01*
X159935619Y-60447142D01*
X160840380Y-61399523D02*
X160840380Y-60828095D01*
X160840380Y-61113809D02*
X159840380Y-61113809D01*
X159983238Y-61018571D01*
X160078476Y-60923333D01*
X160126095Y-60828095D01*
X159840380Y-62018571D02*
X159840380Y-62113809D01*
X159888000Y-62209047D01*
X159935619Y-62256666D01*
X160030857Y-62304285D01*
X160221333Y-62351904D01*
X160459428Y-62351904D01*
X160649904Y-62304285D01*
X160745142Y-62256666D01*
X160792761Y-62209047D01*
X160840380Y-62113809D01*
X160840380Y-62018571D01*
X160792761Y-61923333D01*
X160745142Y-61875714D01*
X160649904Y-61828095D01*
X160459428Y-61780476D01*
X160221333Y-61780476D01*
X160030857Y-61828095D01*
X159935619Y-61875714D01*
X159888000Y-61923333D01*
X159840380Y-62018571D01*
X121772666Y-73799142D02*
X121820285Y-73846761D01*
X121963142Y-73894380D01*
X122058380Y-73894380D01*
X122201238Y-73846761D01*
X122296476Y-73751523D01*
X122344095Y-73656285D01*
X122391714Y-73465809D01*
X122391714Y-73322952D01*
X122344095Y-73132476D01*
X122296476Y-73037238D01*
X122201238Y-72942000D01*
X122058380Y-72894380D01*
X121963142Y-72894380D01*
X121820285Y-72942000D01*
X121772666Y-72989619D01*
X121296476Y-73894380D02*
X121106000Y-73894380D01*
X121010761Y-73846761D01*
X120963142Y-73799142D01*
X120867904Y-73656285D01*
X120820285Y-73465809D01*
X120820285Y-73084857D01*
X120867904Y-72989619D01*
X120915523Y-72942000D01*
X121010761Y-72894380D01*
X121201238Y-72894380D01*
X121296476Y-72942000D01*
X121344095Y-72989619D01*
X121391714Y-73084857D01*
X121391714Y-73322952D01*
X121344095Y-73418190D01*
X121296476Y-73465809D01*
X121201238Y-73513428D01*
X121010761Y-73513428D01*
X120915523Y-73465809D01*
X120867904Y-73418190D01*
X120820285Y-73322952D01*
X127565142Y-67019333D02*
X127612761Y-66971714D01*
X127660380Y-66828857D01*
X127660380Y-66733619D01*
X127612761Y-66590761D01*
X127517523Y-66495523D01*
X127422285Y-66447904D01*
X127231809Y-66400285D01*
X127088952Y-66400285D01*
X126898476Y-66447904D01*
X126803238Y-66495523D01*
X126708000Y-66590761D01*
X126660380Y-66733619D01*
X126660380Y-66828857D01*
X126708000Y-66971714D01*
X126755619Y-67019333D01*
X127088952Y-67590761D02*
X127041333Y-67495523D01*
X126993714Y-67447904D01*
X126898476Y-67400285D01*
X126850857Y-67400285D01*
X126755619Y-67447904D01*
X126708000Y-67495523D01*
X126660380Y-67590761D01*
X126660380Y-67781238D01*
X126708000Y-67876476D01*
X126755619Y-67924095D01*
X126850857Y-67971714D01*
X126898476Y-67971714D01*
X126993714Y-67924095D01*
X127041333Y-67876476D01*
X127088952Y-67781238D01*
X127088952Y-67590761D01*
X127136571Y-67495523D01*
X127184190Y-67447904D01*
X127279428Y-67400285D01*
X127469904Y-67400285D01*
X127565142Y-67447904D01*
X127612761Y-67495523D01*
X127660380Y-67590761D01*
X127660380Y-67781238D01*
X127612761Y-67876476D01*
X127565142Y-67924095D01*
X127469904Y-67971714D01*
X127279428Y-67971714D01*
X127184190Y-67924095D01*
X127136571Y-67876476D01*
X127088952Y-67781238D01*
X142259166Y-68211142D02*
X142306785Y-68258761D01*
X142449642Y-68306380D01*
X142544880Y-68306380D01*
X142687738Y-68258761D01*
X142782976Y-68163523D01*
X142830595Y-68068285D01*
X142878214Y-67877809D01*
X142878214Y-67734952D01*
X142830595Y-67544476D01*
X142782976Y-67449238D01*
X142687738Y-67354000D01*
X142544880Y-67306380D01*
X142449642Y-67306380D01*
X142306785Y-67354000D01*
X142259166Y-67401619D01*
X141402023Y-67306380D02*
X141592500Y-67306380D01*
X141687738Y-67354000D01*
X141735357Y-67401619D01*
X141830595Y-67544476D01*
X141878214Y-67734952D01*
X141878214Y-68115904D01*
X141830595Y-68211142D01*
X141782976Y-68258761D01*
X141687738Y-68306380D01*
X141497261Y-68306380D01*
X141402023Y-68258761D01*
X141354404Y-68211142D01*
X141306785Y-68115904D01*
X141306785Y-67877809D01*
X141354404Y-67782571D01*
X141402023Y-67734952D01*
X141497261Y-67687333D01*
X141687738Y-67687333D01*
X141782976Y-67734952D01*
X141830595Y-67782571D01*
X141878214Y-67877809D01*
X130829166Y-66367142D02*
X130876785Y-66414761D01*
X131019642Y-66462380D01*
X131114880Y-66462380D01*
X131257738Y-66414761D01*
X131352976Y-66319523D01*
X131400595Y-66224285D01*
X131448214Y-66033809D01*
X131448214Y-65890952D01*
X131400595Y-65700476D01*
X131352976Y-65605238D01*
X131257738Y-65510000D01*
X131114880Y-65462380D01*
X131019642Y-65462380D01*
X130876785Y-65510000D01*
X130829166Y-65557619D01*
X129924404Y-65462380D02*
X130400595Y-65462380D01*
X130448214Y-65938571D01*
X130400595Y-65890952D01*
X130305357Y-65843333D01*
X130067261Y-65843333D01*
X129972023Y-65890952D01*
X129924404Y-65938571D01*
X129876785Y-66033809D01*
X129876785Y-66271904D01*
X129924404Y-66367142D01*
X129972023Y-66414761D01*
X130067261Y-66462380D01*
X130305357Y-66462380D01*
X130400595Y-66414761D01*
X130448214Y-66367142D01*
X133724666Y-50779142D02*
X133772285Y-50826761D01*
X133915142Y-50874380D01*
X134010380Y-50874380D01*
X134153238Y-50826761D01*
X134248476Y-50731523D01*
X134296095Y-50636285D01*
X134343714Y-50445809D01*
X134343714Y-50302952D01*
X134296095Y-50112476D01*
X134248476Y-50017238D01*
X134153238Y-49922000D01*
X134010380Y-49874380D01*
X133915142Y-49874380D01*
X133772285Y-49922000D01*
X133724666Y-49969619D01*
X132867523Y-50207714D02*
X132867523Y-50874380D01*
X133105619Y-49826761D02*
X133343714Y-50541047D01*
X132724666Y-50541047D01*
X146902142Y-52820833D02*
X146949761Y-52773214D01*
X146997380Y-52630357D01*
X146997380Y-52535119D01*
X146949761Y-52392261D01*
X146854523Y-52297023D01*
X146759285Y-52249404D01*
X146568809Y-52201785D01*
X146425952Y-52201785D01*
X146235476Y-52249404D01*
X146140238Y-52297023D01*
X146045000Y-52392261D01*
X145997380Y-52535119D01*
X145997380Y-52630357D01*
X146045000Y-52773214D01*
X146092619Y-52820833D01*
X145997380Y-53154166D02*
X145997380Y-53773214D01*
X146378333Y-53439880D01*
X146378333Y-53582738D01*
X146425952Y-53677976D01*
X146473571Y-53725595D01*
X146568809Y-53773214D01*
X146806904Y-53773214D01*
X146902142Y-53725595D01*
X146949761Y-53677976D01*
X146997380Y-53582738D01*
X146997380Y-53297023D01*
X146949761Y-53201785D01*
X146902142Y-53154166D01*
X138296666Y-50939142D02*
X138344285Y-50986761D01*
X138487142Y-51034380D01*
X138582380Y-51034380D01*
X138725238Y-50986761D01*
X138820476Y-50891523D01*
X138868095Y-50796285D01*
X138915714Y-50605809D01*
X138915714Y-50462952D01*
X138868095Y-50272476D01*
X138820476Y-50177238D01*
X138725238Y-50082000D01*
X138582380Y-50034380D01*
X138487142Y-50034380D01*
X138344285Y-50082000D01*
X138296666Y-50129619D01*
X137915714Y-50129619D02*
X137868095Y-50082000D01*
X137772857Y-50034380D01*
X137534761Y-50034380D01*
X137439523Y-50082000D01*
X137391904Y-50129619D01*
X137344285Y-50224857D01*
X137344285Y-50320095D01*
X137391904Y-50462952D01*
X137963333Y-51034380D01*
X137344285Y-51034380D01*
X130105142Y-47969333D02*
X130152761Y-47921714D01*
X130200380Y-47778857D01*
X130200380Y-47683619D01*
X130152761Y-47540761D01*
X130057523Y-47445523D01*
X129962285Y-47397904D01*
X129771809Y-47350285D01*
X129628952Y-47350285D01*
X129438476Y-47397904D01*
X129343238Y-47445523D01*
X129248000Y-47540761D01*
X129200380Y-47683619D01*
X129200380Y-47778857D01*
X129248000Y-47921714D01*
X129295619Y-47969333D01*
X130200380Y-48921714D02*
X130200380Y-48350285D01*
X130200380Y-48636000D02*
X129200380Y-48636000D01*
X129343238Y-48540761D01*
X129438476Y-48445523D01*
X129486095Y-48350285D01*
X136320190Y-43534190D02*
X136320190Y-44010380D01*
X136653523Y-43010380D02*
X136320190Y-43534190D01*
X135986857Y-43010380D01*
X135129714Y-44010380D02*
X135701142Y-44010380D01*
X135415428Y-44010380D02*
X135415428Y-43010380D01*
X135510666Y-43153238D01*
X135605904Y-43248476D01*
X135701142Y-43296095D01*
X158187904Y-43524380D02*
X157616476Y-43524380D01*
X157902190Y-44524380D02*
X157902190Y-43524380D01*
X157283142Y-44524380D02*
X157283142Y-43524380D01*
X156902190Y-43524380D01*
X156806952Y-43572000D01*
X156759333Y-43619619D01*
X156711714Y-43714857D01*
X156711714Y-43857714D01*
X156759333Y-43952952D01*
X156806952Y-44000571D01*
X156902190Y-44048190D01*
X157283142Y-44048190D01*
X155806952Y-43524380D02*
X156283142Y-43524380D01*
X156330761Y-44000571D01*
X156283142Y-43952952D01*
X156187904Y-43905333D01*
X155949809Y-43905333D01*
X155854571Y-43952952D01*
X155806952Y-44000571D01*
X155759333Y-44095809D01*
X155759333Y-44333904D01*
X155806952Y-44429142D01*
X155854571Y-44476761D01*
X155949809Y-44524380D01*
X156187904Y-44524380D01*
X156283142Y-44476761D01*
X156330761Y-44429142D01*
X161489904Y-77738380D02*
X160918476Y-77738380D01*
X161204190Y-78738380D02*
X161204190Y-77738380D01*
X160585142Y-78738380D02*
X160585142Y-77738380D01*
X160204190Y-77738380D01*
X160108952Y-77786000D01*
X160061333Y-77833619D01*
X160013714Y-77928857D01*
X160013714Y-78071714D01*
X160061333Y-78166952D01*
X160108952Y-78214571D01*
X160204190Y-78262190D01*
X160585142Y-78262190D01*
X159156571Y-78071714D02*
X159156571Y-78738380D01*
X159394666Y-77690761D02*
X159632761Y-78405047D01*
X159013714Y-78405047D01*
X163267904Y-73420380D02*
X162696476Y-73420380D01*
X162982190Y-74420380D02*
X162982190Y-73420380D01*
X162363142Y-74420380D02*
X162363142Y-73420380D01*
X161982190Y-73420380D01*
X161886952Y-73468000D01*
X161839333Y-73515619D01*
X161791714Y-73610857D01*
X161791714Y-73753714D01*
X161839333Y-73848952D01*
X161886952Y-73896571D01*
X161982190Y-73944190D01*
X162363142Y-73944190D01*
X161410761Y-73515619D02*
X161363142Y-73468000D01*
X161267904Y-73420380D01*
X161029809Y-73420380D01*
X160934571Y-73468000D01*
X160886952Y-73515619D01*
X160839333Y-73610857D01*
X160839333Y-73706095D01*
X160886952Y-73848952D01*
X161458380Y-74420380D01*
X160839333Y-74420380D01*
X165045904Y-24144380D02*
X164474476Y-24144380D01*
X164760190Y-25144380D02*
X164760190Y-24144380D01*
X164141142Y-25144380D02*
X164141142Y-24144380D01*
X163760190Y-24144380D01*
X163664952Y-24192000D01*
X163617333Y-24239619D01*
X163569714Y-24334857D01*
X163569714Y-24477714D01*
X163617333Y-24572952D01*
X163664952Y-24620571D01*
X163760190Y-24668190D01*
X164141142Y-24668190D01*
X162617333Y-25144380D02*
X163188761Y-25144380D01*
X162903047Y-25144380D02*
X162903047Y-24144380D01*
X162998285Y-24287238D01*
X163093523Y-24382476D01*
X163188761Y-24430095D01*
X159600857Y-37666380D02*
X159934190Y-37190190D01*
X160172285Y-37666380D02*
X160172285Y-36666380D01*
X159791333Y-36666380D01*
X159696095Y-36714000D01*
X159648476Y-36761619D01*
X159600857Y-36856857D01*
X159600857Y-36999714D01*
X159648476Y-37094952D01*
X159696095Y-37142571D01*
X159791333Y-37190190D01*
X160172285Y-37190190D01*
X158648476Y-37666380D02*
X159219904Y-37666380D01*
X158934190Y-37666380D02*
X158934190Y-36666380D01*
X159029428Y-36809238D01*
X159124666Y-36904476D01*
X159219904Y-36952095D01*
X158077047Y-37094952D02*
X158172285Y-37047333D01*
X158219904Y-36999714D01*
X158267523Y-36904476D01*
X158267523Y-36856857D01*
X158219904Y-36761619D01*
X158172285Y-36714000D01*
X158077047Y-36666380D01*
X157886571Y-36666380D01*
X157791333Y-36714000D01*
X157743714Y-36761619D01*
X157696095Y-36856857D01*
X157696095Y-36904476D01*
X157743714Y-36999714D01*
X157791333Y-37047333D01*
X157886571Y-37094952D01*
X158077047Y-37094952D01*
X158172285Y-37142571D01*
X158219904Y-37190190D01*
X158267523Y-37285428D01*
X158267523Y-37475904D01*
X158219904Y-37571142D01*
X158172285Y-37618761D01*
X158077047Y-37666380D01*
X157886571Y-37666380D01*
X157791333Y-37618761D01*
X157743714Y-37571142D01*
X157696095Y-37475904D01*
X157696095Y-37285428D01*
X157743714Y-37190190D01*
X157791333Y-37142571D01*
X157886571Y-37094952D01*
X155092380Y-34285142D02*
X154616190Y-33951809D01*
X155092380Y-33713714D02*
X154092380Y-33713714D01*
X154092380Y-34094666D01*
X154140000Y-34189904D01*
X154187619Y-34237523D01*
X154282857Y-34285142D01*
X154425714Y-34285142D01*
X154520952Y-34237523D01*
X154568571Y-34189904D01*
X154616190Y-34094666D01*
X154616190Y-33713714D01*
X155092380Y-35237523D02*
X155092380Y-34666095D01*
X155092380Y-34951809D02*
X154092380Y-34951809D01*
X154235238Y-34856571D01*
X154330476Y-34761333D01*
X154378095Y-34666095D01*
X154092380Y-35570857D02*
X154092380Y-36237523D01*
X155092380Y-35808952D01*
X151409380Y-45461142D02*
X150933190Y-45127809D01*
X151409380Y-44889714D02*
X150409380Y-44889714D01*
X150409380Y-45270666D01*
X150457000Y-45365904D01*
X150504619Y-45413523D01*
X150599857Y-45461142D01*
X150742714Y-45461142D01*
X150837952Y-45413523D01*
X150885571Y-45365904D01*
X150933190Y-45270666D01*
X150933190Y-44889714D01*
X151409380Y-46413523D02*
X151409380Y-45842095D01*
X151409380Y-46127809D02*
X150409380Y-46127809D01*
X150552238Y-46032571D01*
X150647476Y-45937333D01*
X150695095Y-45842095D01*
X150409380Y-47270666D02*
X150409380Y-47080190D01*
X150457000Y-46984952D01*
X150504619Y-46937333D01*
X150647476Y-46842095D01*
X150837952Y-46794476D01*
X151218904Y-46794476D01*
X151314142Y-46842095D01*
X151361761Y-46889714D01*
X151409380Y-46984952D01*
X151409380Y-47175428D01*
X151361761Y-47270666D01*
X151314142Y-47318285D01*
X151218904Y-47365904D01*
X150980809Y-47365904D01*
X150885571Y-47318285D01*
X150837952Y-47270666D01*
X150790333Y-47175428D01*
X150790333Y-46984952D01*
X150837952Y-46889714D01*
X150885571Y-46842095D01*
X150980809Y-46794476D01*
X160108857Y-41509380D02*
X160442190Y-41033190D01*
X160680285Y-41509380D02*
X160680285Y-40509380D01*
X160299333Y-40509380D01*
X160204095Y-40557000D01*
X160156476Y-40604619D01*
X160108857Y-40699857D01*
X160108857Y-40842714D01*
X160156476Y-40937952D01*
X160204095Y-40985571D01*
X160299333Y-41033190D01*
X160680285Y-41033190D01*
X159156476Y-41509380D02*
X159727904Y-41509380D01*
X159442190Y-41509380D02*
X159442190Y-40509380D01*
X159537428Y-40652238D01*
X159632666Y-40747476D01*
X159727904Y-40795095D01*
X158251714Y-40509380D02*
X158727904Y-40509380D01*
X158775523Y-40985571D01*
X158727904Y-40937952D01*
X158632666Y-40890333D01*
X158394571Y-40890333D01*
X158299333Y-40937952D01*
X158251714Y-40985571D01*
X158204095Y-41080809D01*
X158204095Y-41318904D01*
X158251714Y-41414142D01*
X158299333Y-41461761D01*
X158394571Y-41509380D01*
X158632666Y-41509380D01*
X158727904Y-41461761D01*
X158775523Y-41414142D01*
X153314380Y-45461142D02*
X152838190Y-45127809D01*
X153314380Y-44889714D02*
X152314380Y-44889714D01*
X152314380Y-45270666D01*
X152362000Y-45365904D01*
X152409619Y-45413523D01*
X152504857Y-45461142D01*
X152647714Y-45461142D01*
X152742952Y-45413523D01*
X152790571Y-45365904D01*
X152838190Y-45270666D01*
X152838190Y-44889714D01*
X153314380Y-46413523D02*
X153314380Y-45842095D01*
X153314380Y-46127809D02*
X152314380Y-46127809D01*
X152457238Y-46032571D01*
X152552476Y-45937333D01*
X152600095Y-45842095D01*
X152647714Y-47270666D02*
X153314380Y-47270666D01*
X152266761Y-47032571D02*
X152981047Y-46794476D01*
X152981047Y-47413523D01*
X109562857Y-82022380D02*
X109896190Y-81546190D01*
X110134285Y-82022380D02*
X110134285Y-81022380D01*
X109753333Y-81022380D01*
X109658095Y-81070000D01*
X109610476Y-81117619D01*
X109562857Y-81212857D01*
X109562857Y-81355714D01*
X109610476Y-81450952D01*
X109658095Y-81498571D01*
X109753333Y-81546190D01*
X110134285Y-81546190D01*
X108610476Y-82022380D02*
X109181904Y-82022380D01*
X108896190Y-82022380D02*
X108896190Y-81022380D01*
X108991428Y-81165238D01*
X109086666Y-81260476D01*
X109181904Y-81308095D01*
X108229523Y-81117619D02*
X108181904Y-81070000D01*
X108086666Y-81022380D01*
X107848571Y-81022380D01*
X107753333Y-81070000D01*
X107705714Y-81117619D01*
X107658095Y-81212857D01*
X107658095Y-81308095D01*
X107705714Y-81450952D01*
X108277142Y-82022380D01*
X107658095Y-82022380D01*
X115150857Y-79162380D02*
X115484190Y-78686190D01*
X115722285Y-79162380D02*
X115722285Y-78162380D01*
X115341333Y-78162380D01*
X115246095Y-78210000D01*
X115198476Y-78257619D01*
X115150857Y-78352857D01*
X115150857Y-78495714D01*
X115198476Y-78590952D01*
X115246095Y-78638571D01*
X115341333Y-78686190D01*
X115722285Y-78686190D01*
X114198476Y-79162380D02*
X114769904Y-79162380D01*
X114484190Y-79162380D02*
X114484190Y-78162380D01*
X114579428Y-78305238D01*
X114674666Y-78400476D01*
X114769904Y-78448095D01*
X113246095Y-79162380D02*
X113817523Y-79162380D01*
X113531809Y-79162380D02*
X113531809Y-78162380D01*
X113627047Y-78305238D01*
X113722285Y-78400476D01*
X113817523Y-78448095D01*
X120992857Y-79162380D02*
X121326190Y-78686190D01*
X121564285Y-79162380D02*
X121564285Y-78162380D01*
X121183333Y-78162380D01*
X121088095Y-78210000D01*
X121040476Y-78257619D01*
X120992857Y-78352857D01*
X120992857Y-78495714D01*
X121040476Y-78590952D01*
X121088095Y-78638571D01*
X121183333Y-78686190D01*
X121564285Y-78686190D01*
X120040476Y-79162380D02*
X120611904Y-79162380D01*
X120326190Y-79162380D02*
X120326190Y-78162380D01*
X120421428Y-78305238D01*
X120516666Y-78400476D01*
X120611904Y-78448095D01*
X119421428Y-78162380D02*
X119326190Y-78162380D01*
X119230952Y-78210000D01*
X119183333Y-78257619D01*
X119135714Y-78352857D01*
X119088095Y-78543333D01*
X119088095Y-78781428D01*
X119135714Y-78971904D01*
X119183333Y-79067142D01*
X119230952Y-79114761D01*
X119326190Y-79162380D01*
X119421428Y-79162380D01*
X119516666Y-79114761D01*
X119564285Y-79067142D01*
X119611904Y-78971904D01*
X119659523Y-78781428D01*
X119659523Y-78543333D01*
X119611904Y-78352857D01*
X119564285Y-78257619D01*
X119516666Y-78210000D01*
X119421428Y-78162380D01*
X120008666Y-67732380D02*
X120342000Y-67256190D01*
X120580095Y-67732380D02*
X120580095Y-66732380D01*
X120199142Y-66732380D01*
X120103904Y-66780000D01*
X120056285Y-66827619D01*
X120008666Y-66922857D01*
X120008666Y-67065714D01*
X120056285Y-67160952D01*
X120103904Y-67208571D01*
X120199142Y-67256190D01*
X120580095Y-67256190D01*
X119532476Y-67732380D02*
X119342000Y-67732380D01*
X119246761Y-67684761D01*
X119199142Y-67637142D01*
X119103904Y-67494285D01*
X119056285Y-67303809D01*
X119056285Y-66922857D01*
X119103904Y-66827619D01*
X119151523Y-66780000D01*
X119246761Y-66732380D01*
X119437238Y-66732380D01*
X119532476Y-66780000D01*
X119580095Y-66827619D01*
X119627714Y-66922857D01*
X119627714Y-67160952D01*
X119580095Y-67256190D01*
X119532476Y-67303809D01*
X119437238Y-67351428D01*
X119246761Y-67351428D01*
X119151523Y-67303809D01*
X119103904Y-67256190D01*
X119056285Y-67160952D01*
X114674666Y-64938380D02*
X115008000Y-64462190D01*
X115246095Y-64938380D02*
X115246095Y-63938380D01*
X114865142Y-63938380D01*
X114769904Y-63986000D01*
X114722285Y-64033619D01*
X114674666Y-64128857D01*
X114674666Y-64271714D01*
X114722285Y-64366952D01*
X114769904Y-64414571D01*
X114865142Y-64462190D01*
X115246095Y-64462190D01*
X114103238Y-64366952D02*
X114198476Y-64319333D01*
X114246095Y-64271714D01*
X114293714Y-64176476D01*
X114293714Y-64128857D01*
X114246095Y-64033619D01*
X114198476Y-63986000D01*
X114103238Y-63938380D01*
X113912761Y-63938380D01*
X113817523Y-63986000D01*
X113769904Y-64033619D01*
X113722285Y-64128857D01*
X113722285Y-64176476D01*
X113769904Y-64271714D01*
X113817523Y-64319333D01*
X113912761Y-64366952D01*
X114103238Y-64366952D01*
X114198476Y-64414571D01*
X114246095Y-64462190D01*
X114293714Y-64557428D01*
X114293714Y-64747904D01*
X114246095Y-64843142D01*
X114198476Y-64890761D01*
X114103238Y-64938380D01*
X113912761Y-64938380D01*
X113817523Y-64890761D01*
X113769904Y-64843142D01*
X113722285Y-64747904D01*
X113722285Y-64557428D01*
X113769904Y-64462190D01*
X113817523Y-64414571D01*
X113912761Y-64366952D01*
X114674666Y-67732380D02*
X115008000Y-67256190D01*
X115246095Y-67732380D02*
X115246095Y-66732380D01*
X114865142Y-66732380D01*
X114769904Y-66780000D01*
X114722285Y-66827619D01*
X114674666Y-66922857D01*
X114674666Y-67065714D01*
X114722285Y-67160952D01*
X114769904Y-67208571D01*
X114865142Y-67256190D01*
X115246095Y-67256190D01*
X114341333Y-66732380D02*
X113674666Y-66732380D01*
X114103238Y-67732380D01*
X109086666Y-70592380D02*
X109420000Y-70116190D01*
X109658095Y-70592380D02*
X109658095Y-69592380D01*
X109277142Y-69592380D01*
X109181904Y-69640000D01*
X109134285Y-69687619D01*
X109086666Y-69782857D01*
X109086666Y-69925714D01*
X109134285Y-70020952D01*
X109181904Y-70068571D01*
X109277142Y-70116190D01*
X109658095Y-70116190D01*
X108229523Y-69592380D02*
X108420000Y-69592380D01*
X108515238Y-69640000D01*
X108562857Y-69687619D01*
X108658095Y-69830476D01*
X108705714Y-70020952D01*
X108705714Y-70401904D01*
X108658095Y-70497142D01*
X108610476Y-70544761D01*
X108515238Y-70592380D01*
X108324761Y-70592380D01*
X108229523Y-70544761D01*
X108181904Y-70497142D01*
X108134285Y-70401904D01*
X108134285Y-70163809D01*
X108181904Y-70068571D01*
X108229523Y-70020952D01*
X108324761Y-69973333D01*
X108515238Y-69973333D01*
X108610476Y-70020952D01*
X108658095Y-70068571D01*
X108705714Y-70163809D01*
X146870380Y-64733333D02*
X146394190Y-64400000D01*
X146870380Y-64161904D02*
X145870380Y-64161904D01*
X145870380Y-64542857D01*
X145918000Y-64638095D01*
X145965619Y-64685714D01*
X146060857Y-64733333D01*
X146203714Y-64733333D01*
X146298952Y-64685714D01*
X146346571Y-64638095D01*
X146394190Y-64542857D01*
X146394190Y-64161904D01*
X145870380Y-65638095D02*
X145870380Y-65161904D01*
X146346571Y-65114285D01*
X146298952Y-65161904D01*
X146251333Y-65257142D01*
X146251333Y-65495238D01*
X146298952Y-65590476D01*
X146346571Y-65638095D01*
X146441809Y-65685714D01*
X146679904Y-65685714D01*
X146775142Y-65638095D01*
X146822761Y-65590476D01*
X146870380Y-65495238D01*
X146870380Y-65257142D01*
X146822761Y-65161904D01*
X146775142Y-65114285D01*
X117976666Y-40206380D02*
X118310000Y-39730190D01*
X118548095Y-40206380D02*
X118548095Y-39206380D01*
X118167142Y-39206380D01*
X118071904Y-39254000D01*
X118024285Y-39301619D01*
X117976666Y-39396857D01*
X117976666Y-39539714D01*
X118024285Y-39634952D01*
X118071904Y-39682571D01*
X118167142Y-39730190D01*
X118548095Y-39730190D01*
X117643333Y-39206380D02*
X117024285Y-39206380D01*
X117357619Y-39587333D01*
X117214761Y-39587333D01*
X117119523Y-39634952D01*
X117071904Y-39682571D01*
X117024285Y-39777809D01*
X117024285Y-40015904D01*
X117071904Y-40111142D01*
X117119523Y-40158761D01*
X117214761Y-40206380D01*
X117500476Y-40206380D01*
X117595714Y-40158761D01*
X117643333Y-40111142D01*
X117976666Y-38682380D02*
X118310000Y-38206190D01*
X118548095Y-38682380D02*
X118548095Y-37682380D01*
X118167142Y-37682380D01*
X118071904Y-37730000D01*
X118024285Y-37777619D01*
X117976666Y-37872857D01*
X117976666Y-38015714D01*
X118024285Y-38110952D01*
X118071904Y-38158571D01*
X118167142Y-38206190D01*
X118548095Y-38206190D01*
X117595714Y-37777619D02*
X117548095Y-37730000D01*
X117452857Y-37682380D01*
X117214761Y-37682380D01*
X117119523Y-37730000D01*
X117071904Y-37777619D01*
X117024285Y-37872857D01*
X117024285Y-37968095D01*
X117071904Y-38110952D01*
X117643333Y-38682380D01*
X117024285Y-38682380D01*
X108324666Y-59670380D02*
X108658000Y-59194190D01*
X108896095Y-59670380D02*
X108896095Y-58670380D01*
X108515142Y-58670380D01*
X108419904Y-58718000D01*
X108372285Y-58765619D01*
X108324666Y-58860857D01*
X108324666Y-59003714D01*
X108372285Y-59098952D01*
X108419904Y-59146571D01*
X108515142Y-59194190D01*
X108896095Y-59194190D01*
X107372285Y-59670380D02*
X107943714Y-59670380D01*
X107658000Y-59670380D02*
X107658000Y-58670380D01*
X107753238Y-58813238D01*
X107848476Y-58908476D01*
X107943714Y-58956095D01*
X162204285Y-33094380D02*
X162204285Y-32094380D01*
X161966190Y-32094380D01*
X161823333Y-32142000D01*
X161728095Y-32237238D01*
X161680476Y-32332476D01*
X161632857Y-32522952D01*
X161632857Y-32665809D01*
X161680476Y-32856285D01*
X161728095Y-32951523D01*
X161823333Y-33046761D01*
X161966190Y-33094380D01*
X162204285Y-33094380D01*
X160728095Y-32094380D02*
X161204285Y-32094380D01*
X161251904Y-32570571D01*
X161204285Y-32522952D01*
X161109047Y-32475333D01*
X160870952Y-32475333D01*
X160775714Y-32522952D01*
X160728095Y-32570571D01*
X160680476Y-32665809D01*
X160680476Y-32903904D01*
X160728095Y-32999142D01*
X160775714Y-33046761D01*
X160870952Y-33094380D01*
X161109047Y-33094380D01*
X161204285Y-33046761D01*
X161251904Y-32999142D01*
X160204285Y-33094380D02*
X160013809Y-33094380D01*
X159918571Y-33046761D01*
X159870952Y-32999142D01*
X159775714Y-32856285D01*
X159728095Y-32665809D01*
X159728095Y-32284857D01*
X159775714Y-32189619D01*
X159823333Y-32142000D01*
X159918571Y-32094380D01*
X160109047Y-32094380D01*
X160204285Y-32142000D01*
X160251904Y-32189619D01*
X160299523Y-32284857D01*
X160299523Y-32522952D01*
X160251904Y-32618190D01*
X160204285Y-32665809D01*
X160109047Y-32713428D01*
X159918571Y-32713428D01*
X159823333Y-32665809D01*
X159775714Y-32618190D01*
X159728095Y-32522952D01*
X130200380Y-80417904D02*
X129200380Y-80417904D01*
X129200380Y-80656000D01*
X129248000Y-80798857D01*
X129343238Y-80894095D01*
X129438476Y-80941714D01*
X129628952Y-80989333D01*
X129771809Y-80989333D01*
X129962285Y-80941714D01*
X130057523Y-80894095D01*
X130152761Y-80798857D01*
X130200380Y-80656000D01*
X130200380Y-80417904D01*
X130200380Y-81465523D02*
X130200380Y-81656000D01*
X130152761Y-81751238D01*
X130105142Y-81798857D01*
X129962285Y-81894095D01*
X129771809Y-81941714D01*
X129390857Y-81941714D01*
X129295619Y-81894095D01*
X129248000Y-81846476D01*
X129200380Y-81751238D01*
X129200380Y-81560761D01*
X129248000Y-81465523D01*
X129295619Y-81417904D01*
X129390857Y-81370285D01*
X129628952Y-81370285D01*
X129724190Y-81417904D01*
X129771809Y-81465523D01*
X129819428Y-81560761D01*
X129819428Y-81751238D01*
X129771809Y-81846476D01*
X129724190Y-81894095D01*
X129628952Y-81941714D01*
X131978380Y-80417904D02*
X130978380Y-80417904D01*
X130978380Y-80656000D01*
X131026000Y-80798857D01*
X131121238Y-80894095D01*
X131216476Y-80941714D01*
X131406952Y-80989333D01*
X131549809Y-80989333D01*
X131740285Y-80941714D01*
X131835523Y-80894095D01*
X131930761Y-80798857D01*
X131978380Y-80656000D01*
X131978380Y-80417904D01*
X131406952Y-81560761D02*
X131359333Y-81465523D01*
X131311714Y-81417904D01*
X131216476Y-81370285D01*
X131168857Y-81370285D01*
X131073619Y-81417904D01*
X131026000Y-81465523D01*
X130978380Y-81560761D01*
X130978380Y-81751238D01*
X131026000Y-81846476D01*
X131073619Y-81894095D01*
X131168857Y-81941714D01*
X131216476Y-81941714D01*
X131311714Y-81894095D01*
X131359333Y-81846476D01*
X131406952Y-81751238D01*
X131406952Y-81560761D01*
X131454571Y-81465523D01*
X131502190Y-81417904D01*
X131597428Y-81370285D01*
X131787904Y-81370285D01*
X131883142Y-81417904D01*
X131930761Y-81465523D01*
X131978380Y-81560761D01*
X131978380Y-81751238D01*
X131930761Y-81846476D01*
X131883142Y-81894095D01*
X131787904Y-81941714D01*
X131597428Y-81941714D01*
X131502190Y-81894095D01*
X131454571Y-81846476D01*
X131406952Y-81751238D01*
X133756380Y-80417904D02*
X132756380Y-80417904D01*
X132756380Y-80656000D01*
X132804000Y-80798857D01*
X132899238Y-80894095D01*
X132994476Y-80941714D01*
X133184952Y-80989333D01*
X133327809Y-80989333D01*
X133518285Y-80941714D01*
X133613523Y-80894095D01*
X133708761Y-80798857D01*
X133756380Y-80656000D01*
X133756380Y-80417904D01*
X132756380Y-81322666D02*
X132756380Y-81989333D01*
X133756380Y-81560761D01*
X135534380Y-80417904D02*
X134534380Y-80417904D01*
X134534380Y-80656000D01*
X134582000Y-80798857D01*
X134677238Y-80894095D01*
X134772476Y-80941714D01*
X134962952Y-80989333D01*
X135105809Y-80989333D01*
X135296285Y-80941714D01*
X135391523Y-80894095D01*
X135486761Y-80798857D01*
X135534380Y-80656000D01*
X135534380Y-80417904D01*
X134534380Y-81846476D02*
X134534380Y-81656000D01*
X134582000Y-81560761D01*
X134629619Y-81513142D01*
X134772476Y-81417904D01*
X134962952Y-81370285D01*
X135343904Y-81370285D01*
X135439142Y-81417904D01*
X135486761Y-81465523D01*
X135534380Y-81560761D01*
X135534380Y-81751238D01*
X135486761Y-81846476D01*
X135439142Y-81894095D01*
X135343904Y-81941714D01*
X135105809Y-81941714D01*
X135010571Y-81894095D01*
X134962952Y-81846476D01*
X134915333Y-81751238D01*
X134915333Y-81560761D01*
X134962952Y-81465523D01*
X135010571Y-81417904D01*
X135105809Y-81370285D01*
X137312380Y-80417904D02*
X136312380Y-80417904D01*
X136312380Y-80656000D01*
X136360000Y-80798857D01*
X136455238Y-80894095D01*
X136550476Y-80941714D01*
X136740952Y-80989333D01*
X136883809Y-80989333D01*
X137074285Y-80941714D01*
X137169523Y-80894095D01*
X137264761Y-80798857D01*
X137312380Y-80656000D01*
X137312380Y-80417904D01*
X136312380Y-81894095D02*
X136312380Y-81417904D01*
X136788571Y-81370285D01*
X136740952Y-81417904D01*
X136693333Y-81513142D01*
X136693333Y-81751238D01*
X136740952Y-81846476D01*
X136788571Y-81894095D01*
X136883809Y-81941714D01*
X137121904Y-81941714D01*
X137217142Y-81894095D01*
X137264761Y-81846476D01*
X137312380Y-81751238D01*
X137312380Y-81513142D01*
X137264761Y-81417904D01*
X137217142Y-81370285D01*
X139090380Y-80417904D02*
X138090380Y-80417904D01*
X138090380Y-80656000D01*
X138138000Y-80798857D01*
X138233238Y-80894095D01*
X138328476Y-80941714D01*
X138518952Y-80989333D01*
X138661809Y-80989333D01*
X138852285Y-80941714D01*
X138947523Y-80894095D01*
X139042761Y-80798857D01*
X139090380Y-80656000D01*
X139090380Y-80417904D01*
X138423714Y-81846476D02*
X139090380Y-81846476D01*
X138042761Y-81608380D02*
X138757047Y-81370285D01*
X138757047Y-81989333D01*
X140868380Y-80417904D02*
X139868380Y-80417904D01*
X139868380Y-80656000D01*
X139916000Y-80798857D01*
X140011238Y-80894095D01*
X140106476Y-80941714D01*
X140296952Y-80989333D01*
X140439809Y-80989333D01*
X140630285Y-80941714D01*
X140725523Y-80894095D01*
X140820761Y-80798857D01*
X140868380Y-80656000D01*
X140868380Y-80417904D01*
X139868380Y-81322666D02*
X139868380Y-81941714D01*
X140249333Y-81608380D01*
X140249333Y-81751238D01*
X140296952Y-81846476D01*
X140344571Y-81894095D01*
X140439809Y-81941714D01*
X140677904Y-81941714D01*
X140773142Y-81894095D01*
X140820761Y-81846476D01*
X140868380Y-81751238D01*
X140868380Y-81465523D01*
X140820761Y-81370285D01*
X140773142Y-81322666D01*
X142646380Y-80417904D02*
X141646380Y-80417904D01*
X141646380Y-80656000D01*
X141694000Y-80798857D01*
X141789238Y-80894095D01*
X141884476Y-80941714D01*
X142074952Y-80989333D01*
X142217809Y-80989333D01*
X142408285Y-80941714D01*
X142503523Y-80894095D01*
X142598761Y-80798857D01*
X142646380Y-80656000D01*
X142646380Y-80417904D01*
X141741619Y-81370285D02*
X141694000Y-81417904D01*
X141646380Y-81513142D01*
X141646380Y-81751238D01*
X141694000Y-81846476D01*
X141741619Y-81894095D01*
X141836857Y-81941714D01*
X141932095Y-81941714D01*
X142074952Y-81894095D01*
X142646380Y-81322666D01*
X142646380Y-81941714D01*
X158172095Y-33094380D02*
X158172095Y-32094380D01*
X157934000Y-32094380D01*
X157791142Y-32142000D01*
X157695904Y-32237238D01*
X157648285Y-32332476D01*
X157600666Y-32522952D01*
X157600666Y-32665809D01*
X157648285Y-32856285D01*
X157695904Y-32951523D01*
X157791142Y-33046761D01*
X157934000Y-33094380D01*
X158172095Y-33094380D01*
X156648285Y-33094380D02*
X157219714Y-33094380D01*
X156934000Y-33094380D02*
X156934000Y-32094380D01*
X157029238Y-32237238D01*
X157124476Y-32332476D01*
X157219714Y-32380095D01*
X128863380Y-45008666D02*
X129577666Y-45008666D01*
X129720523Y-44961047D01*
X129815761Y-44865809D01*
X129863380Y-44722952D01*
X129863380Y-44627714D01*
X128863380Y-45389619D02*
X128863380Y-46008666D01*
X129244333Y-45675333D01*
X129244333Y-45818190D01*
X129291952Y-45913428D01*
X129339571Y-45961047D01*
X129434809Y-46008666D01*
X129672904Y-46008666D01*
X129768142Y-45961047D01*
X129815761Y-45913428D01*
X129863380Y-45818190D01*
X129863380Y-45532476D01*
X129815761Y-45437238D01*
X129768142Y-45389619D01*
X107026380Y-37241666D02*
X107740666Y-37241666D01*
X107883523Y-37194047D01*
X107978761Y-37098809D01*
X108026380Y-36955952D01*
X108026380Y-36860714D01*
X108026380Y-38241666D02*
X108026380Y-37670238D01*
X108026380Y-37955952D02*
X107026380Y-37955952D01*
X107169238Y-37860714D01*
X107264476Y-37765476D01*
X107312095Y-37670238D01*
X115269904Y-74512380D02*
X115269904Y-75321904D01*
X115222285Y-75417142D01*
X115174666Y-75464761D01*
X115079428Y-75512380D01*
X114888952Y-75512380D01*
X114793714Y-75464761D01*
X114746095Y-75417142D01*
X114698476Y-75321904D01*
X114698476Y-74512380D01*
X113698476Y-75512380D02*
X114269904Y-75512380D01*
X113984190Y-75512380D02*
X113984190Y-74512380D01*
X114079428Y-74655238D01*
X114174666Y-74750476D01*
X114269904Y-74798095D01*
X118269904Y-72988380D02*
X117603238Y-72988380D01*
X118031809Y-73988380D01*
X116793714Y-73321714D02*
X116793714Y-73988380D01*
X117031809Y-72940761D02*
X117269904Y-73655047D01*
X116650857Y-73655047D01*
X116269904Y-73988380D02*
X116269904Y-72988380D01*
X116269904Y-73464571D02*
X115698476Y-73464571D01*
X115698476Y-73988380D02*
X115698476Y-72988380D01*
X114650857Y-73893142D02*
X114698476Y-73940761D01*
X114841333Y-73988380D01*
X114936571Y-73988380D01*
X115079428Y-73940761D01*
X115174666Y-73845523D01*
X115222285Y-73750285D01*
X115269904Y-73559809D01*
X115269904Y-73416952D01*
X115222285Y-73226476D01*
X115174666Y-73131238D01*
X115079428Y-73036000D01*
X114936571Y-72988380D01*
X114841333Y-72988380D01*
X114698476Y-73036000D01*
X114650857Y-73083619D01*
X113698476Y-73988380D02*
X114269904Y-73988380D01*
X113984190Y-73988380D02*
X113984190Y-72988380D01*
X114079428Y-73131238D01*
X114174666Y-73226476D01*
X114269904Y-73274095D01*
X112841333Y-72988380D02*
X113031809Y-72988380D01*
X113127047Y-73036000D01*
X113174666Y-73083619D01*
X113269904Y-73226476D01*
X113317523Y-73416952D01*
X113317523Y-73797904D01*
X113269904Y-73893142D01*
X113222285Y-73940761D01*
X113127047Y-73988380D01*
X112936571Y-73988380D01*
X112841333Y-73940761D01*
X112793714Y-73893142D01*
X112746095Y-73797904D01*
X112746095Y-73559809D01*
X112793714Y-73464571D01*
X112841333Y-73416952D01*
X112936571Y-73369333D01*
X113127047Y-73369333D01*
X113222285Y-73416952D01*
X113269904Y-73464571D01*
X113317523Y-73559809D01*
X111841333Y-72988380D02*
X112317523Y-72988380D01*
X112365142Y-73464571D01*
X112317523Y-73416952D01*
X112222285Y-73369333D01*
X111984190Y-73369333D01*
X111888952Y-73416952D01*
X111841333Y-73464571D01*
X111793714Y-73559809D01*
X111793714Y-73797904D01*
X111841333Y-73893142D01*
X111888952Y-73940761D01*
X111984190Y-73988380D01*
X112222285Y-73988380D01*
X112317523Y-73940761D01*
X112365142Y-73893142D01*
X111365142Y-73988380D02*
X111365142Y-72988380D01*
X111127047Y-72988380D01*
X110984190Y-73036000D01*
X110888952Y-73131238D01*
X110841333Y-73226476D01*
X110793714Y-73416952D01*
X110793714Y-73559809D01*
X110841333Y-73750285D01*
X110888952Y-73845523D01*
X110984190Y-73940761D01*
X111127047Y-73988380D01*
X111365142Y-73988380D01*
X119954780Y-77180900D02*
X120192876Y-77180900D01*
X120097638Y-76942804D02*
X120192876Y-77180900D01*
X120097638Y-77418995D01*
X120383352Y-77038042D02*
X120192876Y-77180900D01*
X120383352Y-77323757D01*
X119954780Y-77180900D02*
X120192876Y-77180900D01*
X120097638Y-76942804D02*
X120192876Y-77180900D01*
X120097638Y-77418995D01*
X120383352Y-77038042D02*
X120192876Y-77180900D01*
X120383352Y-77323757D01*
X136986904Y-65452380D02*
X136986904Y-66261904D01*
X136939285Y-66357142D01*
X136891666Y-66404761D01*
X136796428Y-66452380D01*
X136605952Y-66452380D01*
X136510714Y-66404761D01*
X136463095Y-66357142D01*
X136415476Y-66261904D01*
X136415476Y-65452380D01*
X135986904Y-65547619D02*
X135939285Y-65500000D01*
X135844047Y-65452380D01*
X135605952Y-65452380D01*
X135510714Y-65500000D01*
X135463095Y-65547619D01*
X135415476Y-65642857D01*
X135415476Y-65738095D01*
X135463095Y-65880952D01*
X136034523Y-66452380D01*
X135415476Y-66452380D01*
X157960380Y-62360095D02*
X158769904Y-62360095D01*
X158865142Y-62407714D01*
X158912761Y-62455333D01*
X158960380Y-62550571D01*
X158960380Y-62741047D01*
X158912761Y-62836285D01*
X158865142Y-62883904D01*
X158769904Y-62931523D01*
X157960380Y-62931523D01*
X157960380Y-63312476D02*
X157960380Y-63931523D01*
X158341333Y-63598190D01*
X158341333Y-63741047D01*
X158388952Y-63836285D01*
X158436571Y-63883904D01*
X158531809Y-63931523D01*
X158769904Y-63931523D01*
X158865142Y-63883904D01*
X158912761Y-63836285D01*
X158960380Y-63741047D01*
X158960380Y-63455333D01*
X158912761Y-63360095D01*
X158865142Y-63312476D01*
X156417904Y-41492380D02*
X156417904Y-42301904D01*
X156370285Y-42397142D01*
X156322666Y-42444761D01*
X156227428Y-42492380D01*
X156036952Y-42492380D01*
X155941714Y-42444761D01*
X155894095Y-42397142D01*
X155846476Y-42301904D01*
X155846476Y-41492380D01*
X154941714Y-41825714D02*
X154941714Y-42492380D01*
X155179809Y-41444761D02*
X155417904Y-42159047D01*
X154798857Y-42159047D01*
X152740000Y-39825380D02*
X152740000Y-40063476D01*
X152978095Y-39968238D02*
X152740000Y-40063476D01*
X152501904Y-39968238D01*
X152882857Y-40253952D02*
X152740000Y-40063476D01*
X152597142Y-40253952D01*
X152740000Y-39825380D02*
X152740000Y-40063476D01*
X152978095Y-39968238D02*
X152740000Y-40063476D01*
X152501904Y-39968238D01*
X152882857Y-40253952D02*
X152740000Y-40063476D01*
X152597142Y-40253952D01*
X114009761Y-50231666D02*
X114057380Y-50374523D01*
X114057380Y-50612619D01*
X114009761Y-50707857D01*
X113962142Y-50755476D01*
X113866904Y-50803095D01*
X113771666Y-50803095D01*
X113676428Y-50755476D01*
X113628809Y-50707857D01*
X113581190Y-50612619D01*
X113533571Y-50422142D01*
X113485952Y-50326904D01*
X113438333Y-50279285D01*
X113343095Y-50231666D01*
X113247857Y-50231666D01*
X113152619Y-50279285D01*
X113105000Y-50326904D01*
X113057380Y-50422142D01*
X113057380Y-50660238D01*
X113105000Y-50803095D01*
X113057380Y-51136428D02*
X114057380Y-51374523D01*
X113343095Y-51565000D01*
X114057380Y-51755476D01*
X113057380Y-51993571D01*
X114057380Y-52898333D02*
X114057380Y-52326904D01*
X114057380Y-52612619D02*
X113057380Y-52612619D01*
X113200238Y-52517380D01*
X113295476Y-52422142D01*
X113343095Y-52326904D01*
M02*
